<?xml version="1.0" encoding="UTF-8" standalone="no"?>
<!-- Created with Inkscape (http://www.inkscape.org/) -->

<svg
   xmlns:dc="http://purl.org/dc/elements/1.1/"
   xmlns:cc="http://creativecommons.org/ns#"
   xmlns:rdf="http://www.w3.org/1999/02/22-rdf-syntax-ns#"
   xmlns:svg="http://www.w3.org/2000/svg"
   xmlns="http://www.w3.org/2000/svg"
   xmlns:sodipodi="http://sodipodi.sourceforge.net/DTD/sodipodi-0.dtd"
   xmlns:inkscape="http://www.inkscape.org/namespaces/inkscape"
   width="744.09448819"
   height="1052.3622047"
   id="svg2"
   version="1.1"
   inkscape:version="0.48.2 r9819"
   sodipodi:docname="amelie-inside.svg"
   inkscape:export-filename="/Users/benjaminkampmann/dev/hs-www/assets/maskot/amelie-inside.png"
   inkscape:export-xdpi="129"
   inkscape:export-ydpi="129">
  <title
     id="title4418">Hackership Logos</title>
  <defs
     id="defs4">
    <filter
       inkscape:collect="always"
       id="filter3845">
      <feGaussianBlur
         inkscape:collect="always"
         stdDeviation="1.5327014"
         id="feGaussianBlur3847" />
    </filter>
  </defs>
  <sodipodi:namedview
     id="base"
     pagecolor="#ffffff"
     bordercolor="#666666"
     borderopacity="1.0"
     inkscape:pageopacity="0.0"
     inkscape:pageshadow="2"
     inkscape:zoom="0.52643473"
     inkscape:cx="372.04724"
     inkscape:cy="526.18109"
     inkscape:document-units="px"
     inkscape:current-layer="layer1"
     showgrid="false"
     showguides="true"
     inkscape:guide-bbox="true"
     inkscape:window-width="1120"
     inkscape:window-height="772"
     inkscape:window-x="254"
     inkscape:window-y="25"
     inkscape:window-maximized="0" />
  <metadata
     id="metadata7">
    <rdf:RDF>
      <cc:Work
         rdf:about="">
        <dc:format>image/svg+xml</dc:format>
        <dc:type
           rdf:resource="http://purl.org/dc/dcmitype/StillImage" />
        <dc:title>Hackership Logos</dc:title>
        <cc:license
           rdf:resource="http://creativecommons.org/licenses/by-nd/3.0/" />
        <dc:creator>
          <cc:Agent>
            <dc:title>Benjamin Kampmann</dc:title>
          </cc:Agent>
        </dc:creator>
        <dc:publisher>
          <cc:Agent>
            <dc:title>OpenTechSchool e.V.</dc:title>
          </cc:Agent>
        </dc:publisher>
        <dc:subject>
          <rdf:Bag>
            <rdf:li>Hackership</rdf:li>
            <rdf:li>HS</rdf:li>
          </rdf:Bag>
        </dc:subject>
      </cc:Work>
      <cc:License
         rdf:about="http://creativecommons.org/licenses/by-nd/3.0/">
        <cc:permits
           rdf:resource="http://creativecommons.org/ns#Reproduction" />
        <cc:permits
           rdf:resource="http://creativecommons.org/ns#Distribution" />
        <cc:requires
           rdf:resource="http://creativecommons.org/ns#Notice" />
        <cc:requires
           rdf:resource="http://creativecommons.org/ns#Attribution" />
      </cc:License>
    </rdf:RDF>
  </metadata>
  <g
     inkscape:label="Layer 1"
     inkscape:groupmode="layer"
     id="layer1">
    <g
       id="full-color-on-white"
       transform="translate(2.7865692,921.00514)">
      <title
         id="title4369">Full Text, colored on white</title>
      <g
         id="g3803"
         transform="translate(-2,-16)">
        <g
           style="font-size:77.93405914px;font-style:normal;font-variant:normal;font-weight:normal;font-stretch:normal;line-height:125%;letter-spacing:0px;word-spacing:0px;fill:#20a260;fill-opacity:1;stroke:none;font-family:Sans;-inkscape-font-specification:Helvetica"
           id="text3805">
          <path
             d="m 97.24548,24.517508 14.65069,0 0,21.652578 21.61452,0 0,-21.652578 14.65069,0 0,56.814233 -14.65069,0 0,-24.088017 -21.61452,0 0,24.088017 -14.65069,0 0,-56.814233"
             style="font-weight:bold;fill:#20a260;font-family:Sans;-inkscape-font-specification:Sans Bold"
             id="path4781"
             inkscape:connector-curvature="0" />
          <path
             d="m 197.02239,70.981124 -22.90836,0 -3.6151,10.350617 -14.7268,0 21.04372,-56.814233 17.46667,0 21.04371,56.814233 -14.72679,0 -3.57705,-10.350617 m -19.2552,-10.540886 15.56398,0 -7.76296,-22.603921 -7.80102,22.603921"
             style="font-weight:bold;fill:#20a260;font-family:Sans;-inkscape-font-specification:Sans Bold"
             id="path4783"
             inkscape:connector-curvature="0" />
          <path
             d="m 267.87845,78.211335 c -2.68918,1.395305 -5.49247,2.448124 -8.40988,3.15846 -2.91749,0.710336 -5.96179,1.065504 -9.1329,1.065505 -9.46272,-10e-7 -16.9593,-2.638391 -22.48976,-7.915178 -5.53048,-5.302142 -8.29572,-12.481607 -8.29571,-21.538417 -1e-5,-9.082122 2.76523,-16.261587 8.29571,-21.538417 5.53046,-5.302099 13.02704,-7.953173 22.48976,-7.953231 3.17111,5.8e-5 6.21541,0.355226 9.1329,1.065505 2.91741,0.710392 5.7207,1.763211 8.40988,3.15846 l 0,11.758606 c -2.71455,-1.851905 -5.391,-3.209154 -8.02934,-4.071751 -2.63844,-0.862504 -5.41636,-1.29378 -8.33377,-1.293827 -5.22608,4.7e-5 -9.33588,1.67441 -12.32941,5.023094 -2.99358,3.348768 -4.49036,7.96595 -4.49034,13.851561 -2e-5,5.860299 1.49676,10.464797 4.49034,13.813508 2.99353,3.34874 7.10333,5.023103 12.32941,5.023093 2.91741,10e-6 5.69533,-0.431265 8.33377,-1.293827 2.63834,-0.86254 5.31479,-2.219788 8.02934,-4.07175 l 0,11.758606"
             style="font-weight:bold;fill:#20a260;font-family:Sans;-inkscape-font-specification:Sans Bold"
             id="path4785"
             inkscape:connector-curvature="0" />
          <path
             d="m 280.05565,24.517508 14.65069,0 0,20.739288 21.11982,-20.739288 17.01002,0 -27.36064,26.903994 30.17662,29.910239 -18.3419,0 -22.60392,-22.375599 0,22.375599 -14.65069,0 0,-56.814233"
             style="font-weight:bold;fill:#20a260;font-family:Sans;-inkscape-font-specification:Sans Bold"
             id="path4787"
             inkscape:connector-curvature="0" />
          <path
             d="m 340.48498,24.517508 39.53784,0 0,11.073638 -24.88715,0 0,10.57894 23.40305,0 0,11.073638 -23.40305,0 0,13.014379 25.72433,0 0,11.073638 -40.37502,0 0,-56.814233"
             style="font-weight:bold;fill:#20a260;font-family:Sans;-inkscape-font-specification:Sans Bold"
             id="path4789"
             inkscape:connector-curvature="0" />
          <path
             d="m 414.57562,49.709084 c 3.06963,3.1e-5 5.26406,-0.570774 6.58329,-1.712419 1.34453,-1.141577 2.01681,-3.018893 2.01685,-5.631953 -4e-5,-2.587613 -0.67232,-4.43956 -2.01685,-5.555846 -1.31923,-1.116198 -3.51366,-1.674319 -6.58329,-1.674365 l -6.16471,0 0,14.574583 6.16471,0 m -6.16471,10.122294 0,21.500363 -14.65069,0 0,-56.814233 22.3756,0 c 7.48386,5.7e-5 12.9636,1.255829 16.43921,3.76732 3.5009,2.511597 5.25137,6.481867 5.25142,11.910821 -5e-5,3.754673 -0.91334,6.837022 -2.73987,9.247058 -1.80126,2.4101 -4.52844,4.185939 -8.18155,5.327524 2.00412,0.456671 3.79264,1.496805 5.36558,3.120407 1.5982,1.598279 3.20914,4.033715 4.83282,7.306318 l 7.95323,16.134785 -15.60203,0 -6.92578,-14.117937 c -1.39534,-2.841329 -2.81601,-4.782068 -4.26202,-5.822222 -1.4207,-1.040115 -3.32339,-1.560182 -5.70806,-1.560204 l -4.14786,0"
             style="font-weight:bold;fill:#20a260;font-family:Sans;-inkscape-font-specification:Sans Bold"
             id="path4791"
             inkscape:connector-curvature="0" />
        </g>
        <g
           style="font-size:77.93405914px;font-style:normal;font-variant:normal;font-weight:normal;font-stretch:normal;line-height:125%;letter-spacing:0px;word-spacing:0px;fill:#999999;fill-opacity:1;stroke:none;font-family:Sans;-inkscape-font-specification:Helvetica"
           id="text3809">
          <path
             d="m 493.61,26.306034 0,12.024981 c -3.12045,-1.395259 -6.16475,-2.448078 -9.1329,-3.15846 -2.96822,-0.71029 -5.77151,-1.065458 -8.40987,-1.065505 -3.50097,4.7e-5 -6.08863,0.482061 -7.76297,1.446042 -1.67438,0.964073 -2.51156,2.460852 -2.51154,4.490342 -2e-5,1.522189 0.5581,2.714538 1.67436,3.577051 1.14159,0.837219 3.19649,1.56024 6.16471,2.169063 l 6.24081,1.255774 c 6.31688,1.268491 10.80722,3.196545 13.47102,5.784168 2.66372,2.58768 3.9956,6.266205 3.99565,11.035585 -5e-5,6.266193 -1.86469,10.934114 -5.5939,14.003776 -3.70394,3.0443 -9.37394,4.566448 -17.01003,4.566449 -3.60244,-10e-7 -7.21754,-0.342485 -10.84531,-1.027451 -3.6278,-0.684967 -7.25559,-1.699732 -10.88337,-3.044299 l 0,-12.367466 c 3.62778,1.92807 7.12872,3.386795 10.50283,4.37618 3.39945,0.964038 6.67207,1.446052 9.81787,1.446042 3.19648,10e-6 5.6446,-0.532742 7.34437,-1.598257 1.6997,-1.065492 2.54956,-2.58764 2.5496,-4.566448 -4e-5,-1.775824 -0.58353,-3.145757 -1.75047,-4.109804 -1.14165,-0.964008 -3.43756,-1.826558 -6.88773,-2.587655 l -5.67001,-1.255773 c -5.68271,-1.217695 -9.84324,-3.158434 -12.48162,-5.822222 -2.61304,-2.66373 -3.91955,-6.253462 -3.91954,-10.769209 -10e-6,-5.657276 1.82657,-10.008083 5.47974,-13.052432 3.65314,-3.044243 8.90455,-4.566391 15.75425,-4.566449 3.12037,5.8e-5 6.32957,0.241064 9.62759,0.723021 3.29795,0.456701 6.7101,1.154353 10.23646,2.092956"
             style="font-weight:bold;fill:#999999;-inkscape-font-specification:Sans Bold"
             id="path4794"
             inkscape:connector-curvature="0" />
          <path
             d="m 510.23948,24.517508 14.65069,0 0,21.652578 21.61453,0 0,-21.652578 14.65069,0 0,56.814233 -14.65069,0 0,-24.088017 -21.61453,0 0,24.088017 -14.65069,0 0,-56.814233"
             style="font-weight:bold;fill:#999999;-inkscape-font-specification:Sans Bold"
             id="path4796"
             inkscape:connector-curvature="0" />
          <path
             d="m 575.5397,24.517508 14.65069,0 0,56.814233 -14.65069,0 0,-56.814233"
             style="font-weight:bold;fill:#999999;-inkscape-font-specification:Sans Bold"
             id="path4798"
             inkscape:connector-curvature="0" />
          <path
             d="m 604.61275,24.517508 24.31634,0 c 7.23017,5.7e-5 12.77333,1.610997 16.62949,4.832825 3.88143,3.196563 5.82216,7.763007 5.82222,13.699346 -6e-5,5.961785 -1.94079,10.553598 -5.82222,13.775454 -3.85616,3.196535 -9.39932,4.794791 -16.62949,4.794771 l -9.66565,0 0,19.711837 -14.65069,0 0,-56.814233 m 14.65069,10.616993 0,15.86841 8.10545,0 c 2.84131,3e-5 5.03574,-0.684937 6.5833,-2.054902 1.54748,-1.39527 2.32123,-3.361378 2.32127,-5.89833 -4e-5,-2.536875 -0.77379,-4.490298 -2.32127,-5.860276 -1.54756,-1.369889 -3.74199,-2.054856 -6.5833,-2.054902 l -8.10545,0"
             style="font-weight:bold;fill:#999999;-inkscape-font-specification:Sans Bold"
             id="path4800"
             inkscape:connector-curvature="0" />
        </g>
      </g>
    </g>
    <text
       xml:space="preserve"
       style="font-size:93.13373566px;font-style:normal;font-variant:normal;font-weight:300;font-stretch:normal;line-height:125%;letter-spacing:0px;word-spacing:0px;fill:#000000;fill-opacity:1;stroke:none;font-family:Source Code Pro;-inkscape-font-specification:Source Code Pro Light"
       x="71.322769"
       y="155.67972"
       id="text4502"
       sodipodi:linespacing="125%"><tspan
         sodipodi:role="line"
         id="tspan4504"
         x="71.322769"
         y="155.67972">You did it!</tspan></text>
  </g>
</svg>
