<?xml version="1.0" encoding="UTF-8" standalone="no"?>
<!-- Created with Inkscape (http://www.inkscape.org/) -->

<svg
   xmlns:dc="http://purl.org/dc/elements/1.1/"
   xmlns:cc="http://creativecommons.org/ns#"
   xmlns:rdf="http://www.w3.org/1999/02/22-rdf-syntax-ns#"
   xmlns:svg="http://www.w3.org/2000/svg"
   xmlns="http://www.w3.org/2000/svg"
   xmlns:sodipodi="http://sodipodi.sourceforge.net/DTD/sodipodi-0.dtd"
   xmlns:inkscape="http://www.inkscape.org/namespaces/inkscape"
   width="744.09448819"
   height="1052.3622047"
   id="svg7205"
   version="1.1"
   inkscape:version="0.48.2 r9819"
   sodipodi:docname="card-amelie.svg"
   inkscape:export-filename="/Users/benjaminkampmann/dev/hs-www/assets/maskot/card-amelie.png"
   inkscape:export-xdpi="129"
   inkscape:export-ydpi="129">
  <defs
     id="defs7207" />
  <sodipodi:namedview
     id="base"
     pagecolor="#ffffff"
     bordercolor="#666666"
     borderopacity="1.0"
     inkscape:pageopacity="0.0"
     inkscape:pageshadow="2"
     inkscape:zoom="0.52928546"
     inkscape:cx="372.04724"
     inkscape:cy="450.60751"
     inkscape:document-units="px"
     inkscape:current-layer="layer1"
     showgrid="false"
     inkscape:window-width="1279"
     inkscape:window-height="775"
     inkscape:window-x="154"
     inkscape:window-y="12"
     inkscape:window-maximized="0"
     showguides="false"
     inkscape:guide-bbox="true" />
  <metadata
     id="metadata7210">
    <rdf:RDF>
      <cc:Work
         rdf:about="">
        <dc:format>image/svg+xml</dc:format>
        <dc:type
           rdf:resource="http://purl.org/dc/dcmitype/StillImage" />
        <dc:title></dc:title>
      </cc:Work>
    </rdf:RDF>
  </metadata>
  <g
     inkscape:label="Layer 1"
     inkscape:groupmode="layer"
     id="layer1">
    <rect
       y="2.1711724"
       x="-0.83712769"
       height="1056.3716"
       width="745.76874"
       id="rect10123"
       style="fill:#222222;fill-opacity:1;stroke:none" />
    <g
       id="g10149"
       transform="matrix(1.0064143,0,0,1.0064143,-82.102918,276.38395)">
      <path
         style="fill:#125a35;fill-opacity:1"
         d="m 445.28405,693.54091 c -4.46817,1.67064 -7.35612,2.36487 -9.0073,2.16525 -1.33674,-0.16161 -4.46159,0.10133 -6.9441,0.58433 -2.48253,0.48298 -8.2635,1.08974 -12.84661,1.34836 -4.90341,0.27668 -9.9048,0.98471 -12.15219,1.72034 -2.10059,0.68758 -4.79114,1.26511 -5.97898,1.28339 -1.18786,0.0183 -3.53149,0.65253 -5.20808,1.40946 -4.33817,1.95852 -7.62847,2.35996 -9.25718,1.1294 -0.81158,-0.61315 -2.89499,-1.01839 -5.23579,-1.01839 -2.13833,0 -5.59405,-0.43609 -7.67941,-0.96908 -2.08535,-0.53298 -5.19773,-1.19107 -6.91639,-1.4624 -1.71867,-0.27133 -5.46849,-1.37618 -8.33294,-2.45521 -18.75546,-11.82332 -20.08382,-54.15545 -51.5376,-43.91239 -39.6115,8.30806 -135.63573,41.51258 -150.90721,-6.39292 -2.16592,-8.35853 0.4439,-20.62768 7.08902,-33.32662 2.6803,-5.12209 4.62438,-7.67331 9.71106,-12.74386 4.99182,-4.97598 6.53325,-6.98356 7.16586,-9.33289 0.78879,-2.92934 5.13347,-11.24202 11.97102,-22.90414 3.84747,-6.56224 13.03919,-18.54485 20.33435,-26.50852 2.67349,-2.91847 7.67325,-8.5375 11.11058,-12.48676 10.13196,-11.64091 23.13216,-24.77022 30.20755,-30.50754 3.62867,-2.94242 7.066,-5.91836 7.63853,-6.61318 0.57251,-0.69482 2.29088,-2.16979 3.81858,-3.2777 3.09543,-2.24484 10.30291,-8.57051 14.15209,-12.42061 4.25837,-4.25938 14.91888,-13.31061 19.1212,-16.23474 2.1955,-1.5277 4.87059,-3.48073 5.94463,-4.34006 1.34726,-1.26348 2.72028,-1.29899 4.17889,-3.28828 1.215,-1.54881 2.47415,-2.62394 7.09808,-4.90815 3.54306,-1.75027 6.95926,-3.65048 7.59156,-4.22271 1.48107,-0.86674 3.45247,-0.8078 4.75774,-1.22161 0.95481,-0.3001 10.32935,-3.30043 20.83233,-6.66743 24.97359,-8.00591 27.528,-8.71973 35.85127,-10.01846 3.86827,-0.6036 8.33028,-1.55508 9.91559,-2.1144 1.5853,-0.55934 5.95801,-1.33258 9.71713,-1.71834 3.75911,-0.38576 7.73419,-1.04662 8.8335,-1.4686 3.67693,-1.41137 17.13504,-2.34629 32.20562,-2.23728 12.81768,0.0927 16.15783,0.35193 23.60997,1.83229 4.77408,0.94838 10.3988,2.35581 12.4994,3.12761 2.10059,0.77183 6.16289,2.06387 9.02734,2.87123 2.86444,0.80736 6.45802,1.95017 7.98573,2.53957 1.5277,0.5894 4.72369,1.80255 7.1022,2.69592 5.55671,2.08706 23.8258,10.64519 25.1879,11.79923 0.57289,0.48538 2.15805,1.34326 3.52256,1.90642 1.36452,0.56314 3.55191,1.95711 4.86088,3.0977 17.63494,14.95701 21.43683,19.42439 31.84288,40.8062 7.43584,16.09294 11.17672,28.65781 15.23577,45.48391 4.26746,22.25093 4.85268,42.50719 4.50093,63.2483 -0.63199,4.26891 -0.90829,8.92485 -0.65934,11.11057 1.03692,9.10362 -1.60802,22.16287 -2.08302,29.04989 -5.99346,20.1237 -10.46999,31.78151 -23.07302,41.25217 -21.70978,13.09973 -42.87567,20.97703 -59.90192,-1.54888 -6.87322,-8.89561 -27.40537,4.68264 -56.90066,15.85961 z m 53.44748,-27.1163 c -0.74063,-1.45178 -1.34662,-4.02736 -1.34662,-5.72352 0,-2.7884 -0.2329,-3.22134 -2.43044,-4.51792 -1.91158,-1.12786 -2.43044,-1.87497 -2.43044,-3.49966 0,-1.13612 -0.28889,-2.24421 -0.64199,-2.46244 -1.06099,-0.65572 -9.87997,-0.74338 -13.53392,-0.13452 -7.5041,1.25042 -16.62955,13.87241 -17.64543,24.4065 -8.22014,47.22148 45.55671,19.79414 38.02884,-8.06844 z M 331.5773,680.2227 c 2.60952,11.17004 14.2174,-7.17023 18.2517,-12.89205 4.4682,-6.5485 4.1653,-5.89407 5.52376,-11.93389 1.07136,-4.7633 1.07868,-5.46558 0.0858,-8.22313 -2.59921,-7.21842 -6.78822,-11.6559 -13.83282,-14.6533 -6.77556,-2.88293 -9.57324,-1.54263 -20.86302,9.99506 -6.79586,6.94506 -10.4093,12.03028 -11.14017,15.67763 -0.61788,3.08342 -4.92591,7.21116 -13.36547,12.8061 20.27393,11.87932 17.68608,41.12073 35.34027,9.22358 z m 61.29877,10.71224 c 4.20119,-1.11117 9.35719,-2.29706 11.45778,-2.63532 6.78476,-1.09255 9.93476,-2.6675 16.89668,-8.44807 1.20979,-1.00451 3.76204,4.16741 5.67168,3.30018 3.84246,-1.74501 18.96824,-16.40501 22.36818,-21.6794 1.04614,-1.6229 3.78467,-5.44126 6.0856,-8.48526 2.30094,-3.04399 5.90219,-8.98121 8.00279,-13.1938 2.87025,-5.75611 4.30482,-7.88968 5.77341,-8.58653 1.07478,-0.50998 2.12532,-1.37329 2.33452,-1.91847 0.91697,-2.38958 -0.91099,-2.83044 -13.73204,-3.31176 l -12.57845,-0.47222 -6.481,-2.75845 c -3.56454,-1.51715 -8.44206,-3.9078 -10.83892,-5.31257 -5.36325,-3.14331 -15.19617,-12.5212 -21.22865,-20.24625 -4.45864,-5.70966 -9.51229,-10.17173 -10.69349,-9.44172 -0.3342,0.20656 -0.60765,1.62258 -0.60765,3.14671 0,1.52413 -0.44513,3.63191 -0.98916,4.68397 -1.19674,2.31423 -2.48294,15.22855 -2.46527,24.75302 0.0102,5.49256 0.3096,7.59732 1.4324,10.06897 0.78072,1.71866 1.69238,4.99975 2.02589,7.2913 0.33351,2.29156 0.82733,5.07465 1.09738,6.18465 0.37468,1.54012 0.18873,2.23921 -0.78505,2.95125 -3.37756,2.46973 -6.11789,-0.60255 -6.77482,-7.59544 -0.2231,-2.37496 -0.90617,-5.51298 -1.51791,-6.97339 -0.87028,-2.07759 -1.09358,-4.94811 -1.02637,-13.1938 0.0804,-9.865 0.005,-10.52231 -1.18449,-10.28485 -0.69871,0.13953 -2.67657,0.3141 -4.39523,0.38795 -1.71867,0.0738 -4.21855,0.48321 -5.55529,0.90971 -1.33674,0.4265 -4.93032,1.46258 -7.98572,2.30242 -12.38499,3.40427 -20.77267,6.5372 -24.9174,9.30705 -2.33633,1.56134 -4.13122,3.14494 -3.98866,3.51913 0.14256,0.37418 2.01747,1.17055 4.16647,1.76969 5.95072,1.65905 9.70609,3.89227 14.1712,8.42724 4.8199,4.89533 6.47665,8.41639 7.37114,15.6658 0.79377,6.43305 -0.13172,10.97804 -2.82284,13.86272 -0.98776,1.05882 -2.14008,2.59548 -2.5607,3.4148 -0.98623,1.92108 -5.34587,6.94522 -8.34493,9.61686 -1.28869,1.148 -2.85112,2.66314 -3.47205,3.36697 -9.6143,2.84517 -3.46422,8.02147 5.09776,8.33562 0.95925,0 3.388,0.67579 5.3972,1.50175 7.64081,3.14105 23.23031,3.04011 35.59601,-0.23046 z m 43.05347,-1.57062 c 2.70319,-0.09 5.19325,-0.67155 7.09006,-1.65576 1.60796,-0.83433 3.38078,-1.51697 3.93958,-1.51697 0.5588,0 2.00944,-0.83592 3.22365,-1.8576 1.92852,-1.62274 2.15721,-2.16833 1.80882,-4.31519 -0.21935,-1.35166 0.0608,2.4721 0.62254,0.30426 0.56175,-2.16784 0.9447,-5.46013 0.851,-7.31621 -0.0937,-1.85607 0.0839,-4.07776 0.39474,-4.9371 0.81295,-2.24773 -1.19388,-2.07326 -2.79453,0.24296 -1.68673,2.44076 -19.44929,13.55239 -22.78489,16.14878 -6.70096,5.21595 -6.86658,6.29094 -0.8575,5.56554 2.38704,-0.28815 6.21498,-0.58636 8.50653,-0.66271 z M 189.6534,681.63416 c -31.53391,49.16213 -15.76695,24.58105 0,0 z m 350.3668,0.38793 c 3.64054,-1.1902 11.78386,-8.24164 13.66051,-11.82884 0.54621,-1.04408 1.93056,-2.75265 3.07633,-3.79683 l 2.08323,-1.89852 -2.43043,-0.8543 c -1.33674,-0.46985 -4.42789,-1.89265 -6.86922,-3.16175 -7.37467,0.0885 -9.72314,0.78339 -10.87868,-4.91149 -0.22775,-1.0503 -1.13969,-3.95189 -2.02653,-6.44798 -0.88685,-2.49608 -2.1347,-7.3396 -2.773,-10.76336 -1.25724,-6.74367 -2.34387,-10.68182 -4.87911,-17.68281 -0.89899,-2.48252 -1.85345,-5.5949 -2.12104,-6.91642 -0.70777,-3.49533 -2.91869,-8.36062 -3.7993,-8.36062 -0.41741,0 -2.83677,1.45234 -5.37636,3.22742 -2.53958,1.77507 -6.03712,3.84946 -7.77228,4.60975 -1.73517,0.76029 -4.32758,2.4328 -5.7609,3.7167 -1.43333,1.28389 -2.91344,2.33435 -3.28913,2.33435 -0.37571,0 -1.13809,1.08894 -1.69419,2.41987 -0.97737,2.33919 -0.9354,2.53232 1.25842,5.79233 1.24822,1.85486 2.66859,4.90635 3.15635,6.78108 1.75317,6.73826 3.04487,10.38421 4.32774,12.21535 0.71771,1.02444 1.62167,3.68057 2.0088,5.90249 0.38713,2.22192 1.02896,5.50157 1.42631,7.2881 0.50412,2.26671 0.50079,3.66238 -0.0111,4.61875 -1.86904,3.49234 4.88582,13.55403 11.39424,16.97228 5.1904,2.72603 10.52553,2.95575 17.2893,0.74445 z m -308.81313,-6.39987 c 9.42191,-2.47195 21.29926,-7.57718 26.10487,-11.22064 1.99434,-1.51203 3.99269,-2.75049 4.44079,-2.75214 0.44811,-10e-4 1.70069,-0.74847 2.78353,-1.65962 1.08284,-0.91114 3.07193,-2.11755 4.42022,-2.6809 2.65316,-1.10856 14.74577,-13.13671 22.86638,-22.74449 6.40895,-7.58266 12.38539,-13.72102 15.75408,-16.18091 3.27474,-2.39127 14.90171,-9.03047 31.58935,-18.03805 6.63049,-3.57898 17.76822,-7.93131 21.4506,-8.38232 1.73568,-0.21258 4.07931,-0.86833 5.20808,-1.45722 1.12876,-0.58889 3.14601,-1.25213 4.48275,-1.47387 1.33673,-0.22176 5.52658,-1.01862 9.31074,-1.77085 3.78417,-0.75221 7.72418,-1.18231 8.75558,-0.95579 1.6184,0.35546 2.00026,0.11009 2.78788,-1.79139 0.87308,-2.1078 0.71379,-2.59823 -3.67595,-11.31779 -3.35504,-6.66428 -4.80706,-10.42126 -5.40131,-13.9754 -0.44702,-2.67348 -1.24854,-5.55297 -1.78117,-6.39887 -0.53264,-0.8459 -0.96843,-2.35237 -0.96843,-3.34774 l 0,-1.80973 -6.0761,0.31128 c -6.28427,0.32194 -15.12495,1.85251 -16.84673,2.91662 -0.54096,0.33434 -2.24493,0.83388 -3.7866,1.1101 -4.5231,0.81038 -10.99871,2.66304 -12.872,3.68264 -0.95481,0.5197 -2.82972,1.1513 -4.16646,1.40356 -1.33675,0.25227 -4.30534,1.37024 -6.5969,2.4844 -2.29156,1.11416 -7.76005,3.70661 -12.15219,5.76097 -4.39215,2.05437 -9.39299,4.80041 -11.11298,6.10231 -1.71998,1.3019 -4.42815,3.25086 -6.01815,4.33101 -3.44526,2.34052 -10.14462,9.25222 -13.36992,13.79373 -1.27268,1.79204 -2.70585,3.40863 -3.18483,3.59243 -0.47898,0.18381 -3.14355,3.34467 -5.92127,7.02414 -6.82993,9.04716 -14.7105,16.2958 -19.52808,17.96216 -2.03993,0.70559 -4.82107,2.35126 -6.18033,3.65703 -2.3725,2.27916 -5.12393,1.36559 -14.19449,4.4396 -2.29156,0.77661 -4.62178,0.80644 -5.59209,1.30773 -0.9703,0.50126 -5.46961,1.12966 -9.37774,1.60332 -8.89683,1.07828 -11.75717,-1.92598 -20.52555,-5.2654 -8.25137,-3.14251 -9.35097,-5.55852 -13.88608,-9.70337 -3.51961,-3.21671 -8.79761,3.61796 -9.73414,4.55448 -1.65706,1.65708 -7.21653,18.61299 -6.77357,20.65885 0.21069,0.97309 1.10765,3.95663 1.99325,6.63012 0.8856,2.67348 1.97982,6.23572 2.4316,7.9161 1.46752,5.45836 10.38626,13.26343 15.15592,13.26343 0.62899,0 4.02684,1.46002 7.55079,3.24448 5.69642,2.88457 7.08456,3.29498 12.51344,3.69975 4.94724,0.36884 10.25848,1.82664 12.43625,3.41342 0.0442,0.0322 3.5033,-0.83955 7.68696,-1.93717 z M 457.10908,662.2589 c 0,-0.38192 -0.31248,-0.50128 -0.69441,-0.26524 -0.38193,0.23605 -0.69442,0.74165 -0.69442,1.12358 0,0.38193 0.31249,0.50129 0.69442,0.26524 0.38193,-0.23604 0.69441,-0.74166 0.69441,-1.12358 z m 103.36051,-11.72555 c 2.99728,-2.17121 6.29337,-6.24898 8.41743,-10.41364 2.39803,-4.70183 5.34903,-22.27299 5.73119,-34.1253 0.22224,-6.8925 -0.43993,-8.16995 -4.93271,-9.51602 -4.77468,-1.43053 -6.7884,-1.04795 -9.99272,1.89848 -3.15828,2.90408 -6.07617,4.82115 -10.74653,7.06051 -1.62245,0.77793 -3.40348,2.29153 -3.95785,3.36357 -0.55437,1.07203 -1.34952,5.35434 -1.76703,9.51624 -0.41749,4.16191 -0.92735,8.81705 -1.133,10.34477 -0.23533,1.74807 0.0574,3.93595 0.78972,5.90249 0.64002,1.71866 1.90833,5.27988 2.81848,7.91384 1.78631,5.16954 2.96367,6.85001 6.1996,8.84882 2.94798,1.82096 5.2593,1.60697 8.57342,-0.79376 z M 226.56465,623.30573 c 1.71868,-0.76145 5.89701,-2.29719 9.28521,-3.41275 3.3882,-1.11557 7.68487,-2.68413 9.54815,-3.48569 l 3.38779,-1.4574 0,-8.22325 c 0,-10.8032 0.84186,-9.78518 -18.58656,-22.47611 -5.27254,-3.4441 -5.87282,-3.51217 -9.08607,-1.03028 -6.07513,4.69238 -7.40389,5.51306 -8.92612,5.51306 -0.92799,0 -2.83805,0.93373 -4.24459,2.07493 -1.40654,1.14123 -3.32304,2.66348 -4.25889,3.38279 l -1.70154,1.30784 1.22757,4.08214 c 1.52275,5.06373 2.12836,7.7129 3.8673,16.91694 0.95083,5.03273 1.75931,7.5619 2.61942,8.19444 1.79899,1.32303 12.79195,0.41934 16.86833,-1.38666 z m 249.85085,-4.99157 c 2.55792,-0.53527 5.27572,-0.98045 6.03958,-0.98929 4.64549,-0.0538 17.27017,-3.8763 20.32048,-6.15268 1.24619,-0.93 3.97013,-2.44465 6.05319,-3.36587 2.08306,-0.92124 4.96952,-2.72364 6.41434,-4.00536 1.44482,-1.28171 4.34562,-3.31053 6.4462,-4.50848 5.97397,-3.40691 13.74445,-10.56827 16.57388,-15.27467 1.38733,-2.30765 4.44776,-7.01328 6.80093,-10.45695 2.35317,-3.44367 4.5007,-6.98526 4.77226,-7.87018 0.27157,-0.88493 0.76076,-1.94475 1.08711,-2.35516 0.53103,-0.66782 1.83443,-5.94917 3.41474,-13.83642 0.86009,-4.29269 1.35579,-21.88934 0.70421,-24.9988 -0.58461,-2.79 -5.98739,-18.32771 -7.72672,-22.22115 -1.26996,-2.84275 -3.72369,-6.66801 -8.23418,-12.83675 -2.09048,-2.85903 -5.278,-7.40672 -7.08339,-10.10599 -1.88237,-2.81437 -4.9701,-6.22485 -7.23891,-7.99558 -2.17603,-1.6983 -4.97002,-3.94715 -6.20888,-4.99745 -1.23887,-1.0503 -2.47133,-1.90963 -2.73882,-1.90963 -0.48788,0 -8.62185,-3.36358 -12.52412,-5.17902 -12.57118,-5.84842 -13.24637,-6.08753 -18.70563,-6.6244 -3.07931,-0.30283 -7.595,-1.08117 -10.03486,-1.72966 -5.31772,-1.41338 -6.46742,-1.25734 -16.74342,2.27244 -4.39215,1.50869 -9.86063,2.9628 -12.15219,3.23134 -2.29156,0.26854 -5.41641,0.82389 -6.94411,1.23411 -4.39676,1.18062 -15.16789,5.47705 -16.37333,6.53105 -0.60297,0.5272 -1.48315,0.95856 -1.95597,0.95856 -0.84103,0 -2.23238,0.93506 -9.61071,6.45891 -6.59234,4.93542 -14.16695,16.63006 -16.27976,25.1348 -1.53207,6.16708 -3.19613,10.66371 -5.98928,16.18429 -1.26475,2.49977 -1.85224,4.73058 -1.82873,6.94411 0.019,1.79366 0.1102,7.01102 0.20255,11.59413 0.0923,4.58311 0.14631,8.80165 0.11992,9.37454 -0.32341,7.02093 3.641,21.20977 8.90807,31.88252 2.04603,4.14589 4.65151,8.08242 7.12399,10.76337 2.14401,2.32477 4.57135,5.55341 5.39409,7.17474 2.97934,5.8712 18.41195,19.45398 25.77549,22.68591 2.48252,1.08958 4.85946,2.25286 5.28209,2.58503 3.42951,2.69552 27.92755,4.28958 36.93989,2.40364 z m -30.7642,-22.27485 c -7.71395,-1.59478 -13.12857,-6.09145 -15.28919,-12.69718 -1.313,-4.01425 -1.03741,-5.7194 0.92435,-5.7194 1.62234,0 2.92426,1.45149 5.31674,5.92759 1.02808,1.92343 2.93619,4.22825 4.24025,5.1218 2.13588,1.46354 3.09916,1.61869 9.71316,1.56443 5.11522,-0.042 7.99191,-0.38437 9.48443,-1.12893 3.04975,-1.52143 6.56881,-1.39033 7.46165,0.27796 0.50573,0.94496 0.49497,1.4862 -0.036,1.81439 -0.41624,0.25725 -0.60558,1.04594 -0.42077,1.75264 0.46942,1.79505 -0.63017,2.48116 -5.37704,3.35506 -5.12499,0.94352 -10.59935,0.85179 -16.01752,-0.26836 z m -24.43669,-19.55257 c -0.71934,-1.87459 0.5572,-3.00555 6.19705,-5.49039 7.71599,-3.39955 10.03348,-2.05498 4.47147,2.59428 -4.22737,3.53365 -9.83928,5.05707 -10.66852,2.89611 z m 91.77732,-7.91504 c -6.72369,-2.84293 -9.64916,-5.46884 -12.62773,-11.33462 -2.12718,-4.18913 -2.56216,-5.82406 -2.79776,-10.51564 -0.27189,-5.41418 -0.2116,-5.66838 2.37379,-10.00842 3.93552,-6.60647 8.15225,-10.59108 14.37592,-13.58454 2.96535,-1.42628 6.56304,-2.75036 7.99488,-2.94241 4.4178,-0.59255 10.15579,1.03893 14.94203,4.24845 2.41888,1.62203 5.29693,3.33352 6.39568,3.80331 2.87929,1.23107 6.15731,6.06428 7.77888,11.46942 1.35943,4.5313 1.36589,4.80322 0.19668,8.28012 -2.53574,7.54057 -10.36177,17.34892 -15.55656,19.49699 -9.40288,3.88816 -15.74496,4.18699 -23.07581,1.08734 z m 16.61341,-6.94626 c 3.53731,-1.09487 5.62571,-2.27145 7.97992,-4.49577 1.75379,-1.65705 3.01439,-3.18712 2.80133,-3.40019 -0.21307,-0.21305 -1.45833,-0.0802 -2.76725,0.29515 -3.95044,1.13298 -8.32942,0.77915 -13.93572,-1.12599 -7.39515,-2.51302 -11.16516,-5.97695 -13.42809,-12.3378 -0.93367,-2.62448 -1.89837,-4.96812 -2.14377,-5.20808 -0.59258,-0.57948 -4.43118,4.02905 -4.90083,5.88384 -0.20323,0.8026 0.15244,3.25471 0.79037,5.44914 2.75708,9.48401 5.53236,13.21355 11.61969,15.61506 4.19365,1.65442 6.87585,1.52489 13.98435,-0.67536 z m 7.36099,-30.21147 c 0,-1.08212 -4.79403,-5.17764 -6.0607,-5.17764 -1.21588,0 -1.112,0.53194 0.50542,2.58815 0.76385,0.97109 1.38882,2.16615 1.38882,2.65571 0,0.48955 0.39061,1.02152 0.86801,1.18216 1.38672,0.46657 3.29845,-0.25697 3.29845,-1.24838 z m -85.69802,32.96167 c -1.81544,-2.15752 -2.32676,-4.39868 -1.16708,-5.1154 0.82102,-0.50741 9.24234,3.86441 9.61366,4.99081 0.32007,0.971 -2.544,2.26111 -5.01973,2.26111 -0.96665,0 -2.36012,-0.86878 -3.42685,-2.13652 z m -31.65742,-27.45891 c -0.95481,-0.16038 -2.74047,-0.45375 -3.96812,-0.65194 -2.27187,-0.36679 -10.18703,-6.33169 -12.78573,-9.6354 -1.98928,-2.52896 -4.16707,-11.03846 -4.30614,-16.82578 l -0.11954,-4.97493 5.59103,-5.44123 c 5.14974,-5.01176 16.10931,-12.39668 20.43456,-13.76946 0.84669,-0.26873 4.37055,-0.26453 7.83081,0.009 l 6.29136,0.49794 6.20665,5.98323 c 3.41367,3.29078 6.6069,6.76916 7.09607,7.72973 0.48918,0.96058 1.10877,4.43881 1.37688,7.72942 0.57441,7.05011 -0.23617,10.45052 -4.11911,17.27985 -3.26648,5.7451 -3.38982,5.88537 -7.6019,8.64595 -2.9792,1.95255 -4.385,2.38054 -9.08022,2.76444 -3.0554,0.24982 -6.80522,0.56587 -8.33293,0.70232 -1.5277,0.13646 -3.55885,0.11689 -4.51367,-0.0434 z m 10.7544,-6.51394 c 5.56644,0 5.80752,-0.0699 8.98419,-2.60404 4.99802,-3.98714 11.3382,-15.45065 8.54535,-15.45065 -0.56752,0 -1.39562,0.43831 -1.84022,0.97403 -1.09309,1.31709 -8.08674,4.6279 -11.51388,5.4507 -4.54754,1.09178 -9.45923,0.66875 -11.80499,-1.01675 -6.29647,-4.5242 -10.00083,-8.41519 -11.47911,-12.05741 -0.84084,-2.0717 -1.78274,-3.76673 -2.09311,-3.76673 -0.31037,0 -1.68027,1.05247 -3.0442,2.33884 -2.30102,2.17013 -2.47912,2.63342 -2.46942,6.4233 0.0121,4.71952 0.96806,7.77399 3.70577,11.84026 3.35281,4.97989 10.74149,8.9391 15.29327,8.19487 1.09803,-0.17953 4.5704,-0.32642 7.71635,-0.32642 z m 13.54998,-30.87204 c 0,-1.50395 -5.33061,-6.84697 -6.25876,-6.27334 -0.54992,0.33987 -0.39105,0.94042 0.52305,1.97729 0.72207,0.81903 1.84647,2.3485 2.49866,3.3988 1.26314,2.03411 3.23705,2.58125 3.23705,0.89725 z m 51.73106,28.78599 c -1.675,-1.85087 -0.75132,-3.8737 3.24344,-7.10305 4.12041,-3.33091 5.973,-4.19559 7.93437,-3.70332 2.56182,0.64298 2.21425,3.67525 -0.82879,7.23035 -4.13924,4.83577 -8.00126,6.17026 -10.34902,3.57602 z M 460.3263,518.05286 c -0.66005,-1.06799 -1.29668,-9.1285 -0.85877,-10.87324 0.48891,-1.94797 3.14998,-2.49565 4.4098,-0.90761 1.03917,1.30989 1.49668,7.30574 0.76083,9.97078 -0.5081,1.84018 -1.01368,2.35501 -2.31266,2.35501 -0.91432,0 -1.81396,-0.24522 -1.9992,-0.54494 z m -259.8085,99.85613 c 0.51054,-0.82606 -0.79541,-10.80838 -2.04542,-15.63467 -0.49459,-1.90963 -1.11353,-4.74962 -1.3754,-6.31109 l -0.47615,-2.83903 4.82176,-3.89579 c 2.65197,-2.1427 7.90502,-5.5226 11.67346,-7.5109 3.76843,-1.9883 7.93982,-4.34799 9.26974,-5.24375 1.32991,-0.89577 3.04858,-1.62812 3.81926,-1.62743 0.77067,6.7e-4 3.9011,1.88561 6.95651,4.18872 5.52828,4.16711 14.9652,10.07639 18.54209,11.61082 3.05436,1.31027 4.1701,4.42342 4.40056,12.27843 0.11277,3.8437 0.23092,7.2229 0.26257,7.50935 0.0316,0.28644 0.63333,0.52081 1.33707,0.52081 1.33724,0 12.58842,-11.71481 15.03913,-15.65885 1.85773,-2.98973 8.79241,-11.41768 13.6801,-16.62587 3.64371,-3.88265 9.72336,-9.0052 18.12374,-15.27054 3.59008,-2.67763 12.59542,-7.08209 20.03105,-9.79706 2.53823,-0.92679 6.38943,-2.46983 8.55822,-3.42896 l 3.94325,-1.7439 -3.17652,-3.53306 c -1.74709,-1.94318 -3.17653,-3.94402 -3.17653,-4.4463 0,-0.50227 -0.78761,-1.84925 -1.75023,-2.99327 l -1.75025,-2.08005 1.36399,-6.13256 c 0.75019,-3.37292 1.66186,-8.53902 2.02593,-11.48024 0.83623,-6.75545 2.61016,-9.58215 6.01341,-9.58215 1.28492,0 5.97203,-0.93746 10.41581,-2.08324 11.80632,-3.04413 12.54947,-2.95672 18.1704,2.13718 2.56139,2.32123 6.16118,4.98262 7.99956,5.91419 l 3.3425,1.69378 -0.0138,6.4116 c -0.008,3.52638 -0.32668,8.57674 -0.70917,11.223 -0.74828,5.17729 -0.32839,6.37924 1.97338,5.64869 1.25796,-0.39927 1.43755,-1.28129 1.88747,-9.26993 0.27347,-4.85578 0.73821,-10.23486 1.03275,-11.95353 0.9897,-5.77492 4.01836,-16.43912 5.48549,-19.31492 0.79993,-1.56799 1.45441,-3.5168 1.45441,-4.33068 0,-2.50997 6.1185,-13.48322 10.28236,-18.44096 6.42033,-7.64444 16.03737,-14.63411 27.49087,-19.98037 3.77955,-1.76423 7.15592,-3.20769 7.50301,-3.20769 0.34708,0 1.9442,-0.5982 3.54915,-1.32934 1.60495,-0.73114 5.16733,-1.64104 7.91642,-2.022 2.7491,-0.38097 5.70689,-1.18894 6.57288,-1.79551 0.866,-0.60657 1.98378,-1.10286 2.48395,-1.10286 0.50018,0 2.07119,-0.49844 3.49115,-1.10766 2.28405,-0.97994 2.4216,-1.16981 1.19291,-1.64679 -0.76385,-0.29653 -7.61261,-0.25474 -15.21947,0.0929 -11.06982,0.50587 -13.944,0.4534 -14.39855,-0.26282 -1.00058,-1.57661 -2.61079,-7.76786 -3.09768,-11.91054 -0.25975,-2.21013 -0.9096,-4.45575 -1.44411,-4.99025 -1.09318,-1.09319 -4.81417,-0.83831 -11.55379,0.79141 -2.22692,0.5385 -5.23459,0.97909 -6.6837,0.97909 -4.10039,0 -6.84412,0.74364 -7.33325,1.98755 -0.24597,0.62551 -0.70881,5.66833 -1.02854,11.20626 -0.31974,5.53792 -0.94586,11.00641 -1.39138,12.15218 -0.44553,1.14579 -1.11162,3.9325 -1.48023,6.19269 -0.5824,3.5712 -1.36195,5.02646 -5.95163,11.11058 -2.90479,3.85062 -6.7492,8.50258 -8.54313,10.3377 -1.79393,1.83512 -5.10485,5.81433 -7.35761,8.84269 -2.25277,3.02836 -4.6268,5.68331 -5.27564,5.89988 -0.64883,0.21658 -1.37308,1.00309 -1.60944,1.74781 -0.23637,0.74472 -0.97738,1.64712 -1.64667,2.00532 -1.36865,0.73248 -21.56299,0.49945 -26.62795,-0.30727 -4.68791,-0.74667 -5.01115,-1.37712 -4.18653,-8.16546 0.96667,-7.95786 0.36946,-19.2226 -1.10856,-20.9099 -1.22108,-1.39399 -17.30926,-12.24036 -18.15583,-12.24036 -0.27889,0 -2.60407,1.40618 -5.16704,3.12485 -2.56298,1.71866 -4.90593,3.12484 -5.20655,3.12484 -0.78552,0 -7.67766,5.69552 -7.67766,6.34466 0,0.85291 6.46053,6.68152 13.0701,11.79169 3.31441,2.56251 7.16738,5.71661 8.56216,7.00911 l 2.53596,2.34999 -0.30032,6.2166 c -0.33298,6.89259 -1.52733,15.72372 -2.47739,18.31791 -0.33943,0.92684 -0.89469,4.61875 -1.23391,8.20424 -0.49945,5.2791 -0.94406,6.94818 -2.33754,8.77512 -0.94643,1.24083 -2.18231,3.3299 -2.74639,4.64236 -1.12942,2.62784 -1.82322,3.35858 -15.12204,15.92733 -5.05139,4.77407 -11.60697,11.1019 -14.56797,14.06182 -2.96101,2.95993 -5.64881,5.39991 -5.97291,5.42219 -0.32411,0.0223 -4.65159,0.15378 -9.61663,0.29224 -7.43438,0.20733 -9.99872,0.57364 -14.53223,2.07595 -4.7724,1.58147 -5.78879,1.71156 -7.63852,0.97764 -3.61367,-1.43378 -11.85386,-7.98376 -16.03438,-12.74545 -2.18698,-2.49101 -4.4069,-4.5291 -4.93314,-4.5291 -0.52626,0 -1.58179,-0.62497 -2.34565,-1.38882 -1.10711,-1.10711 -1.38881,-2.3147 -1.38881,-5.95341 0,-5.75589 -0.69097,-5.70914 -5.88464,0.39812 -3.06968,3.60965 -3.76406,4.86738 -3.46696,6.27969 0.28123,1.33681 -0.58895,3.27768 -3.58033,7.98573 -5.30887,8.35549 -9.32819,16.47854 -13.16865,26.6139 -1.86095,4.91121 -2.24748,12.23947 -0.90133,17.08833 1.26059,4.54068 7.18955,9.58916 8.59357,7.3174 z m 336.75177,-6.43373 c 0.61314,-5.51365 1.42429,-6.7106 7.16204,-10.56842 2.5778,-1.7332 7.81176,-5.3324 11.63102,-7.99822 3.81926,-2.66581 7.38169,-4.85206 7.91652,-4.85833 0.53482,-0.006 2.64039,0.80467 4.67903,1.80208 3.92029,1.91803 6.16114,1.81767 5.52926,-0.24763 -0.20507,-0.67025 -1.00429,-8.03932 -1.77608,-16.37571 -0.77177,-8.33639 3.37349,-15.56373 3.12784,-15.96121 1.31001,-19.21856 -4.81226,-27.87742 -10.92873,-46.07739 -0.92809,-2.95468 -2.5234,-2.58968 -0.49346,24.23688 0.60866,8.04355 -0.43002,10.50808 -2.85881,19.27987 -0.68737,2.48251 -1.44276,5.8704 -1.67864,7.52863 -0.53742,3.77803 -2.1746,6.97414 -6.23504,12.17202 -1.75141,2.24204 -3.18438,4.43635 -3.18438,4.87627 0,0.43991 -0.88288,1.88661 -1.96195,3.21489 -1.07908,1.32828 -2.14244,2.90842 -2.36304,3.51143 -1.03079,2.81765 -5.62201,9.05482 -7.32123,9.94587 -1.04214,0.54648 -3.11304,2.46288 -4.60198,4.25868 l -2.7072,3.26507 1.56723,3.5636 c 0.86199,1.95998 1.71495,4.34482 1.8955,5.29964 0.94501,4.99761 1.98854,4.64951 2.6021,-0.86802 z M 260.85865,568.20151 c 3.48098,-0.23626 8.1649,-0.92139 10.40873,-1.52252 4.48837,-1.20247 8.46292,-3.27653 29.86451,-25.34254 6.78507,-6.99571 9.38752,-8.18955 9.54815,-12.15826 0.10095,-2.49418 -0.95178,-7.55436 0.60274,-15.44126 0.81918,-4.15607 1.38883,-9.85787 1.38883,-13.90111 l 0,-6.85493 -6.0761,-4.16479 c -3.34185,-2.29063 -8.26349,-6.04725 -10.93697,-8.34802 -2.67348,-2.30077 -5.41595,-4.1936 -6.09437,-4.20627 -0.67842,-0.0127 -2.61949,1.36293 -4.3135,3.05693 -1.694,1.69401 -4.49593,3.9098 -6.22651,4.92398 -1.73057,1.01419 -4.67893,3.22177 -6.5519,4.90573 -1.87296,1.68395 -3.7401,3.06175 -4.14919,3.06175 -0.40909,0 -3.0193,1.98086 -5.80047,4.4019 -2.78115,2.42106 -6.42522,5.26292 -8.09791,6.31523 -2.95755,1.86066 -17.44387,16.06035 -17.44387,17.09872 0,0.28524 -0.94991,1.12005 -2.11092,1.85515 -1.16101,0.73509 -3.8372,3.50002 -5.94709,6.14428 -3.14457,3.94098 -3.75104,5.12073 -3.36393,6.54377 0.25972,0.95482 0.62012,5.48112 0.80089,10.05844 l 0.32865,8.3224 2.54216,2.83923 c 1.39819,1.56156 3.75581,4.33199 5.23917,6.15649 1.48336,1.82451 4.51365,4.65461 6.734,6.28913 l 4.03696,2.97185 4.64445,-1.28787 c 2.55444,-0.70831 7.49252,-1.48116 10.97349,-1.71741 z m 90.63894,-23.64112 c 2.13416,-0.61568 6.11686,-1.86562 8.85044,-2.77764 2.73359,-0.91201 5.42957,-1.65821 5.99107,-1.65821 1.94288,0 2.3962,-1.77609 2.78215,-10.90015 l 0.38764,-9.16411 -3.66538,-2.06862 c -2.01596,-1.13773 -5.13633,-3.3417 -6.93414,-4.8977 -1.79781,-1.55599 -3.72628,-2.82909 -4.28548,-2.82909 -0.55921,0 -2.80571,0.65681 -4.99225,1.45959 -2.18653,0.80277 -5.85042,1.8196 -8.14198,2.25962 l -4.16646,0.80003 -0.44545,4.16368 c -1.36631,12.77139 -0.17321,18.85862 4.63963,23.67145 3.4028,3.40281 4.30525,3.57834 9.98021,1.94115 z m 9.78278,-51.2031 c 0,-0.48799 0.96958,-1.80505 2.15462,-2.92681 1.18504,-1.12175 5.47668,-6.10041 9.53697,-11.06368 4.06029,-4.96328 9.00344,-10.588 10.98476,-12.4994 l 3.60241,-3.47527 1.09605,-7.02697 c 1.11188,-7.12851 1.36392,-19.3177 0.46494,-22.48549 -0.45225,-1.59359 -0.76918,-1.71615 -3.863,-1.49387 -1.85367,0.1332 -4.96004,0.69667 -6.90302,1.25217 -1.943,0.55551 -5.72047,1.5602 -8.39438,2.23264 -2.67391,0.67244 -5.64252,1.72652 -6.5969,2.34236 -0.95438,0.61586 -3.75254,1.63668 -6.21812,2.2685 -2.46558,0.63182 -5.30617,1.5745 -6.31241,2.09485 -1.00624,0.52035 -3.67622,1.39603 -5.93328,1.94596 -4.35664,1.06147 -18.03367,6.59717 -20.83563,8.4331 -0.91851,0.60182 -1.67002,1.33924 -1.67002,1.6387 0,0.52258 6.56145,5.467 10.6362,8.01499 5.80677,3.63102 9.82339,10.43359 8.08191,13.68758 -0.42828,0.80023 -0.88214,4.99121 -1.00858,9.31328 -0.27285,9.32607 -1.10975,8.60345 10.76132,9.29181 8.00938,0.46445 10.41616,0.10758 10.41616,-1.54445 z m 200.73517,12.68904 c 2.18582,-2.31607 -4.55491,-12.73632 -8.02287,-17.65729 -7.6594,-10.86857 -19.65919,-23.33959 -22.34257,-26.31234 -7.1378,-7.90753 -24.05636,-18.29508 -36.7947,-22.59098 l -4.76181,-1.60588 -5.06623,2.93913 c -2.78642,1.61652 -4.94973,3.28863 -4.80734,3.7158 0.14238,0.42717 2.89092,1.14274 6.10785,1.59016 3.5903,0.49936 7.32382,1.54428 9.66822,2.70592 2.10059,1.04085 5.04222,2.32536 6.53695,2.85447 1.49474,0.52912 3.05716,1.22961 3.47206,1.55666 0.41489,0.32704 2.0043,0.99523 3.532,1.48487 1.5277,0.48964 3.7151,1.58303 4.86088,2.42976 1.14578,0.84673 2.93684,1.74129 3.98013,1.98792 1.04329,0.24662 2.91819,1.32914 4.16646,2.40559 1.24826,1.07645 4.14448,3.46692 6.43604,5.31216 8.4753,7.72302 15.12488,17.26545 21.35021,24.66447 3.42689,4.07297 6.74361,12.31897 11.68472,14.51958 z m -91.6677,-67.01275 c 0.50018,-0.60267 2.4756,-1.88942 4.38981,-2.85942 3.20058,-1.62187 3.37803,-1.83848 2.20733,-2.69451 -0.70017,-0.51198 -3.02793,-1.30782 -5.17278,-1.76852 -2.14487,-0.46071 -4.731,-1.24845 -5.74698,-1.75056 -1.01598,-0.50209 -4.55874,-1.38574 -7.8728,-1.96367 -4.68985,-0.81784 -6.69866,-0.88129 -9.0619,-0.28622 -2.64232,0.66535 -3.42881,0.57455 -6.06106,-0.69969 -1.9161,-0.92758 -4.38047,-1.46425 -6.72367,-1.46425 l -3.69893,0 0.44307,4.23917 c 0.24369,2.33154 0.84081,5.06578 1.32691,6.07609 l 0.88384,1.83693 12.13941,0.0675 c 9.31277,0.0518 12.7862,0.32339 14.91707,1.16629 3.61869,1.43144 6.89225,1.47254 8.03068,0.10083 z"
         id="path10151"
         inkscape:connector-curvature="0"
         sodipodi:nodetypes="csssscssssscccsssssssssssccsccsssssssssssssccccscccccsssssccccsssssccsssssssssscsssssssssssssscsssssssssssccssssssscsssssscccsscsccsssssssssssssssssccsscssssssssssssssscsssssssssscssssssssssssssscsssssssssssssssssssssscsssssscssssssssssssssssssssssssssssssssscsssssssccssssssscsscssssssssssssssssssscssssssssssssssssssccssscssscssssssscssssssssssssssssssssssssssssssssscssssssscsssssscssscsssssscssssssssssssssssssssssssssssscssssssssssscssssssscsssssssssssssssscsssccssssssssscssssssssscsscssssssssssscssscsssssscssssscssssssscsssssssssssssssscssscsssssssssscsccsssssssscsscsscc" />
      <path
         inkscape:connector-curvature="0"
         id="path10153"
         d="m 186.40311,606.94605 -15.32194,24.89815 1.91525,21.06767 22.9829,16.27955 23.94053,7.66098 22.98291,-2.87287 40.22008,-16.27956 46.92344,-36.3896 49.79629,-22.02529 107.25357,42.13533 22.02529,36.38961 18.1948,5.74572 23.94053,-5.74572 5.74572,-15.32195 0,-6.70334 -17.23718,-4.78811 -8.61859,-18.1948 -10.53383,-32.55912 -80.44018,-57.45726 -66.07585,0.95762 -40.22008,13.4067 -26.8134,9.5762 -16.07852,15.98056 -16.25137,17.26708 -11.51138,13.20424 -27.76275,11.51139 -26.06991,2.36999 -23.02278,-17.94422"
         style="fill:#e0ffdd;fill-opacity:1;stroke:#000000;stroke-width:0.67033476px;stroke-linecap:butt;stroke-linejoin:miter;stroke-opacity:1" />
      <path
         inkscape:connector-curvature="0"
         id="path10155"
         d="m 221.35628,540.87019 -23.94053,40.22009 -4.30929,28.72864 10.05502,13.8855 9.57621,1.43643 17.23718,0.47881 24.41934,-8.61859 14.84312,-10.05502 24.41935,-26.33458 22.9829,-17.71599 22.5041,-9.57621 27.2922,-7.18216 10.05502,-0.47881 88.10115,28.24983 27.2922,53.62678 9.0974,32.0803 -8.61859,-43.57176 0,0 26.81339,-14.36431 8.61859,11.97026 3.35167,11.01264 9.57621,-21.06766 16.75837,-13.4067 11.01265,3.35168 2.87286,-23.94053 -4.78811,-44.05057 -17.23717,-49.31749 -25.85578,-25.37696 -58.89369,-22.02529 -41.65652,-0.95762 -42.61414,6.70335 -44.52938,15.80075 -31.6015,14.84313 -35.43198,29.68625 -28.24983,24.41934 z"
         style="fill:#85bc6c;fill-opacity:1;stroke:#000000;stroke-width:0.67033476px;stroke-linecap:butt;stroke-linejoin:miter;stroke-opacity:1" />
      <path
         sodipodi:nodetypes="ccccccccccccccccccccccccccccccccccccccccccccccc"
         inkscape:connector-curvature="0"
         id="path10157"
         d="m 466.02565,451.34129 -20.31422,4.06285 -26.40847,8.80282 -14.89709,12.18852 -10.1571,18.28279 -12.18853,28.4399 2.70856,23.02278 3.3857,23.69991 6.7714,10.83425 -6.09426,18.28278 -18.95993,7.44855 -31.8256,9.47997 -10.83425,14.21994 -18.95993,27.08562 -23.69991,16.25136 -10.49568,29.45561 10.49568,9.47997 30.47132,-12.5271 20.31421,-13.54281 13.54281,6.77141 22.34563,6.7714 25.73134,-1.35428 20.99135,-10.1571 -0.67715,8.12568 22.34564,-3.3857 12.18852,-2.03142 7.44855,19.63707 8.12568,5.41712 1.35429,8.80281 8.80282,2.03145 16.25137,-2.03145 9.47997,-7.44853 8.12568,-9.47997 -4.73998,-10.83424 -0.67714,-16.25137 -6.77141,-27.08561 -5.41712,-25.73134 -10.83425,-8.12569 16.92851,-8.12568 23.69991,-13.54281 18.2828,-22.34563 11.51139,-27.76276 2.03141,-37.24272 -12.18852,-14.89708 -12.86567,-15.57423 -31.8256,-20.31422 z"
         style="fill:#27c977;fill-opacity:1;stroke:#000000;stroke-width:0.67033476px;stroke-linecap:butt;stroke-linejoin:miter;stroke-opacity:1" />
      <path
         inkscape:connector-curvature="0"
         id="path10159"
         d="m 429.79864,490.27686 -14.8971,7.10998 -11.84995,8.12568 -2.70856,7.10997 2.70856,11.51139 3.04713,5.07855 9.47996,5.41713 12.86567,1.01571 16.25137,-7.10997 2.70856,-10.83425 0,-14.55852 -10.15711,-11.17282 z"
         style="fill:#ffffff;fill-opacity:1;stroke:#000000;stroke-width:0.67033476px;stroke-linecap:butt;stroke-linejoin:miter;stroke-opacity:1" />
      <path
         style="fill:#ffffff;fill-opacity:1;stroke:#000000;stroke-width:0.67033476px;stroke-linecap:butt;stroke-linejoin:miter;stroke-opacity:1"
         d="m 523.24401,523.79531 -14.89709,7.10997 -11.84996,8.12569 -2.70856,7.10997 2.70856,11.51139 3.04713,5.07855 9.47997,5.41713 12.86566,1.01571 16.25137,-7.10998 2.70856,-10.83424 0,-14.55852 -10.1571,-11.17282 z"
         id="path10161"
         inkscape:connector-curvature="0" />
      <path
         inkscape:connector-curvature="0"
         id="path10163"
         d="m 194.06408,669.19142 -15.32194,-1.43643 -0.47881,8.13978 4.3093,8.61859 11.49145,2.87286 15.80075,-2.87286 4.3093,-4.30929 z"
         style="fill:#20a260;fill-opacity:1;stroke:#000000;stroke-width:0.67033476px;stroke-linecap:butt;stroke-linejoin:miter;stroke-opacity:1" />
      <path
         inkscape:connector-curvature="0"
         id="path10165"
         d="m 230.45368,579.17504 -23.46171,13.88551 5.26691,30.16506 9.0974,4.7881 23.94053,-7.18215 11.49146,-6.70335 0,-15.32194 -9.09741,-9.0974 -12.92788,-9.57621 z"
         style="fill:#4f8637;fill-opacity:1;stroke:#000000;stroke-width:0.67033476px;stroke-linecap:butt;stroke-linejoin:miter;stroke-opacity:1" />
      <path
         inkscape:connector-curvature="0"
         id="path10167"
         d="m 226.6232,537.99733 0.47881,17.23718 22.50409,20.11004 15.32194,-4.7881 11.49146,-0.95762 22.50409,-18.67362 15.32194,-16.75836 2.39405,-9.57621 2.39406,-27.29221 -9.09741,-9.0974 -16.27955,-12.44907 -26.33459,20.58885 -22.50409,18.19481 -18.1948,20.11004 -0.47881,5.74573"
         style="fill:#4f8637;fill-opacity:1;stroke:#000000;stroke-width:0.67033476px;stroke-linecap:butt;stroke-linejoin:miter;stroke-opacity:1" />
      <path
         inkscape:connector-curvature="0"
         id="path10169"
         d="m 318.55482,458.51478 19.63124,15.80075 -0.47881,22.9829 20.11004,2.87287 6.70335,-1.91525 21.54647,-25.85576 5.26692,-8.6186 1.43643,-31.6015 -41.1777,11.49146 z"
         style="fill:#4f8637;fill-opacity:1;stroke:#000000;stroke-width:0.67033476px;stroke-linecap:butt;stroke-linejoin:miter;stroke-opacity:1" />
      <path
         inkscape:connector-curvature="0"
         id="path10171"
         d="m 337.70725,514.53562 -3.35168,22.50409 8.13978,11.49145 27.2922,-5.74572 3.83049,-21.54648 -13.4067,-9.57621 -10.05502,-1.91524 z"
         style="fill:#4f8637;fill-opacity:1;stroke:#000000;stroke-width:0.67033476px;stroke-linecap:butt;stroke-linejoin:miter;stroke-opacity:1" />
      <path
         inkscape:connector-curvature="0"
         id="path10173"
         d="m 426.2872,429.78615 4.78811,16.75837 35.91078,-0.47882 15.80075,-9.5762 -29.20744,-9.09741 z"
         style="fill:#4f8637;fill-opacity:1;stroke:#000000;stroke-width:0.67033476px;stroke-linecap:butt;stroke-linejoin:miter;stroke-opacity:1" />
      <path
         sodipodi:nodetypes="cccccccccc"
         inkscape:connector-curvature="0"
         id="path10175"
         d="m 567.05751,594.01817 -10.53384,-1.43644 -11.97026,8.13979 -10.05502,10.05502 -2.87286,20.58885 11.01264,20.11004 13.8855,1.43644 11.97027,-21.54648 4.7881,-35.43198 z"
         style="fill:#4f8637;fill-opacity:1;stroke:#000000;stroke-width:0.67033476px;stroke-linecap:butt;stroke-linejoin:miter;stroke-opacity:1" />
      <path
         sodipodi:nodetypes="sscsscssssscssssssssssssscsssscsssssssssssssscsssssssssssssssssccsccsssssssssssssccccsssssssssssssscsssssscssssssssccssssssssssssssssssssssssssssssssssssssssssssscsssssssssssssscssssssssssssssssssssssscsssssssssssscscsscsccsssssssssssssssssccsscssssssssssssssscsssssssssscssssssssssssssscscsssccssssssssssssssssssssscsssssscssssssssssssssssssssssssssssssssscsssssssscssssssscssccsssssssssssssssssscssssssssssssssssssscssscssscsssssssccsssssssssssssssssssssssssssssssscssssssscsssssscssscsssssscssssssssssssssssssssssssssssscssssssssssscssssssscsssssssssssssssscsssccssssssssscssssssssscsscssssssssssscssscsssssscssssscssssssscsssssssssssssssscssscsssssssssscsccsssssssscsscsscc"
         inkscape:connector-curvature="0"
         id="path10177"
         d="m 467.40154,726.93919 c -1.79937,-2.2719 -2.23491,-3.42213 -2.23491,-5.90217 l 0,-3.08035 -4.69235,-2.30943 c -6.16031,-3.03199 -8.06829,-6.00017 -9.51931,-14.80901 -0.56803,-3.44841 -1.2313,-6.4897 -1.47393,-6.75842 -0.24263,-0.26872 -3.29812,0.57964 -6.78998,1.88524 -4.31324,1.61272 -7.10107,2.28288 -8.695,2.09018 -1.2904,-0.15601 -4.3069,0.0978 -6.70335,0.56406 -2.39645,0.46624 -7.97698,1.05197 -12.40119,1.30161 -4.7334,0.2671 -9.56139,0.95058 -11.73086,1.6607 -2.02776,0.66375 -4.62502,1.22124 -5.77168,1.23889 -1.14667,0.0176 -3.40905,0.62992 -5.02752,1.3606 -4.18774,1.89062 -7.36397,2.27814 -8.93622,1.09024 -0.78343,-0.59189 -2.7946,-0.98308 -5.05425,-0.98308 -2.06418,0 -5.4001,-0.42097 -7.41315,-0.93548 -2.01305,-0.5145 -5.01752,-1.14977 -6.6766,-1.41169 -1.65908,-0.26193 -5.27889,-1.32847 -8.04402,-2.37009 -2.76513,-1.04162 -5.86465,-2.07309 -6.88783,-2.29215 -1.02318,-0.21907 -2.99917,-1.42719 -4.3911,-2.68471 -2.28054,-2.06034 -7.16187,-4.34784 -9.33193,-4.37316 -0.45979,-0.005 -1.96804,1.00492 -3.35167,2.24507 -1.38363,1.24015 -3.54271,2.78028 -4.79795,3.4225 -1.25524,0.64222 -4.12093,2.72441 -6.36818,4.62708 -8.20109,6.94361 -15.3109,9.95898 -28.10741,11.92078 l -8.60378,1.31902 -4.98778,-2.39967 c -8.11572,-3.90443 -9.38723,-7.62956 -5.28838,-15.49327 1.8033,-3.45964 2.34617,-5.30757 2.34617,-7.98619 0,-8.29862 4.37766,-15.53 12.74181,-21.04797 5.06324,-3.3403 6.4223,-4.77435 4.51932,-4.76866 -0.46086,10e-4 -1.8937,0.65776 -3.18409,1.45862 -4.80784,2.98391 -7.78031,4.35976 -10.29375,4.76464 -1.4217,0.22901 -3.72135,1.00873 -5.11033,1.7327 -4.84211,2.52386 -15.49755,5.28016 -19.17492,4.96011 -3.10635,-0.27037 -3.57758,-0.11744 -5.31706,1.72554 -1.71665,1.81879 -2.21664,1.98764 -4.97076,1.67858 -2.28933,-0.2569 -4.20789,0.0931 -7.60219,1.3867 -2.49703,0.95167 -5.24662,1.73031 -6.11019,1.73031 -0.86357,0 -2.33711,0.60331 -3.27452,1.34067 -0.93741,0.73737 -2.01663,1.34067 -2.39826,1.34067 -0.38162,0 -1.7118,0.6006 -2.95594,1.33467 -1.24415,0.73405 -4.00674,1.9349 -6.1391,2.66855 -2.13236,0.73363 -4.82689,1.90693 -5.98784,2.60732 -1.68532,1.01675 -4.04025,1.36684 -11.68234,1.73673 l -9.57151,0.46329 -5.63024,-2.72519 c -7.31899,-3.5426 -11.06162,-7.83351 -12.05182,-13.81738 -0.3712,-2.24321 -0.1558,-3.13442 1.26282,-5.22487 0.9407,-1.3862 1.70098,-2.73319 1.68951,-2.99334 -0.0115,-0.26013 -2.43063,-3.18628 -5.37592,-6.50254 -5.5259,-6.22189 -6.84963,-8.73891 -9.03863,-17.18655 -2.09082,-8.06873 0.42851,-19.91249 6.84324,-32.17114 2.58737,-4.9445 4.46404,-7.40726 9.37436,-12.30201 4.81875,-4.80346 6.30673,-6.74143 6.91741,-9.0093 0.76144,-2.82779 4.95549,-10.85225 11.55597,-22.11003 3.71407,-6.33472 12.5871,-17.90188 19.62934,-25.58944 2.58079,-2.81727 7.4072,-8.24149 10.72536,-12.05383 9.78067,-11.2373 22.33014,-23.9114 29.16021,-29.4498 3.50286,-2.84041 6.82101,-5.71316 7.37368,-6.38389 0.55267,-0.67073 2.21146,-2.09456 3.6862,-3.16406 2.9881,-2.16702 9.94569,-8.27336 13.66142,-11.98998 4.11072,-4.11169 14.40162,-12.84911 18.45824,-15.67185 2.11938,-1.47473 4.70172,-3.36005 5.73852,-4.18959 1.30055,-1.21967 2.62596,-1.25395 4.03401,-3.17427 1.17287,-1.49511 2.38836,-2.53296 6.85198,-4.73798 3.42021,-1.68958 6.71796,-3.52391 7.32834,-4.07629 1.42971,-0.8367 3.33278,-0.7798 4.59278,-1.17927 0.92171,-0.28968 9.97123,-3.18599 20.11005,-6.43625 24.10772,-7.72834 26.57357,-8.41741 34.60826,-9.67112 3.73416,-0.58266 8.04147,-1.50115 9.57181,-2.04109 1.53034,-0.53994 5.75143,-1.28637 9.38022,-1.65876 3.62878,-0.37238 7.46603,-1.01033 8.52723,-1.41767 3.54945,-1.36244 16.54095,-2.26495 31.08901,-2.15972 12.37328,0.0895 15.59762,0.33972 22.79138,1.76877 4.60856,0.91549 10.03827,2.27412 12.06603,3.01917 2.02776,0.74506 5.94922,1.99231 8.71435,2.77168 2.76513,0.77937 6.23412,1.88254 7.70885,2.45151 1.47474,0.56897 4.55992,1.74007 6.85596,2.60245 5.36406,2.01471 22.99973,10.27612 24.31461,11.39014 0.55303,0.46855 2.08322,1.2967 3.40043,1.84032 1.3172,0.54362 3.42876,1.88925 4.69234,2.9903 17.02352,14.43843 20.6936,18.75092 30.73886,39.3914 7.17802,15.53497 10.7892,27.66421 14.70752,43.90693 4.1195,21.47945 4.68443,41.03339 4.34487,61.05539 -0.61008,4.1209 -0.8768,8.61542 -0.63647,10.72536 1.00096,8.78798 1.45208,21.62555 0.99356,28.27378 -0.39174,5.67994 -1.02227,8.7434 -2.96634,14.4122 -1.35786,3.95947 -2.84098,7.65151 -3.29582,8.20453 -0.45483,0.55303 -1.46777,2.36421 -2.25096,4.02485 -0.78319,1.66064 -3.88948,5.84784 -6.90286,9.30488 -5.01566,5.75411 -5.96666,6.51164 -11.24807,8.95976 -3.17305,1.47082 -6.91999,3.08394 -8.32654,3.58471 -1.40655,0.50077 -3.33255,1.52025 -4.27999,2.26552 -1.18052,0.92859 -2.72639,1.35501 -4.9122,1.35501 -1.75426,0 -5.53369,0.48477 -8.39873,1.07728 -5.88206,1.21643 -9.9878,0.9158 -15.11999,-1.10711 -1.82908,-0.72096 -3.54998,-1.31084 -3.82423,-1.31084 -0.27424,0 -0.5596,2.65439 -0.63412,5.89863 l -0.1355,5.89864 2.7392,3.64553 c 2.49188,3.31642 2.7034,3.90672 2.34273,6.53812 -0.46224,3.37238 -4.40079,8.35116 -10.6854,13.50747 -6.1616,5.0554 -8.71411,6.05058 -17.35074,6.76509 -4.16285,0.34441 -9.42879,0.63105 -11.70208,0.63708 -4.06036,0.0107 -4.17268,-0.0389 -6.36818,-2.81091 z m 19.24882,-4.52188 c 5.22849,-0.69239 10.95688,-3.89393 15.55226,-8.69206 3.64711,-3.80803 4.36728,-6.00338 2.56164,-7.80906 -1.20882,-1.2088 -1.72372,-1.21397 -1.72372,-0.0174 0,1.04927 -6.11237,5.31354 -8.71435,6.0796 -0.92171,0.27135 -2.31615,0.89624 -3.09874,1.3886 -0.78261,0.49236 -3.34664,1.37613 -5.69785,1.96388 -4.74421,1.18602 -12.03071,3.66351 -12.84368,4.36703 -1.99642,1.72775 3.67077,4.30719 7.89841,3.59503 1.10605,-0.18628 3.83576,-0.58037 6.06603,-0.87572 z m -12.09905,-13.79123 c 1.47474,-0.5313 3.78076,-0.97051 5.12448,-0.97607 2.97483,-0.0121 10.20464,-2.20131 13.03768,-3.94756 1.14076,-0.70314 3.32773,-3.15574 4.85993,-5.45022 2.63994,-3.95336 2.7858,-4.43118 2.7858,-9.12625 0,-5.42461 -3.70383,-21.16258 -6.07375,-25.808 -0.71496,-1.40145 -1.29993,-3.88773 -1.29993,-5.52509 0,-2.69172 -0.22482,-3.10965 -2.34617,-4.36127 -1.84531,-1.08876 -2.34617,-1.80997 -2.34617,-3.37832 0,-1.09673 -0.27888,-2.16641 -0.61974,-2.37707 -1.02421,-0.63299 -9.53742,-0.71761 -13.06469,-0.12985 -7.24392,1.20707 -16.05297,13.39143 -17.03363,23.56029 -1.12306,11.6456 0.31408,26.35365 3.22024,32.95667 1.315,2.98779 2.97761,4.21645 6.71744,4.96427 3.46719,0.69333 4.09974,0.6572 7.03851,-0.40153 z m -185.71754,-1.60015 c 0.20873,-0.33772 -0.8675,-1.6814 -2.3916,-2.98602 -1.5241,-1.30457 -3.49784,-3.44146 -4.3861,-4.74865 -2.01034,-2.95847 -3.36577,-3.02358 -4.12391,-0.19811 -0.87184,3.24924 -0.0414,4.66482 3.93265,6.70338 3.65361,1.87413 6.28372,2.33813 6.96896,1.2294 z m 20.14485,-8.24011 c 6.26881,-1.36208 22.16789,-11.77016 23.94806,-15.67722 0.4039,-0.88645 1.01926,-1.61174 1.36749,-1.61174 1.23854,0 12.96098,-12.48188 16.2514,-17.30426 4.31328,-6.32146 4.02087,-5.68971 5.33224,-11.52013 1.03421,-4.59814 1.04128,-5.27608 0.0828,-7.93802 -2.50909,-6.96815 -6.55285,-11.25178 -13.35321,-14.14526 -6.54065,-2.78297 -9.24133,-1.48913 -20.13968,9.64852 -6.56023,6.70427 -10.04839,11.61319 -10.75393,15.13408 -0.59645,2.97651 -4.75512,6.96113 -12.90207,12.36209 -7.55266,5.00698 -13.39347,10.1457 -15.04998,13.24094 -0.8444,1.57777 -0.90561,6.96922 -0.10248,9.02572 1.19184,3.05179 5.49234,7.04249 9.22333,8.55887 4.09464,1.66418 9.15151,1.73532 16.09606,0.22641 z m 83.12151,-5.33639 c 4.05553,-1.07264 9.03277,-2.21741 11.06053,-2.54395 6.54952,-1.05467 9.59031,-2.57502 16.31085,-8.15516 1.16785,-0.96968 3.63161,-2.44801 5.47503,-3.28518 3.70924,-1.6845 18.31059,-15.83623 21.59265,-20.92774 1.00987,-1.56664 3.65345,-5.25261 5.87461,-8.19107 2.22116,-2.93845 5.69755,-8.66981 7.72531,-12.73636 2.77074,-5.55653 4.15558,-7.61613 5.57325,-8.28881 1.03752,-0.49231 2.05162,-1.32569 2.25358,-1.85196 0.88517,-2.30673 -0.87941,-2.7323 -13.25593,-3.19694 l -12.14234,-0.45585 -6.2563,-2.66281 c -3.44096,-1.46455 -8.14936,-3.77231 -10.46312,-5.12837 -5.1773,-3.03433 -14.6693,-12.08708 -20.49263,-19.5443 -4.30406,-5.51169 -9.18248,-9.81905 -10.32272,-9.11435 -0.32263,0.1994 -0.58659,1.56631 -0.58659,3.03761 0,1.47128 -0.4297,3.50599 -0.95487,4.52156 -1.15524,2.234 -2.39685,14.70056 -2.37979,23.89481 0.01,5.30212 0.29886,7.3339 1.38273,9.71986 0.75366,1.65907 1.63371,4.82641 1.95566,7.03851 0.32194,2.21211 0.79864,4.8987 1.05932,5.97022 0.3617,1.48672 0.18219,2.16157 -0.75783,2.84892 -3.26045,2.3841 -5.90577,-0.58166 -6.53991,-7.33209 -0.21538,-2.29262 -0.87476,-5.32184 -1.4653,-6.73161 -0.8401,-2.00556 -1.05566,-4.77656 -0.99078,-12.73636 0.0776,-9.52297 0.005,-10.15749 -1.14342,-9.92826 -0.67448,0.13468 -2.58377,0.30321 -4.24284,0.3745 -1.65908,0.0713 -4.07229,0.46646 -5.36268,0.87816 -1.2904,0.41172 -4.75938,1.41188 -7.70885,2.2226 -11.95558,3.28623 -20.05245,6.31054 -24.05348,8.98437 -2.25532,1.50719 -3.98799,3.0359 -3.85037,3.39711 0.13762,0.36121 1.94753,1.12996 4.02201,1.70832 5.74441,1.60154 9.36958,3.75734 13.67987,8.13507 4.6528,4.7256 6.25209,8.12457 7.11557,15.12264 0.76625,6.21001 -0.12715,10.59742 -2.72496,13.38208 -0.95352,1.02212 -2.06589,2.5055 -2.47192,3.29641 -0.95203,1.85448 -5.16052,6.70442 -8.0556,9.28343 -1.24401,1.1082 -2.75226,2.57081 -3.35167,3.25023 -0.59941,0.67943 -2.35058,2.50594 -3.89149,4.05892 -2.93993,2.96294 -2.98273,3.91065 -0.21485,4.75788 0.92171,0.28213 2.95112,1.68022 4.50979,3.10686 1.71628,1.57091 3.49793,2.59389 4.51756,2.59389 0.926,0 3.27053,0.65236 5.21007,1.44968 7.3759,3.03215 22.42489,2.93471 34.36185,-0.22247 z m 41.56076,-1.51616 c 2.60946,-0.0869 5.01319,-0.64827 6.84423,-1.59835 1.55222,-0.80541 3.26356,-1.46437 3.80299,-1.46437 0.53943,0 1.93977,-0.80695 3.11188,-1.7932 1.86165,-1.56648 2.08242,-2.09316 1.74611,-4.16558 -0.21174,-1.3048 0.0587,-4.08455 0.60096,-6.17723 0.54227,-2.09267 0.91193,-5.27081 0.82149,-7.06254 -0.0904,-1.79171 0.081,-3.93638 0.38105,-4.76592 0.78477,-2.1698 -1.15247,-2.00138 -2.69764,0.23453 -1.62825,2.35614 -18.77495,19.55344 -21.9949,22.05982 -6.46863,5.0351 -6.62851,6.07282 -0.82777,5.37258 2.30428,-0.27817 5.9995,-0.56605 8.2116,-0.63974 z M 202.1736,683.89222 c 6.45654,-1.54363 6.73403,-2.22255 1.73005,-4.23273 -1.9356,-0.77756 -5.52668,-1.52425 -7.98019,-1.65931 -3.60612,-0.19851 -5.13028,-0.66166 -7.95403,-2.417 -3.56516,-2.21622 -5.54088,-2.33281 -6.29356,-0.37137 -0.21899,0.57068 -0.17144,1.4267 0.10566,1.90226 1.79222,3.07584 10.57466,7.71055 14.58085,7.69468 1.10605,-0.005 3.7211,-0.41682 5.81122,-0.91653 z m 331.96899,-5.51755 c 3.51432,-1.14894 11.3753,-7.95589 13.18688,-11.41872 0.52727,-1.00788 1.86362,-2.65721 2.96967,-3.66518 l 2.01101,-1.8327 -2.34618,-0.82468 c -1.29039,-0.45357 -4.27436,-1.82703 -6.63105,-3.05213 -7.11898,0.0854 -9.38602,0.75622 -10.5015,-4.74121 -0.21986,-1.01388 -1.10018,-3.81487 -1.95627,-6.22441 -0.8561,-2.40955 -2.06069,-7.08513 -2.67686,-10.39019 -1.21365,-6.50986 -2.2626,-10.31147 -4.70994,-17.06972 -0.86781,-2.39645 -1.78919,-5.40092 -2.0475,-6.67662 -0.68323,-3.37414 -2.8175,-8.07075 -3.66758,-8.07075 -0.40294,0 -2.73842,1.40199 -5.18995,3.11552 -2.45153,1.71354 -5.8278,3.716 -7.5028,4.44993 -1.67502,0.73393 -4.17754,2.34846 -5.56117,3.58783 -1.38363,1.23938 -2.81242,2.25342 -3.17509,2.25342 -0.36268,0 -1.09863,1.05119 -1.63544,2.33597 -0.94349,2.25808 -0.90298,2.44453 1.21478,5.59151 1.20495,1.79054 2.57607,4.73623 3.04692,6.54597 1.69238,6.50464 2.9393,10.02417 4.17769,11.79182 0.69282,0.98893 1.56545,3.55296 1.93915,5.69785 0.37371,2.14488 0.99329,5.31082 1.37685,7.03541 0.48665,2.18812 0.48344,3.5354 -0.0106,4.45862 -1.80424,3.37125 4.71642,13.08409 10.99918,16.38383 5.01044,2.63151 10.1606,2.85326 16.68985,0.71863 z m -298.10618,-6.17798 c 9.09524,-2.38624 20.56079,-7.31447 25.19979,-10.83161 1.92518,-1.45961 3.85424,-2.65513 4.28681,-2.65672 0.43257,-10e-4 1.64173,-0.72252 2.68702,-1.60208 1.0453,-0.87955 2.96543,-2.04413 4.26697,-2.58794 2.56118,-1.07013 14.23451,-12.68124 22.07358,-21.95591 6.18674,-7.31975 11.95597,-13.24529 15.20786,-15.61989 3.1612,-2.30837 14.38505,-8.71738 30.49411,-17.41266 6.4006,-3.45488 17.15217,-7.65631 20.70687,-8.09169 1.6755,-0.20522 3.93788,-0.83823 5.02751,-1.4067 1.08963,-0.56847 3.03693,-1.20871 4.32732,-1.42277 1.2904,-0.21406 5.33497,-0.9833 8.98794,-1.70944 3.65297,-0.72614 7.45637,-1.14133 8.452,-0.92266 1.56229,0.34314 1.93091,0.10628 2.69122,-1.72928 0.84281,-2.03472 0.68905,-2.50815 -3.54849,-10.92539 -3.23872,-6.43322 -4.6404,-10.05994 -5.21405,-13.49085 -0.43151,-2.58079 -1.20524,-5.36044 -1.71941,-6.17701 -0.51417,-0.81657 -0.93485,-2.27082 -0.93485,-3.23167 l 0,-1.74699 -5.86543,0.30049 c -6.06639,0.31078 -14.60055,1.78827 -16.26264,2.8155 -0.5222,0.32274 -2.16709,0.80496 -3.65531,1.0716 -4.36628,0.78229 -10.61737,2.57072 -12.42571,3.55497 -0.92171,0.50168 -2.73161,1.11138 -4.02201,1.3549 -1.29039,0.24351 -4.15607,1.32273 -6.36818,2.39826 -2.2121,1.07553 -7.49099,3.57809 -11.73085,5.56122 -4.23987,1.98314 -9.06732,4.63397 -10.72767,5.89074 -1.66035,1.25676 -4.27463,3.13814 -5.8095,4.18085 -3.32581,2.25936 -9.79289,8.93144 -12.90637,13.31548 -1.22855,1.72991 -2.61203,3.29045 -3.0744,3.46788 -0.46237,0.17743 -3.03456,3.2287 -5.71598,6.7806 -6.59313,8.73348 -14.20046,15.7308 -18.85101,17.33938 -1.9692,0.68114 -4.65393,2.26974 -5.96605,3.53025 -2.29025,2.20014 -4.94628,3.44265 -13.70236,6.41008 -2.2121,0.74968 -4.78837,1.75897 -5.72503,2.24287 -0.93666,0.48389 -4.78972,1.25391 -8.56235,1.71115 -8.58836,1.04089 -15.92518,0.10178 -24.38955,-3.12184 -7.96528,-3.03356 -9.19017,-3.73165 -13.56805,-7.73279 -3.39758,-3.10519 -3.91694,-3.37095 -4.821,-2.46689 -1.59961,1.59962 -6.96632,17.96765 -6.53872,19.94258 0.20339,0.93934 1.06925,3.81945 1.92414,6.40024 0.8549,2.58079 1.91118,6.01952 2.34729,7.64164 1.41664,5.26911 10.02616,12.80357 14.63045,12.80357 0.60718,0 3.88723,1.4094 7.28899,3.13199 5.49892,2.78455 6.83893,3.18075 12.07958,3.57147 4.77572,0.35606 9.90281,1.76331 12.00508,3.29508 0.0426,0.031 3.38183,-0.81044 7.42044,-1.87001 z m 62.80942,-11.59585 c 1.51751,-0.43229 3.287,-1.23317 3.93219,-1.77973 1.17264,-0.99337 1.61944,-2.8316 0.67034,-2.75795 -1.28774,0.0999 -7.83696,3.74233 -8.06561,4.48574 -0.31779,1.03326 0.001,1.03804 3.46308,0.052 z M 454.1061,659.2967 c 0,-0.36869 -0.30165,-0.48391 -0.67033,-0.25605 -0.36869,0.22786 -0.67034,0.71594 -0.67034,1.08462 0,0.36868 0.30165,0.48391 0.67034,0.25605 0.36868,-0.22786 0.67033,-0.71594 0.67033,-1.08462 z m 99.77687,-11.31902 c 2.89336,-2.09593 6.07517,-6.03231 8.12559,-10.05258 2.31488,-4.53881 5.16357,-21.50076 5.53248,-32.94213 0.21453,-6.65353 -0.42469,-7.88669 -4.76169,-9.18609 -4.60914,-1.38093 -6.55304,-1.01161 -9.64626,1.83266 -3.04877,2.80339 -5.8655,4.65399 -10.37393,6.8157 -1.56619,0.75096 -3.28548,2.2121 -3.82063,3.24696 -0.53515,1.03486 -1.30274,5.1687 -1.70576,9.1863 -0.40302,4.01761 -0.8952,8.51136 -1.09373,9.98611 -0.22716,1.68746 0.0554,3.79947 0.76236,5.69784 0.61782,1.65907 1.84216,5.09682 2.72075,7.63945 1.72438,4.99032 2.86092,6.61252 5.98465,8.54203 2.84578,1.75782 5.07696,1.55125 8.27617,-0.76625 z M 231.55495,621.69407 c 1.65908,-0.73504 5.69255,-2.21753 8.96328,-3.29441 3.27072,-1.07689 7.41842,-2.59107 9.2171,-3.36484 l 3.27034,-1.40687 0,-7.93814 c 0,-10.42864 0.81266,-9.44591 -17.94214,-21.69684 -5.08973,-3.32469 -5.66921,-3.39039 -8.77105,-0.99456 -5.8645,4.52969 -7.14719,5.32192 -8.61665,5.32192 -0.8958,0 -2.73965,0.90135 -4.09742,2.003 -1.35777,1.10166 -3.20782,2.57113 -4.11122,3.2655 l -1.64255,1.26249 1.18501,3.9406 c 1.46995,4.88817 2.05456,7.44549 3.73321,16.33041 0.91787,4.85825 1.69831,7.29973 2.5286,7.91034 1.73663,1.27715 12.34844,0.4048 16.28349,-1.3386 z m 241.18819,-4.81849 c 2.46924,-0.51672 5.09281,-0.94646 5.83018,-0.95499 4.48443,-0.0519 16.67139,-3.7419 19.61595,-5.93936 1.20298,-0.89776 3.83248,-2.35989 5.84332,-3.24918 2.01084,-0.88929 4.79721,-2.6292 6.19193,-3.86648 1.39474,-1.23727 4.19495,-3.19575 6.22272,-4.35217 5.76684,-3.28879 13.26791,-10.20186 15.99924,-14.74508 1.33923,-2.22764 4.29354,-6.77011 6.56512,-10.09439 2.27159,-3.32428 4.34466,-6.74307 4.6068,-7.59731 0.26216,-0.85425 0.73439,-1.87732 1.04942,-2.2735 0.51263,-0.64468 1.77084,-5.7429 3.29635,-13.35671 0.83027,-4.14384 1.30878,-21.13039 0.6798,-24.13205 -0.56435,-2.69326 -5.7798,-17.69226 -7.45883,-21.45071 -1.22593,-2.74418 -3.59458,-6.43682 -7.94869,-12.39168 -2.018,-2.7599 -5.095,-7.14992 -6.83779,-9.75561 -1.81711,-2.71679 -4.79778,-6.00902 -6.98793,-7.71836 -2.10059,-1.63941 -4.79771,-3.81029 -5.99362,-4.82418 -1.19591,-1.01388 -2.38564,-1.84342 -2.64386,-1.84342 -0.47096,0 -8.32291,-3.24696 -12.08989,-4.99945 -12.13532,-5.64566 -12.7871,-5.87647 -18.05708,-6.39474 -2.97254,-0.29232 -7.33168,-1.04368 -9.68695,-1.66968 -5.13333,-1.36437 -6.24317,-1.21374 -16.16289,2.19365 -4.23987,1.45638 -9.51876,2.86007 -11.73086,3.1193 -2.21211,0.25924 -5.22861,0.79533 -6.70335,1.19133 -4.24432,1.13969 -14.64199,5.28714 -15.80565,6.30461 -0.58206,0.50892 -1.43172,0.92532 -1.88815,0.92532 -0.81186,0 -2.15498,0.90264 -9.2775,6.23498 -6.36377,4.76429 -13.67575,16.05347 -15.71531,24.26333 -1.47896,5.95327 -3.08532,10.29399 -5.78162,15.62317 -1.22091,2.4131 -1.78802,4.56657 -1.76533,6.70335 0.0184,1.73146 0.10637,6.76793 0.19552,11.19214 0.0892,4.42421 0.14124,8.49649 0.11577,9.04952 -0.3122,6.77749 3.51476,20.4744 8.59921,30.77711 1.97509,4.00215 4.49024,7.80218 6.877,10.39019 2.06967,2.24416 4.41285,5.36086 5.20707,6.92598 2.87604,5.66764 17.77358,18.77948 24.88181,21.89935 2.39645,1.05182 4.69098,2.17475 5.09895,2.49542 3.31061,2.60205 26.95927,4.14085 35.65914,2.3203 z m -29.69756,-21.50256 c -7.4465,-1.53949 -12.67339,-5.88025 -14.7591,-12.25696 -1.26747,-3.87506 -1.00144,-5.52109 0.8923,-5.52109 1.5661,0 2.82288,1.40117 5.13241,5.72207 0.99243,1.85675 2.83439,4.08165 4.09324,4.94423 2.06182,1.41279 2.99169,1.56255 9.37639,1.51018 4.93786,-0.0405 7.71481,-0.37104 9.15559,-1.08979 2.94402,-1.46868 6.34106,-1.34212 7.20294,0.26832 0.48819,0.9122 0.47781,1.43468 -0.0348,1.75149 -0.40181,0.24833 -0.58459,1.00967 -0.40618,1.69187 0.45314,1.73282 -0.60833,2.39514 -5.19061,3.23874 -4.9473,0.9108 -10.23187,0.82227 -15.46217,-0.25906 z m -23.58944,-18.87466 c -0.6944,-1.80958 0.53788,-2.90134 5.98219,-5.30002 7.44846,-3.28169 9.68561,-1.98373 4.31644,2.50433 -4.08081,3.41114 -9.49814,4.88174 -10.29863,2.79569 z m 88.59528,-7.6406 c -6.49057,-2.74437 -9.31462,-5.27923 -12.18991,-10.94164 -2.05342,-4.04389 -2.47333,-5.62214 -2.70076,-10.15104 -0.26246,-5.22648 -0.20426,-5.47187 2.29149,-9.66142 3.79907,-6.37742 7.86961,-10.22388 13.87749,-13.11356 2.86254,-1.37682 6.33549,-2.65499 7.71768,-2.84039 4.26463,-0.572 9.80368,1.00291 14.42398,4.10116 2.335,1.56579 5.11327,3.21793 6.17393,3.67144 2.77946,1.18838 5.94383,5.85402 7.50918,11.07176 1.3123,4.3742 1.31853,4.63668 0.18986,7.99303 -2.44783,7.27914 -10.00252,16.74741 -15.01719,18.82101 -9.07688,3.75335 -15.19907,4.04183 -22.27575,1.04965 z m 16.0374,-6.70543 c 3.41467,-1.05692 5.43066,-2.1927 7.70324,-4.3399 1.69299,-1.59959 2.90988,-3.07662 2.70421,-3.2823 -0.20568,-0.20567 -1.40777,-0.0774 -2.67131,0.28492 -3.81346,1.09369 -8.04062,0.75214 -13.45254,-1.08695 -7.13875,-2.4259 -10.77805,-5.76972 -12.96252,-11.91003 -0.90131,-2.53349 -1.83256,-4.79587 -2.06944,-5.02751 -0.57204,-0.55939 -4.27755,3.88936 -4.73092,5.67984 -0.19618,0.77476 0.14716,3.14186 0.76298,5.2602 2.66149,9.15519 5.34054,12.75543 11.21681,15.07366 4.04824,1.59707 6.63745,1.47203 13.49949,-0.65193 z m 7.10578,-29.164 c 0,-1.0446 -4.62782,-4.99813 -5.85057,-4.99813 -1.17373,0 -1.07344,0.5135 0.48789,2.49842 0.73737,0.93741 1.34067,2.09105 1.34067,2.56363 0,0.47258 0.37707,0.98611 0.83792,1.14117 1.33864,0.4504 3.18409,-0.24805 3.18409,-1.20509 z m -82.72676,31.81885 c -1.75249,-2.08273 -2.24609,-4.24618 -1.12662,-4.93805 0.79255,-0.48982 8.9219,3.73043 9.28034,4.81778 0.30898,0.93733 -2.45579,2.18271 -4.84568,2.18271 -0.93314,0 -2.27829,-0.83866 -3.30804,-2.06244 z M 417.90802,538.3003 c -0.92171,-0.15482 -2.64545,-0.43802 -3.83054,-0.62934 -2.1931,-0.35406 -9.83383,-6.11216 -12.34243,-9.30132 -1.92031,-2.44128 -4.02259,-10.65575 -4.15684,-16.24241 l -0.1154,-4.80245 5.39718,-5.25257 c 4.9712,-4.838 15.55079,-11.96687 19.72607,-13.29206 0.81734,-0.25941 4.21903,-0.25535 7.55931,0.009 l 6.07323,0.48068 5.99147,5.77578 c 3.2953,3.17669 6.37782,6.53447 6.85003,7.46174 0.47222,0.92727 1.07033,4.2849 1.32914,7.46142 0.55449,6.80568 -0.22799,10.0882 -3.9763,16.68074 -3.15322,5.5459 -3.27229,5.68132 -7.33833,8.34618 -2.87591,1.88485 -4.23296,2.29801 -8.76539,2.6686 -2.94948,0.24115 -6.56928,0.54624 -8.04402,0.67797 -1.47474,0.13172 -3.43547,0.11283 -4.35718,-0.042 z m 10.38154,-6.28809 c 5.37344,0 5.60616,-0.0675 8.67269,-2.51376 4.82473,-3.84889 10.94508,-14.91495 8.24908,-14.91495 -0.54785,0 -1.34724,0.42311 -1.77643,0.94025 -1.05519,1.27143 -7.80636,4.46745 -11.11468,5.26172 -4.38987,1.05393 -9.13126,0.64556 -11.39569,-0.9815 -6.07816,-4.36733 -9.65409,-8.12342 -11.08111,-11.63936 -0.81169,-1.99987 -1.72093,-3.63613 -2.02054,-3.63613 -0.29962,0 -1.62201,1.01598 -2.93866,2.25774 -2.22124,2.0949 -2.39317,2.54212 -2.3838,6.2006 0.0117,4.55589 0.9345,7.50445 3.57729,11.42975 3.23656,4.80723 10.36906,8.62917 14.76303,7.91074 1.05996,-0.17331 4.41193,-0.3151 7.44882,-0.3151 z m 13.08018,-29.80167 c 0,-1.4518 -5.14579,-6.60958 -6.04176,-6.05583 -0.53085,0.32808 -0.37749,0.9078 0.50492,1.90873 0.69702,0.79064 1.78244,2.26707 2.41203,3.28095 1.21934,1.96359 3.12481,2.49176 3.12481,0.86615 z m 49.93747,27.78794 c -1.61692,-1.78669 -0.72526,-3.73939 3.131,-6.85677 3.97754,-3.21542 5.7659,-4.05012 7.65926,-3.57492 2.47301,0.62068 2.13749,3.54782 -0.80005,6.97966 -3.99572,4.66811 -7.72384,5.95633 -9.99021,3.45203 z m -34.09543,-9.90802 c -0.63717,-1.03096 -1.25172,-8.81199 -0.82899,-10.49625 0.47195,-1.88042 3.04076,-2.40912 4.2569,-0.87614 1.00314,1.26448 1.44479,7.05244 0.73445,9.62508 -0.49048,1.77639 -0.97853,2.27337 -2.23248,2.27337 -0.88262,0 -1.75107,-0.23673 -1.92988,-0.52606 z m -250.8006,96.394 c 0.49284,-0.79742 -0.76783,-10.43365 -1.9745,-15.0926 -0.47745,-1.84342 -1.07493,-4.58494 -1.32772,-6.09227 l -0.45964,-2.7406 4.65459,-3.76073 c 2.56002,-2.06841 7.63094,-5.33112 11.26872,-7.25048 3.63778,-1.91937 7.66453,-4.19724 8.94834,-5.06195 1.28381,-0.8647 2.94289,-1.57166 3.68684,-1.571 0.74396,6.6e-4 3.76585,1.82023 6.71532,4.04349 5.33661,4.02263 14.44634,9.72703 17.89922,11.20826 2.94846,1.26484 4.02551,4.27005 4.24798,11.85272 0.10886,3.71043 0.22292,6.97248 0.25347,7.24899 0.0306,0.27651 0.61137,0.50275 1.29071,0.50275 1.29087,0 12.15196,-11.30864 14.51771,-15.11594 1.79332,-2.88607 8.48756,-11.0218 13.20579,-16.04942 3.51738,-3.74803 9.38624,-8.69297 17.49536,-14.74109 3.46561,-2.58479 12.15873,-6.83654 19.33656,-9.45739 2.45022,-0.89465 6.16789,-2.38418 8.26148,-3.31007 l 3.80654,-1.68343 -3.06639,-3.41057 c -1.68651,-1.87581 -3.06639,-3.80727 -3.06639,-4.29214 0,-0.48486 -0.7603,-1.78513 -1.68956,-2.88949 l -1.68956,-2.00793 1.3167,-5.91994 c 0.72418,-3.25597 1.60424,-8.24296 1.9557,-11.0822 0.80723,-6.52123 2.51966,-9.24993 5.80491,-9.24993 1.24037,0 5.76498,-0.90496 10.05468,-2.01101 11.39698,-2.93859 12.11436,-2.8542 17.5404,2.06308 2.47258,2.24075 5.94757,4.80987 7.72221,5.70914 l 3.22662,1.63505 -0.0133,6.18931 c -0.007,3.40411 -0.31535,8.27936 -0.68458,10.83388 -0.72234,4.99779 -0.317,6.15806 1.90496,5.45284 1.21434,-0.38542 1.38771,-1.23687 1.82203,-8.94853 0.26399,-4.68741 0.71262,-9.88 0.99694,-11.53908 0.95539,-5.5747 3.87904,-15.86916 5.29529,-18.64525 0.7722,-1.51363 1.404,-3.39487 1.404,-4.18053 0,-2.42294 5.90635,-13.01574 9.92585,-17.80159 6.19773,-7.3794 15.48134,-14.12672 26.53773,-19.28763 3.64852,-1.70306 6.90781,-3.09647 7.24287,-3.09647 0.33505,0 1.8768,-0.57746 3.4261,-1.28325 1.54929,-0.70578 4.98817,-1.58414 7.64195,-1.95189 2.65378,-0.36776 5.50902,-1.14772 6.34499,-1.73326 0.83597,-0.58554 1.91499,-1.06461 2.39782,-1.06461 0.48284,0 1.99938,-0.48117 3.37011,-1.06926 2.20486,-0.94597 2.33764,-1.12926 1.15155,-1.5897 -0.73736,-0.28626 -7.34867,-0.2459 -14.69178,0.0897 -10.68603,0.48833 -13.46055,0.43769 -13.89934,-0.25372 -0.96589,-1.52193 -2.52027,-7.49853 -2.99028,-11.49757 -0.25075,-2.13351 -0.87807,-4.30127 -1.39404,-4.81724 -1.05528,-1.05528 -4.64726,-0.80924 -11.15321,0.76398 -2.14971,0.51982 -5.0531,0.94514 -6.45197,0.94514 -3.95822,0 -6.60682,0.71786 -7.079,1.91863 -0.23744,0.60384 -0.68423,5.47181 -0.99288,10.81773 -0.30865,5.34592 -0.91306,10.6248 -1.34314,11.73085 -0.43007,1.10606 -1.07307,3.79615 -1.4289,5.97798 -0.56221,3.44739 -1.31473,4.85219 -5.74528,10.72536 -2.80408,3.71711 -6.5152,8.20779 -8.24693,9.97928 -1.73173,1.77149 -4.92786,5.61274 -7.10251,8.5361 -2.17466,2.92337 -4.46638,5.48627 -5.09272,5.69533 -0.62634,0.20907 -1.32548,0.96831 -1.55365,1.68721 -0.22817,0.7189 -0.94348,1.59001 -1.58958,1.93579 -1.3212,0.70708 -20.81536,0.48213 -25.70472,-0.29662 -4.52537,-0.72078 -4.83741,-1.32937 -4.04138,-7.88235 0.93316,-7.68195 0.35666,-18.55614 -1.07011,-20.18493 -1.17876,-1.34565 -16.70914,-11.81597 -17.52635,-11.81597 -0.26922,0 -2.51378,1.35743 -4.9879,3.01651 -2.47412,1.65908 -4.73583,3.0165 -5.02603,3.0165 -0.75829,0 -7.41147,5.49806 -7.41147,6.12469 0,0.82333 6.23654,6.44986 12.61696,11.38285 3.19948,2.47367 6.91886,5.51841 8.26528,6.7661 l 2.44804,2.26851 -0.28991,6.00105 c -0.32143,6.65362 -1.47438,15.17856 -2.39149,17.68281 -0.32766,0.89471 -0.86366,4.45861 -1.19113,7.91978 -0.48213,5.09608 -0.91133,6.70729 -2.25649,8.47088 -0.91362,1.19781 -2.10665,3.21445 -2.65117,4.48141 -1.09026,2.53672 -1.76001,3.24213 -14.59775,15.37511 -4.87624,4.60855 -11.20454,10.71698 -14.06287,13.57428 -2.85834,2.8573 -5.45296,5.21268 -5.76583,5.23419 -0.31287,0.0215 -4.49031,0.14845 -9.2832,0.28211 -7.17662,0.20014 -9.65206,0.55376 -14.02838,2.00397 -4.60693,1.52664 -5.58808,1.65222 -7.37368,0.94375 -3.48838,-1.38407 -11.44287,-7.70696 -15.47845,-12.30355 -2.11116,-2.40464 -4.25411,-4.37207 -4.76211,-4.37207 -0.508,0 -1.52694,-0.6033 -2.26431,-1.34067 -1.06873,-1.06873 -1.34067,-2.23445 -1.34067,-5.747 0,-5.55633 -0.667,-5.5112 -5.68061,0.38432 -2.96325,3.4845 -3.63355,4.69862 -3.34675,6.06197 0.27148,1.29046 -0.56853,3.16404 -3.4562,7.70885 -5.1248,8.06579 -9.00477,15.90721 -12.71208,25.69116 -1.79642,4.74094 -2.16955,11.81511 -0.87007,16.49586 1.21689,4.38324 6.94028,9.25669 8.29562,7.0637 z m 325.07615,-6.21067 c 0.59188,-5.32249 1.3749,-6.47794 6.91371,-10.202 2.48843,-1.67311 7.54093,-5.14752 11.22777,-7.7209 3.68684,-2.57339 7.12576,-4.68384 7.64204,-4.6899 0.51627,-0.006 2.54884,0.77678 4.5168,1.73961 3.78437,1.85153 5.94753,1.75464 5.33755,-0.23905 -0.19795,-0.64701 -0.96948,-7.76059 -1.71449,-15.80795 -0.74502,-8.04735 3.25652,-15.02412 3.01939,-15.40781 1.26458,-18.55223 -4.64542,-26.91087 -10.54982,-44.47983 -0.89591,-2.85224 -2.43592,-2.49989 -0.47635,23.39656 0.58755,7.76468 -0.41511,10.14375 -2.75969,18.61141 -0.66354,2.39644 -1.39274,5.66686 -1.62044,7.26761 -0.51878,3.64704 -2.09921,6.73233 -6.01886,11.75 -1.69069,2.16429 -3.07398,4.28253 -3.07398,4.7072 0,0.42466 -0.85227,1.8212 -1.89393,3.10343 -1.04166,1.28222 -2.06816,2.80758 -2.28111,3.38968 -0.99504,2.71996 -5.42708,8.74088 -7.06739,9.60103 -1.00601,0.52754 -3.0051,2.37749 -4.44243,4.11103 l -2.61333,3.15187 1.5129,3.44004 c 0.83209,1.89203 1.65549,4.19418 1.82977,5.11589 0.91224,4.82434 1.9196,4.48831 2.51189,-0.83792 z m -266.8274,-41.7734 c 3.36028,-0.22806 7.88181,-0.88944 10.04785,-1.46973 4.33275,-1.16077 8.1695,-3.16292 28.82906,-24.46388 6.54982,-6.75316 9.06205,-7.90561 9.21711,-11.73671 0.0975,-2.40771 -0.91878,-7.29244 0.58185,-14.9059 0.79076,-4.01197 1.34067,-9.51608 1.34067,-13.41914 l 0,-6.61725 -5.86543,-4.02039 c -3.22599,-2.21122 -7.97699,-5.83759 -10.55777,-8.05859 -2.58079,-2.221 -5.22817,-4.0482 -5.88308,-4.06044 -0.65489,-0.0123 -2.52867,1.31568 -4.16394,2.95095 -1.63527,1.63528 -4.34005,3.77424 -6.01063,4.75326 -1.67056,0.97902 -4.5167,3.11006 -6.32473,4.73563 -1.80803,1.62558 -3.61043,2.9556 -4.00534,2.9556 -0.39491,0 -2.91462,1.91218 -5.59935,4.24929 -2.68474,2.33711 -6.20246,5.08044 -7.81716,6.09627 -2.855,1.79614 -16.83906,15.50351 -16.83906,16.50588 0,0.27535 -0.91698,1.08122 -2.03773,1.79083 -1.12076,0.70961 -3.70416,3.37867 -5.74091,5.93125 -3.03553,3.80434 -3.62098,4.94319 -3.24729,6.3169 0.25072,0.92171 0.59863,5.29107 0.77312,9.7097 l 0.31726,8.03385 2.45401,2.74078 c 1.34972,1.50742 3.6256,4.18179 5.05753,5.94304 1.43193,1.76125 4.35716,4.49323 6.50051,6.07108 l 3.89701,2.86881 4.48341,-1.24321 c 2.46588,-0.68377 7.23275,-1.42982 10.59303,-1.65788 z m 87.49637,-22.82144 c 2.06017,-0.59434 5.90478,-1.80094 8.54359,-2.68134 2.63881,-0.88039 5.24131,-1.60072 5.78335,-1.60072 1.87551,0 2.31312,-1.71451 2.68569,-10.52222 l 0.37419,-8.84639 -3.53829,-1.99689 c -1.94607,-1.09829 -4.95824,-3.22584 -6.69373,-4.72789 -1.73547,-1.50205 -3.59708,-2.731 -4.13689,-2.731 -0.53982,0 -2.70844,0.63404 -4.81916,1.40898 -2.11072,0.77493 -5.64758,1.75651 -7.85969,2.18127 l -4.02201,0.7723 -0.43,4.01932 c -1.31894,12.32859 -0.16721,18.20476 4.47876,22.85073 3.28483,3.28483 4.15599,3.45427 9.63419,1.87385 z m 9.4436,-49.42782 c 0,-0.47108 0.93596,-1.74248 2.07992,-2.82534 1.14395,-1.08286 5.28679,-5.8889 9.20631,-10.68009 3.91951,-4.79119 8.69127,-10.2209 10.6039,-12.06603 l 3.47752,-3.35477 1.05803,-6.78334 c 1.07334,-6.88136 1.31664,-18.64794 0.44883,-21.70589 -0.43657,-1.53834 -0.74251,-1.65666 -3.72906,-1.44207 -1.78941,0.12857 -4.78808,0.67251 -6.6637,1.20875 -1.87562,0.53625 -5.52212,1.5061 -8.10332,2.15523 -2.58121,0.64914 -5.44689,1.66666 -6.36818,2.26116 -0.9213,0.5945 -3.62244,1.57992 -6.00253,2.18984 -2.3801,0.60991 -5.1222,1.5199 -6.09356,2.02221 -0.97135,0.50231 -3.54875,1.34763 -5.72756,1.87849 -4.20559,1.02468 -17.40842,6.36845 -20.11323,8.14071 -0.88667,0.58097 -1.61212,1.29282 -1.61212,1.58189 0,0.50447 6.33395,5.27746 10.26743,7.7371 5.60544,3.50513 9.4828,10.07185 7.8017,13.21301 -0.41343,0.77249 -0.85155,4.81816 -0.97361,8.99039 -0.26338,9.00272 -1.07128,8.30515 10.38821,8.96965 7.73168,0.44834 10.05502,0.10384 10.05502,-1.4909 z m 193.77541,12.24909 c 2.11005,-2.23577 -4.39698,-12.29474 -7.7447,-17.0451 -7.39384,-10.49174 -18.97758,-22.53036 -21.56792,-25.40005 -6.89032,-7.63337 -23.2223,-17.66076 -35.51898,-21.80772 l -4.59671,-1.55021 -4.89058,2.83724 c -2.68982,1.56047 -4.77812,3.17461 -4.64067,3.58696 0.13746,0.41236 2.7907,1.10313 5.89609,1.53503 3.46582,0.48204 7.06989,1.49074 9.33301,2.61211 2.02776,1.00475 4.8674,2.24472 6.31031,2.7555 1.4429,0.51077 2.95116,1.18698 3.35167,1.50268 0.40052,0.3157 1.93481,0.96073 3.40955,1.43339 1.47473,0.47267 3.58629,1.52815 4.69234,2.34552 1.10605,0.81737 2.83501,1.68092 3.84213,1.91899 1.00712,0.23808 2.81702,1.28307 4.02201,2.32219 1.20499,1.03913 4.00079,3.34672 6.21289,5.12798 8.18145,7.45524 14.60048,16.66684 20.60997,23.80931 3.30808,3.93176 6.5098,11.89186 11.27959,14.01618 z m -88.48945,-64.68933 c 0.48284,-0.58178 2.38976,-1.82391 4.2376,-2.76028 3.08962,-1.56564 3.26092,-1.77474 2.13081,-2.6011 -0.67589,-0.49422 -2.92294,-1.26246 -4.99344,-1.7072 -2.0705,-0.44473 -4.56697,-1.20517 -5.54772,-1.68986 -0.98075,-0.48468 -4.40068,-1.3377 -7.59984,-1.89559 -4.52724,-0.78948 -6.46641,-0.85073 -8.74771,-0.27629 -2.55072,0.64228 -3.30994,0.55463 -5.85092,-0.67543 -1.84967,-0.89542 -4.22858,-1.41348 -6.49055,-1.41348 l -3.57069,0 0.42771,4.09218 c 0.23525,2.2507 0.81166,4.89015 1.28091,5.86543 l 0.8532,1.77324 11.71852,0.0652 c 8.98988,0.05 12.34288,0.31217 14.39987,1.12585 3.49322,1.38182 6.6533,1.42149 7.75225,0.0973 z"
         style="fill:#000000" />
      <path
         inkscape:connector-curvature="0"
         id="path10179"
         d="M 229.49606,579.17504 z"
         style="fill:none;stroke:#000000;stroke-width:0.67033476px;stroke-linecap:butt;stroke-linejoin:miter;stroke-opacity:1" />
    </g>
    <g
       id="g4014"
       transform="translate(26,2)">
      <text
         xml:space="preserve"
         style="font-size:113.24332428px;font-style:normal;font-variant:normal;font-weight:bold;font-stretch:normal;line-height:125%;letter-spacing:0px;word-spacing:0px;fill:#ffffff;fill-opacity:1;stroke:none;font-family:Source Code Pro;-inkscape-font-specification:Source Code Pro Bold"
         x="539.70215"
         y="257.41806"
         id="text3990"
         sodipodi:linespacing="125%"><tspan
           sodipodi:role="line"
           id="tspan3992"
           x="539.70215"
           y="257.41806">ts</tspan></text>
      <text
         sodipodi:linespacing="125%"
         id="text3218"
         y="257.41806"
         x="134.40814"
         style="font-size:113.24332428px;font-style:normal;font-variant:normal;font-weight:bold;font-stretch:normal;line-height:125%;letter-spacing:0px;word-spacing:0px;fill:#20a260;fill-opacity:1;stroke:none;font-family:Source Code Pro;-inkscape-font-specification:Source Code Pro Bold"
         xml:space="preserve"><tspan
           y="257.41806"
           x="134.40814"
           id="tspan3220"
           sodipodi:role="line">Congra</tspan></text>
      <text
         sodipodi:linespacing="125%"
         id="text4010"
         y="251.23964"
         x="768.888"
         style="font-size:10px;font-style:normal;font-variant:normal;font-weight:300;font-stretch:normal;line-height:125%;letter-spacing:0px;word-spacing:0px;fill:#000000;fill-opacity:1;stroke:none;font-family:Source Code Pro;-inkscape-font-specification:Source Code Pro Light"
         xml:space="preserve"><tspan
           y="251.23964"
           x="768.888"
           id="tspan4012"
           sodipodi:role="line">-</tspan></text>
    </g>
  </g>
</svg>
