<?xml version="1.0" encoding="UTF-8" standalone="no"?>
<!-- Created with Inkscape (http://www.inkscape.org/) -->

<svg
   xmlns:dc="http://purl.org/dc/elements/1.1/"
   xmlns:cc="http://creativecommons.org/ns#"
   xmlns:rdf="http://www.w3.org/1999/02/22-rdf-syntax-ns#"
   xmlns:svg="http://www.w3.org/2000/svg"
   xmlns="http://www.w3.org/2000/svg"
   xmlns:sodipodi="http://sodipodi.sourceforge.net/DTD/sodipodi-0.dtd"
   xmlns:inkscape="http://www.inkscape.org/namespaces/inkscape"
   width="744.09448819"
   height="1052.3622047"
   id="svg7109"
   version="1.1"
   inkscape:version="0.48.2 r9819"
   sodipodi:docname="New document 17">
  <defs
     id="defs7111" />
  <sodipodi:namedview
     id="base"
     pagecolor="#ffffff"
     bordercolor="#666666"
     borderopacity="1.0"
     inkscape:pageopacity="0.0"
     inkscape:pageshadow="2"
     inkscape:zoom="0.7"
     inkscape:cx="314.65353"
     inkscape:cy="765.44324"
     inkscape:document-units="px"
     inkscape:current-layer="layer1"
     showgrid="false"
     inkscape:window-width="809"
     inkscape:window-height="685"
     inkscape:window-x="54"
     inkscape:window-y="23"
     inkscape:window-maximized="0" />
  <metadata
     id="metadata7114">
    <rdf:RDF>
      <cc:Work
         rdf:about="">
        <dc:format>image/svg+xml</dc:format>
        <dc:type
           rdf:resource="http://purl.org/dc/dcmitype/StillImage" />
        <dc:title></dc:title>
      </cc:Work>
    </rdf:RDF>
  </metadata>
  <g
     inkscape:label="Layer 1"
     inkscape:groupmode="layer"
     id="layer1">
    <path
       style="fill:#000000"
       d="m 422.63277,411.92984 c -0.40119,-0.40118 -4.01934,-0.10204 -8.04034,0.66467 -13.97675,2.66517 -31.88926,4.3313 -36.67677,3.41149 -2.64899,-0.50895 -16.49529,-1.34389 -30.76954,-1.85541 -25.90179,-0.92822 -25.97661,-0.93922 -37.7908,-5.55849 -6.5107,-2.54564 -12.7136,-4.62844 -13.78421,-4.62844 -1.65895,0 -1.81787,1.44991 -1.07551,9.81157 -23.34378,27.33109 -72.01131,65.90046 -105.38779,41.27373 -11.81558,-12.38502 26.15887,-36.53044 16.52181,-33.68564 -22.20963,6.55614 -36.82469,7.7763 -67.12598,1.44568 -1.22254,-2.90757 -8.00662,-3.45737 -13.6641,-5.75908 -26.012189,-4.53941 -44.547785,-31.73025 -56.991017,-55.01987 -1.865298,-3.50828 -2.283738,-7.45689 -2.331344,-21.99982 -0.05425,-16.57293 0.174223,-18.30273 3.517613,-26.63274 4.46411,-11.12227 16.951985,-28.92417 20.66368,-29.4568 2.124967,-0.30495 4.034554,-3.60136 9.167383,-15.82511 6.147555,-14.64032 15.543165,-31.8169 26.308535,-48.09596 2.66816,-4.03472 6.39859,-9.86965 8.28984,-12.96651 5.83337,-9.55203 20.74437,-28.59926 35.14739,-44.89709 19.79164,-22.39534 29.13352,-32.00841 44.29058,-45.5763 5.83395,-5.22229 15.03354,-13.67486 20.44353,-18.783485 5.40999,-5.108619 14.00074,-12.333649 19.09055,-16.055612 5.08982,-3.721954 10.67848,-7.861199 12.41925,-9.198325 6.72883,-5.168598 27.14935,-17.15916 37.41832,-21.971361 10.80204,-5.062009 29.33166,-11.21775 33.76695,-11.21775 1.30602,0 4.48143,-1.086836 7.05644,-2.415199 12.55287,-6.475566 45.17199,-7.733142 84.44039,-3.255459 9.74826,1.111577 19.28608,2.010957 21.19515,1.998627 4.94655,-0.03191 26.0874,7.097952 31.34421,10.571049 15.00748,9.915224 23.89125,15.302694 27.21918,16.506772 6.58199,2.381449 11.18033,5.368611 18.35713,11.925142 3.82968,3.498688 7.35109,6.380619 7.82535,6.404305 0.47427,0.02364 3.98891,4.458252 7.81031,9.854618 3.8214,5.396363 9.13041,12.118238 11.79778,14.937538 9.26071,9.78809 12.30487,13.77731 15.36383,20.13355 1.69154,3.51488 4.17134,7.93535 5.51065,9.82325 1.33931,1.8879 3.63109,6.73039 5.09286,10.76107 2.72582,7.51617 3.51677,11.95352 6.04525,33.9147 0.80169,6.96304 2.03533,15.22375 2.74141,18.35712 2.5757,11.43011 3.6513,18.64627 4.86937,32.66846 0.68374,7.87121 1.49949,14.72604 1.81276,15.23294 0.31328,0.5069 0.10306,12.75569 -0.46705,27.21954 -0.83341,21.14199 -1.42867,26.73107 -3.03604,28.5072 -1.09967,1.21511 -2.80393,4.45982 -3.78726,7.21047 -3.40158,9.51507 -13.84126,29.6472 -17.51383,33.77406 -2.02798,2.27884 -7.48945,8.41612 -12.13663,13.63841 -15.71703,17.66214 -25.80038,27.62854 -29.50542,29.16321 -6.38286,2.64386 -4.08406,3.38608 8.65423,2.79417 9.70307,-0.45086 14.67694,-0.005 23.25128,2.08527 29.39519,13.41278 17.51805,40.11606 -3.98256,48.90132 -13.75054,5.3981 -31.52915,8.42633 -52.27637,8.90405 l -18.76506,0.43215 c -22.82432,-8.16519 -36.99982,-36.46442 -62.32539,-37.47168 z m -161.57524,28.74807 c 4.02997,-3.15226 1.95982,-3.15226 -3.79802,0 -3.3064,1.81017 -3.78838,2.43221 -1.89902,2.45078 1.39261,0.0139 3.95628,-1.08912 5.69704,-2.45078 z m 1.94701,-13.00038 c 6.21397,-3.46971 12.04988,-10.22278 15.66795,-14.08952 2.76301,-2.95292 2.92313,-3.72218 1.67101,-8.02762 -2.14522,-7.37644 -5.80089,-29.21793 -6.34456,-37.90693 -0.4585,-7.32759 -0.72444,-7.90687 -4.1835,-9.11271 -2.03163,-0.70823 -3.69388,-2.04512 -3.69388,-2.97086 0,-2.64134 3.74101,-7.31061 5.85723,-7.31061 3.52705,0 12.8334,7.44741 14.19803,11.362 0.73434,2.10656 2.07695,3.82933 2.98354,3.82838 1.20945,-0.002 1.53141,1.87857 1.2091,7.05966 -0.75385,12.11826 0.39264,15.13506 7.9083,20.80945 11.00743,8.31068 20.78451,10.92301 44.43733,11.87313 11.14087,0.44752 23.95921,1.3625 28.48519,2.03327 19.84038,2.94046 39.57078,0.6335 53.96796,-6.31014 4.3488,-2.09738 8.47413,-3.81343 9.16738,-3.81343 0.69326,0 1.6,-1.06974 2.01497,-2.37721 1.72931,-5.44856 12.91992,-14.18266 17.92269,-13.98837 4.00479,0.15553 9.95475,4.36677 10.39277,7.35577 0.31514,2.15047 -0.47965,3.16337 -3.32493,4.23734 -2.65889,1.00361 -4.70457,3.38 -7.0812,8.22584 -2.98668,6.08972 -3.13799,7.01866 -1.4226,8.73404 1.05574,1.05575 1.92199,2.30612 1.925,2.77862 33.62404,35.89221 92.63059,18.35751 101.1105,12.78464 24.46985,-19.7718 -21.64955,-23.07609 -56.93646,-21.94858 -9.34131,0.29848 -8.1415,-8.806 -17.37197,-12.83494 -3.90641,-5.54106 -4.14329,-6.43765 -3.2881,-12.44579 1.82747,-12.83884 0.96564,-28.7316 -2.06741,-38.12475 -4.17108,-12.91752 -12.01681,-28.72837 -16.28482,-32.81738 l -3.71089,-3.55525 -3.44121,6.79224 c -1.89268,3.73572 -5.54933,10.21045 -8.12591,14.38828 -2.57658,4.17783 -6.17763,10.15972 -8.00234,13.29309 -1.82471,3.13337 -5.37386,7.97586 -7.88698,10.76108 -2.51313,2.78522 -7.23375,8.19741 -10.49025,12.02708 -3.2565,3.82968 -6.63583,7.42019 -7.50962,7.97893 -0.87379,0.55873 -5.24694,4.11938 -9.71811,7.91255 -4.47117,3.79317 -8.69369,6.89667 -9.38338,6.89667 -0.68968,0 -1.44385,0.42729 -1.67596,0.94951 -0.23211,0.52223 -3.09728,3.09879 -6.36708,5.72569 -6.96726,5.5974 -18.55656,8.7656 -21.90355,5.98784 -2.64173,-2.19243 -0.77856,-4.21701 7.47334,-8.12078 6.36438,-3.01084 21.58514,-13.37712 24.17331,-16.46355 0.69631,-0.83035 4.11976,-3.7575 7.60766,-6.50479 3.48792,-2.74729 8.90011,-7.83289 12.02709,-11.30135 3.12699,-3.46845 6.44384,-7.11608 7.37079,-8.10583 2.65626,-2.83625 11.60773,-15.1512 11.60773,-15.9693 0,-0.40609 1.07557,-2.28195 2.39017,-4.16859 6.72855,-9.65645 11.53592,-17.83172 11.53592,-19.6176 0,-2.487 -2.24429,-3.07668 -12.66009,-3.32643 -6.27993,-0.15058 -9.29003,-0.89877 -12.70844,-3.15887 -2.46367,-1.62887 -6.30264,-3.36202 -8.53104,-3.85146 -2.22842,-0.48944 -4.41882,-1.48398 -4.86758,-2.21008 -0.44875,-0.72611 -6.0099,-3.74104 -12.35811,-6.69988 -11.30819,-5.27062 -17.95861,-10.49036 -27.11741,-21.28376 -6.03333,-7.11011 -6.13706,-6.92017 -9.19669,16.83855 -1.29293,10.03974 -0.98676,26.60362 0.79701,43.12011 0.60327,5.58586 0.33871,7.38868 -1.28161,8.73342 -1.73576,1.44055 -2.30038,1.34089 -3.76707,-0.66492 -2.71489,-3.71284 -3.75446,-14.57307 -3.7262,-38.927 l 0.0262,-22.55365 -3.26132,0.79448 c -1.79373,0.43696 -6.32111,2.18295 -10.06085,3.88 -3.73975,1.69705 -7.359,3.08553 -8.04278,3.08553 -0.68378,0 -7.01242,2.88815 -14.06365,6.41811 -16.63482,8.3277 -35.58355,21.92123 -44.44178,31.88187 -11.27779,12.68129 -24.76795,36.27401 -24.76795,43.3162 0,1.80425 -1.93762,9.25579 -4.3058,16.559 -4.14559,12.78447 -4.21624,13.32647 -1.89902,14.56661 1.6488,0.88242 2.40679,2.6593 2.40679,5.64205 0,3.56044 -0.69447,4.71311 -3.81041,6.32442 0.23247,7.60332 -38.8814,36.66804 -36.35021,45.1484 10.14274,11.27677 39.42299,-4.46799 48.17967,-10.49064 3.29218,-1.45624 10.48033,-7.69004 12.91809,-9.05128 z m -86.6752,-20.10673 c 6.54155,-2.58499 11.5177,-5.56225 14.70765,-8.7997 3.06155,-3.10715 5.99689,-4.90068 8.04275,-4.9142 2.64366,-0.0175 3.94965,-1.39958 7.27955,-7.70371 2.23185,-4.22531 4.05789,-8.48121 4.05789,-9.45754 0,-0.97634 1.36076,-4.78299 3.02392,-8.45921 1.66314,-3.67624 3.44821,-8.67804 3.96681,-11.1151 0.51861,-2.43706 2.00636,-6.41656 3.30614,-8.84331 1.29978,-2.42676 2.36322,-5.57031 2.36322,-6.98567 0,-1.41536 1.33953,-4.55716 2.97672,-6.98179 1.63719,-2.42463 3.64466,-6.45189 4.46105,-8.94947 0.81641,-2.49757 2.50577,-5.6374 3.75414,-6.97737 1.24839,-1.33998 4.28886,-5.56325 6.75662,-9.38505 5.79578,-8.97588 11.04255,-14.23581 23.33506,-23.39357 5.49437,-4.09324 11.7558,-8.95405 13.91432,-10.80181 4.80389,-4.11233 28.44888,-16.32278 40.10223,-20.70909 6.9437,-2.6136 29.89934,-7.11562 36.28231,-7.11562 1.04614,0 0.92458,-1.03977 -0.40703,-3.48152 -3.20653,-5.87985 -9.14562,-19.65501 -10.86654,-25.20399 -1.15365,-3.71988 -2.44655,-5.41995 -4.40683,-5.79468 -3.11128,-0.59476 -35.49699,4.1743 -50.0696,7.37316 -27.3745,6.00903 -56.96621,30.9515 -73.46444,61.92227 -1.85462,3.48152 -5.1689,9.34606 -7.36508,13.03231 -2.19619,3.68623 -3.99306,7.00181 -3.99306,7.36794 0,0.87696 -7.4256,11.6503 -10.00651,14.51781 -1.11131,1.23473 -4.01453,5.1496 -6.4516,8.69973 -2.43706,3.55013 -6.28257,8.50568 -8.54556,11.01233 -2.26299,2.50664 -4.11453,4.94431 -4.11453,5.41702 0,1.85415 -8.68851,10.21634 -10.61501,10.21634 -1.28782,0 0.56108,-2.62647 4.99569,-7.09664 3.87208,-3.90316 6.68949,-7.44731 6.2609,-7.87589 -0.42858,-0.42859 -1.17555,-0.2228 -1.65992,0.4573 -1.41648,1.98888 -9.42546,7.49969 -13.44403,9.25055 -2.12203,0.92457 -8.06401,1.54462 -13.9261,1.45322 -5.62364,-0.0877 -12.5036,-0.0804 -15.28883,0.0162 l -5.06403,0.17563 5.06403,1.85362 c 2.91349,1.06645 9.63397,1.87167 15.82512,1.89612 8.26172,0.0326 10.2049,0.35436 8.36645,1.38533 -3.57876,2.00689 -24.58354,0.59491 -29.57902,-1.98836 -2.67873,-1.38523 -4.10761,-1.62178 -4.10761,-0.68001 0,1.73488 -4.44687,-1.02304 -13.289,-8.2417 -6.89624,-5.63007 -10.314737,-9.60523 -9.751872,-11.33988 0.198337,-0.61125 -0.743325,-4.02948 -2.092592,-7.59605 -3.350627,-8.85686 -5.666076,-18.14354 -6.035988,-24.20881 -0.169865,-2.78522 -0.36772,-5.91859 -0.439668,-6.96305 -0.209128,-3.03573 -3.740616,3.99831 -3.813645,7.59605 -0.04549,2.24072 -0.378813,2.66872 -1.141375,1.46555 -0.817425,-1.28973 -1.765005,-0.73345 -3.930136,2.3072 -6.560666,9.21361 -8.011353,24.43077 -4.286954,44.96859 2.251918,12.41796 5.791839,19.90483 13.168993,27.85218 2.585383,2.78522 5.229918,6.07189 5.876742,7.30374 0.646817,1.23182 5.072975,5.34506 9.835905,9.14053 l 8.65987,6.90083 7.23329,-0.75603 c 6.59473,-0.68928 7.41722,-0.49342 9.3169,2.21875 1.14599,1.63612 2.08361,3.94323 2.08361,5.12689 0,3.80399 9.83457,5.97046 23.90561,5.26621 6.62231,-0.33144 12.22811,-1.60649 19.23307,-4.37458 z m 120.17643,-6.13916 c 0,-0.6963 -0.5697,-1.266 -1.26601,-1.266 -0.6963,0 -1.266,0.5697 -1.266,1.266 0,0.69631 0.5697,1.26601 1.266,1.26601 0.69631,0 1.26601,-0.5697 1.26601,-1.26601 z m 219.5242,-20.24492 c 7.08735,-13.02179 11.21342,-30.99782 10.97332,-47.80737 -0.16467,-11.52777 -0.67577,-14.25059 -4.56572,-24.32294 -2.40915,-6.2381 -4.38029,-12.12531 -4.38029,-13.08267 0,-0.95735 -2.28403,-4.93027 -5.07563,-8.82868 -5.0146,-7.0028 -5.11737,-7.06628 -8.54555,-5.27793 -1.90846,0.99557 -4.26109,1.81362 -5.22804,1.81792 -0.96697,0.004 -6.65538,2.35625 -12.64093,5.22658 l -10.88283,5.2188 4.01912,3.35529 c 4.30857,3.59696 10.84778,16.77943 13.65418,27.52564 0.93408,3.57681 2.5213,8.13444 3.52716,10.12807 1.00585,1.99364 3.61749,8.84341 5.80364,15.22174 4.14413,12.091 4.70985,18.78473 2.8479,33.6978 -0.50227,4.02297 -0.67465,7.55306 -0.38307,7.84465 1.28398,1.28396 7.88497,-5.22003 10.87674,-10.7169 z m 29.17571,-24.04677 c 2.54607,-3.07783 10.82995,-12.34234 14.65557,-16.39047 3.54827,-3.75464 13.71128,-22.11555 19.6226,-35.45097 5.57177,-12.56943 5.84731,-13.73511 5.68572,-24.05416 -0.0934,-5.96453 0.20388,-14.83253 0.6606,-19.70666 0.77032,-8.2208 -1.27291,-30.33219 -4.44551,-48.10833 -1.63132,-9.14045 -6.30992,-37.95852 -7.6048,-46.84231 -1.30853,-8.97739 -5.86727,-22.32118 -9.74288,-28.51817 -1.51891,-2.42867 -3.87557,-6.97545 -5.23705,-10.10395 -1.58735,-3.64756 -4.96456,-7.73199 -9.41387,-11.38522 -3.81617,-3.13338 -9.12989,-9.11527 -11.80826,-13.2931 -7.13108,-11.123276 -27.25301,-30.395313 -34.53982,-33.080944 -3.22841,-1.189866 -6.76925,-2.921399 -7.86854,-3.847852 -1.09929,-0.926453 -2.62226,-1.684464 -3.38439,-1.684464 -0.76213,0 -2.99609,-1.346306 -4.96434,-2.991793 -1.96827,-1.64548 -4.86357,-3.393965 -6.43402,-3.885503 -1.57043,-0.491547 -4.56163,-2.329465 -6.6471,-4.084274 -6.39648,-5.382275 -19.5048,-9.487256 -36.07386,-11.296817 -21.37739,-2.334692 -50.24236,-3.742678 -70.08101,-3.418435 -15.8281,0.258692 -17.40576,0.514913 -24.68718,4.009388 -4.27817,2.053166 -11.48158,4.72443 -16.00756,5.936133 -4.52598,1.211702 -12.21499,4.107533 -17.08671,6.435181 -4.87171,2.327649 -9.34139,4.232082 -9.93263,4.232082 -0.59124,0 -2.86403,1.281834 -5.05062,2.848526 -2.18661,1.566683 -5.12307,3.457813 -6.52549,4.202513 -21.47866,11.405467 -38.13597,23.333402 -54.5858,39.087679 -0.76758,0.73514 -7.60403,7.0263 -15.1921,13.98034 -19.24755,17.63934 -32.20572,31.33258 -46.0797,48.69366 -2.43707,3.04959 -5.02734,6.1631 -5.75614,6.91891 -4.26984,4.42795 -30.06469,41.06088 -34.61995,49.166 -1.46751,2.61115 -3.75404,6.66345 -5.08118,9.00511 -1.32714,2.34167 -3.17867,5.61747 -4.11452,7.27955 -0.93586,1.66209 -2.35482,3.87653 -3.15323,4.92098 -3.16462,4.13984 -15.8804,29.41907 -18.27662,36.33428 -2.871161,8.28588 -2.626868,13.20487 1.52314,30.66941 4.68128,19.70022 10.98684,24.4945 34.22416,26.02157 16.59329,1.09045 20.32871,-0.25801 33.54855,-12.11085 4.98042,-4.4654 10.43171,-9.06456 12.114,-10.22035 1.68228,-1.1558 7.8076,-10.55591 13.61182,-20.88914 18.52236,-32.97534 20.7178,-36.31322 30.84875,-46.90134 9.45081,-9.87731 24.53577,-21.27732 38.02324,-28.73497 5.62743,-3.11159 32.18945,-10.87203 37.27592,-10.89066 1.17148,-0.004 3.59588,-0.77278 5.38756,-1.70776 5.04342,-2.63187 20.29788,-6.02842 25.22759,-5.61714 l 4.43104,0.36965 -0.16809,-6.33004 c -0.0924,-3.48152 -0.32009,-12.02708 -0.50589,-18.99013 -0.41767,-15.65226 3.11401,-32.605 9.54753,-45.83012 2.43899,-5.01372 4.93772,-10.42591 5.55275,-12.02708 2.98791,-7.77889 21.13371,-27.781445 31.4665,-34.686282 3.65561,-2.442836 6.64655,-5.041727 6.64655,-5.7753 0,-0.73359 0.84451,-1.009717 1.87672,-0.613624 1.03219,0.396085 4.30798,-0.152782 7.27955,-1.219712 14.04211,-5.041759 55.90418,-10.0387 59.54953,-7.108228 1.34144,1.078384 13.43668,4.228163 23.71283,6.175181 1.74076,0.329822 7.65748,2.847642 13.14826,5.595167 7.70151,3.853726 10.37802,4.667822 11.71058,3.561915 2.09599,-1.739526 3.46945,-0.761407 12.64396,9.004523 3.59775,3.829672 8.85028,8.67216 11.67229,10.76107 2.822,2.08891 5.82035,5.06807 6.663,6.62033 0.84264,1.55226 3.43327,4.11593 5.75691,5.69704 5.48909,3.73499 12.30221,13.68258 16.35402,23.87792 8.27636,20.82528 9.3155,55.54938 2.30765,77.11248 -3.21401,9.88948 -8.47235,22.05969 -10.66648,24.68717 -1.16294,1.39261 -2.43515,3.44787 -2.82716,4.56721 -1.06724,3.04751 -19.11638,17.2543 -27.64231,21.75777 -4.10879,2.17028 -7.47051,4.4526 -7.47051,5.07181 0,0.6192 2.7061,5.15127 6.01355,10.07126 5.69445,8.47079 11.05986,20.77243 14.90586,34.17566 3.1665,11.03527 2.40906,38.96935 -1.31308,48.42514 -1.07764,2.73765 6.41751,-3.52574 11.3401,-9.47646 z m -1.62864,-20.66726 c -0.75705,-0.91218 -3.14829,-10.45472 -5.31387,-21.20565 -2.16558,-10.75092 -4.7943,-22.96534 -5.84159,-27.14316 -1.04729,-4.17783 -2.21792,-8.91697 -2.60138,-10.53141 -0.51688,-2.1761 0.40952,-4.09586 3.5815,-7.42195 7.14562,-7.49279 32.50207,-29.52197 33.98095,-29.52197 0.94574,0 1.1215,2.57668 0.55374,8.1184 -0.60071,5.86327 -0.20995,10.65575 1.40675,17.25283 1.78308,7.27602 2.06535,11.81273 1.38743,22.29859 -0.89863,13.89944 -2.48862,19.42863 -5.58697,19.42863 -1.60672,0 -1.75381,-2.1376 -1.00681,-14.63214 0.70658,-11.81849 0.44021,-16.56567 -1.3852,-24.68717 -1.243,-5.53027 -2.87294,-10.05502 -3.62206,-10.05502 -0.74914,0 -5.81106,4.22396 -11.24871,9.38658 -8.73958,8.29755 -9.80989,9.80308 -9.22526,12.97659 0.91436,4.9634 8.32668,34.31663 9.94753,39.39292 l 1.32596,4.15269 5.17114,-5.17113 c 7.43303,-7.43303 11.5286,-10.10991 13.55338,-8.85853 1.3425,0.82971 0.7197,2.44559 -2.8665,7.43731 -8.66317,12.05851 -16.47458,20.44211 -19.04691,20.44211 -0.98266,0 -2.40607,-0.74633 -3.16312,-1.65852 z M 126.57447,322.98533 c -5.8291,-2.73566 -9.85202,-14.92671 -10.76795,-32.63125 l -0.67058,-12.96188 5.42056,-7.02606 c 2.9813,-3.86433 10.60426,-11.26242 16.93992,-16.44023 6.33564,-5.17779 15.22243,-12.8414 19.7484,-17.03023 4.52598,-4.18883 8.83419,-7.62171 9.57378,-7.62864 2.30302,-0.0215 12.16752,5.15286 14.97274,7.8539 1.46996,1.41538 6.79884,5.65596 11.84194,9.42352 13.7267,10.25483 17.20483,14.90988 13.82046,18.49703 -1.73342,1.83727 -8.43063,12.01872 -8.43063,12.81667 0,0.3023 -1.99396,3.57732 -4.43103,7.27782 -2.43707,3.7005 -4.43103,8.30785 -4.43103,10.23857 0,1.93072 -0.4895,3.5104 -1.08777,3.5104 -0.59828,0 -3.67664,2.27881 -6.84081,5.06403 -3.16417,2.78521 -6.49544,5.06404 -7.4028,5.06404 -0.90735,0 -4.91841,2.29284 -8.91344,5.09519 -9.06363,6.35777 -15.79425,8.87184 -26.68167,9.96633 -6.44041,0.64744 -9.52514,0.38205 -12.66009,-1.08921 z m 21.48126,-8.29545 c 3.55441,-1.05555 9.27731,-3.81336 12.71755,-6.12846 3.44024,-2.31512 7.04465,-4.52576 8.00981,-4.91253 0.96516,-0.38679 4.10486,-2.42345 6.97715,-4.52593 6.99006,-5.11668 25.4621,-33.89736 23.6512,-36.85019 -0.67497,-1.10059 -5.16883,-4.72996 -9.98634,-8.06525 -4.81751,-3.33528 -11.34235,-8.60505 -14.49964,-11.71057 -3.15729,-3.10553 -6.3085,-5.64642 -7.00268,-5.64642 -0.69419,0 -4.66254,3.47546 -8.81857,7.72326 -4.15604,4.24779 -10.6898,10.05297 -14.51948,12.90038 -3.82967,2.84742 -10.52369,8.57751 -14.8756,12.73354 -7.06874,6.7506 -7.91255,8.08435 -7.91255,12.50687 0,4.00614 4.67082,25.66052 6.96964,32.31197 0.76197,2.20469 11.35438,2.01982 19.28951,-0.33667 z m 54.1324,-92.57314 c -2.08892,-1.10205 -6.9314,-5.02321 -10.76107,-8.71367 -3.82968,-3.69048 -8.10246,-6.92069 -9.49507,-7.17825 -2.35913,-0.4363 -2.51357,-1.35827 -2.26188,-13.50276 0.41342,-19.94826 1.97875,-26.47689 7.46321,-31.12731 2.5101,-2.12837 10.11287,-9.28196 16.89507,-15.89684 6.78221,-6.6149 14.98215,-13.34889 18.22209,-14.96442 3.23995,-1.61554 5.89083,-3.68551 5.89083,-4.59995 0,-2.36566 4.6981,-3.1699 23.48443,-4.02013 l 16.5214,-0.74774 3.96839,4.51975 c 2.18263,2.48587 5.52461,7.2485 7.42664,10.58361 1.90203,3.33512 4.55987,7.30054 5.90631,8.81204 2.20236,2.47235 2.30381,3.42089 1.01071,9.45043 -3.2168,14.99938 -17.86878,47.17012 -22.86964,50.21391 -1.74076,1.05952 -5.15899,3.23708 -7.59605,4.83903 -2.43707,1.60194 -9.45556,4.10514 -15.59664,5.56268 -6.1411,1.45751 -14.68665,3.70924 -18.99014,5.00382 -12.30314,3.70105 -15.06874,3.95516 -19.21859,1.7658 z m 13.56273,-6.9527 c 9.45389,-3.80839 16.65856,-5.95859 27.5195,-8.21304 15.98157,-3.31735 17.79798,-4.75995 24.01497,-19.07253 2.96943,-6.83615 6.45257,-14.70818 7.74028,-17.4934 6.87773,-14.87598 8.4868,-22.15515 4.89743,-22.15515 -0.61585,0 -2.81454,-3.00303 -4.88596,-6.67339 -2.07144,-3.67036 -5.74324,-8.58958 -8.15958,-10.93159 -4.29241,-4.16035 -4.52444,-4.22518 -10.09831,-2.82167 -3.13772,0.79009 -7.25754,1.43652 -9.15516,1.43652 -1.89761,0 -7.09874,0.63536 -11.55806,1.41192 -9.25519,1.61173 -11.29539,3.11902 -33.53522,24.77556 -15.13303,14.73615 -15.41282,15.29875 -16.67365,33.5285 l -0.75903,10.97464 4.114,2.54627 c 2.2627,1.40045 5.82311,4.36746 7.91202,6.59339 3.04129,3.24075 10.37251,8.76292 11.66371,8.78559 0.14831,0.002 3.28168,-1.20864 6.96306,-2.69162 z m 90.68918,-13.39069 c -2.11856,-0.3252 -5.55538,-3.06002 -9.30747,-7.40637 -3.27176,-3.78993 -6.76307,-6.89079 -7.75849,-6.89079 -3.46286,0 -3.11531,-3.54268 1.44354,-14.71385 2.52266,-6.18163 6.2735,-15.71134 8.3352,-21.17713 4.32033,-11.45371 6.92513,-16.78839 8.74722,-17.9145 0.7063,-0.43654 3.1316,1.16397 5.38954,3.55664 3.2576,3.45202 5.46466,4.53705 10.68818,5.25448 7.66994,1.05344 10.07359,3.09519 8.06411,6.84995 -0.74462,1.39134 -1.35386,6.65084 -1.35386,11.6878 0,5.03694 -0.64114,12.90782 -1.42474,17.49085 -1.19704,7.00104 -2.09246,8.89146 -5.60268,11.82867 -2.29787,1.92275 -5.40627,5.4834 -6.90757,7.91256 -2.67533,4.32874 -3.41331,4.58075 -10.31298,3.52169 z m 11.6229,-14.98628 5.01125,-5.12013 1.27937,-15.65902 c 0.70366,-8.61247 0.9649,-15.9735 0.58055,-16.35784 -0.67909,-0.6791 -10.89022,-3.75773 -14.29667,-4.31042 -0.93276,-0.15134 -2.57842,1.99995 -3.66357,4.78927 -1.08358,2.78522 -4.45981,10.978 -7.50276,18.20616 -6.18448,14.69053 -6.40841,13.10524 3.29287,23.31083 l 5.76888,6.06876 2.25941,-2.90374 c 1.24268,-1.59705 4.51449,-5.20778 7.27067,-8.02387 z m -23.33259,-73.64922 c -2.50865,-0.64177 -4.98039,-1.96704 -18.16422,-9.73903 -7.78846,-4.591381 -10.17845,-8.466861 -6.17002,-10.00504 1.07106,-0.411008 1.51591,-1.854133 1.15445,-3.745067 -0.46995,-2.458326 0.89685,-4.520909 6.80302,-10.266239 9.99326,-9.721118 16.73583,-12.630555 37.14232,-16.02699 9.40012,-1.56454 18.90878,-3.573951 21.13035,-4.465346 6.47495,-2.59804 7.41788,-0.356469 5.70433,13.560722 -1.11615,9.065269 -2.10942,12.38659 -4.73283,15.826087 -2.17808,2.855595 -4.04651,4.126891 -5.43149,3.69565 -1.34612,-0.419148 -5.09354,1.8995 -10.34031,6.397842 -10.55815,9.052071 -20.33114,15.717431 -22.77126,15.530391 -1.05375,-0.0807 -2.9997,-0.42411 -4.32434,-0.76298 z m 9.61492,-9.53474 c 3.85808,-2.95929 10.53853,-8.371478 14.84543,-12.027072 4.30691,-3.655602 8.37086,-6.646554 9.03102,-6.646554 3.37328,0 6.26431,-5.258456 6.26431,-11.394071 0,-6.878711 -0.0712,-6.924307 -7.98494,-5.119459 -2.91948,0.665822 -10.09679,2.125368 -15.94956,3.243441 -5.85278,1.118072 -13.477,3.469758 -16.94273,5.225974 -5.9886,3.034648 -18.62517,13.659337 -18.62517,15.659822 0,0.516541 1.65082,1.622972 3.66849,2.458716 2.01769,0.835752 6.71774,4.297239 10.44457,7.692173 3.72684,3.39496 7.10408,6.19849 7.50497,6.23011 0.4009,0.0317 3.88552,-2.36378 7.74361,-5.32308 z m 55.9843,-29.420774 c -1.04084,-4.147018 0.10888,-16.203899 2.0838,-21.852574 1.23512,-3.532658 2.03601,-4.114529 5.66333,-4.114529 2.32362,0 5.72762,-0.571382 7.56445,-1.269742 1.83682,-0.698368 10.5619,-1.353423 19.38905,-1.455692 19.0107,-0.220255 33.36456,2.983922 44.21805,9.870692 11.73008,7.442992 7.9791,11.883106 -8.36213,9.898452 -20.47321,-2.486484 -34.68433,-0.867366 -50.23175,5.723069 -17.0281,7.218082 -19.22941,7.564701 -20.3248,3.200324 z m 14.39432,-9.932839 c 3.2843,-1.625729 9.67453,-4.277915 14.20052,-5.893736 4.52597,-1.615821 8.77027,-3.419057 9.43176,-4.007179 1.80146,-1.601651 -19.81089,-1.291407 -24.52535,0.35206 -4.04266,1.409278 -6.42857,5.141157 -6.42857,10.055128 0,3.074664 0.10167,3.067636 7.32164,-0.506273 z m 99.65609,6.753893 c -1.3926,-0.598422 -5.09568,-1.193596 -8.22906,-1.322611 l -5.69703,-0.234573 5.06404,-0.979616 c 3.88336,-0.751221 6.09712,-0.43516 9.49506,1.35564 4.47951,2.360816 4.03639,3.187667 -0.63301,1.18116 z M 183.83101,327.85372 c 0,-0.69631 -0.56971,-0.91392 -1.26601,-0.48358 -0.69631,0.43034 -1.26602,1.35213 -1.26602,2.04844 0,0.6963 0.56971,0.91392 1.26602,0.48358 0.6963,-0.43035 1.26601,-1.35214 1.26601,-2.04844 z m 267.97997,-34.64711 c 4.29835,-1.0136 15.12272,-4.9363 24.05416,-8.71712 8.93142,-3.78082 18.29247,-7.51756 20.80231,-8.30386 2.50982,-0.7863 6.87317,-3.40677 9.69631,-5.82326 2.82313,-2.41651 5.75453,-4.39365 6.51423,-4.39365 0.7597,0 1.38126,-0.47344 1.38126,-1.05208 0,-0.57864 1.53147,-1.86047 3.40325,-2.84851 6.80371,-3.59142 18.93376,-15.43849 27.19216,-26.55783 4.34346,-5.84813 12.00522,-23.5796 10.73684,-24.848 -0.22111,-0.22111 -2.63245,2.40344 -5.35852,5.83233 -7.82582,9.84338 -11.98272,11.60478 -28.05414,11.8874 -11.9133,0.20949 -14.27267,-0.11141 -18.86113,-2.56542 -7.42926,-3.97329 -13.85463,-12.06596 -16.93898,-21.33445 -3.36821,-10.12148 -2.18016,-15.32873 5.70613,-25.00996 10.12961,-12.43516 23.12115,-19.97119 37.41326,-21.70236 6.33778,-0.76768 7.44575,-0.49901 13.24633,3.21222 3.48152,2.22747 7.07448,5.11197 7.98434,6.40999 0.90986,1.29801 2.51017,2.36002 3.55624,2.36002 1.09118,0 1.52514,0.60968 1.018,1.43024 -0.53934,0.87266 -0.19828,1.18971 0.87478,0.81325 0.96731,-0.33936 1.63004,-1.69509 1.47274,-3.01276 -0.1573,-1.31766 -0.65516,-5.52913 -1.10635,-9.3588 -1.19369,-10.13183 -6.09116,-21.36814 -12.85025,-29.48234 -2.26298,-2.71671 -4.11452,-5.39035 -4.11452,-5.94143 0,-0.55109 -2.13639,-1.99278 -4.74753,-3.20375 -2.61115,-1.21098 -9.33862,-6.85895 -14.94995,-12.55108 -6.16509,-6.25388 -12.67792,-11.523519 -16.45811,-13.316569 -17.25117,-8.182655 -31.93918,-13.997472 -35.35943,-13.998404 -2.09687,-5.73e-4 -7.99948,-0.874533 -13.1169,-1.942134 -7.61871,-1.589436 -11.17387,-1.687115 -19.62313,-0.539106 -27.33985,3.71468 -40.98217,8.106048 -52.73002,16.973433 -3.82968,2.890677 -7.95276,5.63452 -9.16241,6.09745 -3.64795,1.39604 -22.00413,40.57449 -25.09574,53.56301 -5.26843,22.13378 -0.49686,52.88801 12.41357,80.00945 1.74657,3.66909 3.69703,6.99334 4.33435,7.38723 0.63733,0.39389 2.0512,2.94652 3.14193,5.67251 1.09073,2.726 2.49098,4.95636 3.11168,4.95636 0.6207,0 1.13662,0.71213 1.14649,1.58252 0.0333,2.93605 13.8121,16.24149 19.36132,18.69618 3.02768,1.33927 7.15537,3.73362 9.17265,5.32079 7.19162,5.65817 17.38573,11.11476 20.76481,11.11476 1.8885,0 3.85278,0.42729 4.36507,0.94951 0.90543,0.92299 12.13047,3.70572 15.94868,3.95375 1.04446,0.0678 5.41585,-0.70595 9.71422,-1.71953 z m -29.60353,-25.97188 c -0.57036,-2.18107 -1.72686,-2.53202 -8.34383,-2.53202 -5.18193,0 -9.44416,-0.8532 -13.0977,-2.62184 -7.33463,-3.55063 -13.21335,-13.32257 -9.42375,-15.66468 1.82656,-1.12887 4.69212,0.45347 6.31595,3.48761 0.82151,1.535 3.40466,4.10035 5.74035,5.70079 3.92044,2.68633 4.86489,2.81399 12.29392,1.66165 4.42598,-0.68653 10.71848,-1.89655 13.98332,-2.68893 4.48008,-1.08731 6.61236,-1.07875 8.69325,0.0349 2.33355,1.24888 2.4909,1.74189 1.02407,3.20873 -0.95323,0.95322 -4.01064,2.53282 -6.79426,3.5102 -3.6869,1.29456 -4.94877,2.38662 -4.64739,4.02202 0.76587,4.15573 -4.68249,5.94046 -5.74393,1.88154 z m -40.39116,-24.60867 c -1.18574,-3.08999 1.02936,-4.70617 7.44063,-5.42883 4.30153,-0.48484 5.79192,-0.17655 6.36489,1.31656 1.03876,2.707 -1.8817,4.77121 -7.89072,5.57719 -4.0294,0.54046 -5.26244,0.23507 -5.9148,-1.46492 z m 46.77606,-19.16281 c -0.49535,-1.29087 -1.71181,-1.75552 -3.4523,-1.31868 -3.48179,0.87387 -5.36702,-0.36579 -6.97063,-4.58363 -1.0056,-2.64492 -0.87118,-3.83936 0.59727,-5.30781 2.56703,-2.56703 7.91296,-0.16106 8.96618,4.03526 0.66603,2.65371 1.29775,2.95847 4.77868,2.30546 5.38065,-1.00942 9.63341,1.85462 7.1669,4.82659 -2.2248,2.6807 -10.06222,2.71098 -11.0861,0.0428 z m -30.40117,-57.44521 c -10.10397,-1.58986 -15.51981,-6.07383 -24.39616,-20.19848 -5.42141,-8.62691 -6.6791,-18.76693 -3.1697,-25.55534 7.29739,-14.11568 18.95468,-22.235058 37.18112,-25.896886 14.5681,-2.926848 25.98864,2.23491 32.40726,14.647176 6.76262,13.07747 7.64027,24.08863 2.74087,34.38748 -3.68717,7.75064 -12.03354,16.66492 -18.88284,20.16768 -5.56857,2.84778 -16.66858,3.89787 -25.88055,2.44837 z m 15.87254,-9.00554 c 6.69409,-1.43563 14.93273,-8.28827 18.77166,-15.61367 1.81388,-3.46123 1.79029,-3.60409 -0.42224,-2.55681 -3.38651,1.60299 -16.55749,1.18465 -23.48645,-0.74598 -8.13426,-2.26647 -14.4386,-8.91027 -16.68965,-17.58829 -0.95831,-3.69438 -1.45954,-7.79862 -1.11385,-9.12056 1.6369,-6.25949 -6.76116,0.83189 -11.28611,9.53007 -3.57983,6.88138 -2.60381,13.94475 3.10993,22.50631 9.4573,14.17101 15.69689,16.89588 31.11671,13.58893 z m 13.54848,-47.3886 c 2.38601,-1.83674 2.33724,-2.00243 -1.67702,-5.69704 -4.21309,-3.87759 -11.88134,-5.303309 -13.59662,-2.52793 -1.52869,2.47348 0.74443,6.31871 3.73532,6.31871 1.60859,0 3.63391,0.85456 4.50074,1.89902 1.99233,2.4006 3.9259,2.40259 7.03758,0.007 z m 20.95511,30.00648 c -1.57263,-2.93848 0.7418,-12.85484 3.22243,-13.80674 4.90313,-1.8815 7.68822,8.7398 3.28361,12.52244 -3.98507,3.42234 -5.23026,3.66814 -6.50604,1.2843 z m 88.83322,75.59877 c 2.60042,-2.14349 5.23771,-4.84959 5.86064,-6.01354 0.99972,-1.868 0.2189,-2.12481 -6.6551,-2.1889 -9.81515,-0.0915 -18.06808,-3.89732 -25.70527,-11.85392 -3.8457,-4.00657 -5.80386,-7.28267 -6.33858,-10.60483 l -0.77374,-4.80724 -3.11395,2.90823 c -8.21692,7.67404 -8.54939,18.10136 -0.88726,27.82711 5.21945,6.62517 10.33069,8.62045 22.09609,8.62561 10.18428,0.005 11.05417,-0.21374 15.51717,-3.89252 z m 0.27193,-46.75189 c -1.87456,-2.07135 -3.61336,-2.56046 -8.05539,-2.26588 -6.29127,0.4172 -8.42981,3.00703 -3.50396,4.24333 2.05178,0.51498 3.65751,2.18976 4.54765,4.74321 l 1.37599,3.94714 4.01313,-4.01312 c 3.96255,-3.96256 3.98301,-4.04644 1.62258,-6.65468 z"
       id="path7182"
       inkscape:connector-curvature="0"
       sodipodi:nodetypes="csssssccscccssssssssssssssssssscsssssssscsssssssccsccsscscssssssscssssssssssssccscssscssssscsscssssssssssssssssssssscsssssssssccccssscsssssssssssssssssssssssssssssssscssssssssssssssssscssssssssscsssssscscssssscsssssssssssssssssssssssssssssssssssssssssscsscssssssssssssssssssscsssssssssssssssssssssscssssssscssscssssssssssssssssssssssssssssssssssscsssssssscsssssssssssscsscsssssscssssssssscsssssscscsssssssssssccsssssssssscsssssssssssssssssscssssssscsssssssssssssssssssssssssssssssssssssssssscccssssssssssscsssssscssssssscssssssssssssssssscssssscssssssssscsscsssssc" />
    <path
       sodipodi:nodetypes="cssssssssssssscsccsssccccsccscsssscsscssscsssssssssssssssssssscsssssssscssssssscssssscssccsscccsccsscscsscssscssscccssscccsscscssssssscsssssssssssscsssssssscssssscsscssssssssssssssssssssscsssssssssssssccccsssscsscssssscsssssssssssssssssssssssssssssssscssssssssssssssssscsssssssssssssssssssscssssssssssssssscscssssscsssssssssssssssssssssssssssssssssssssssssscsscssssssssssssssssssscsssssssssssssssssssssscssssssscssscssssssssssssssssssssssssssssssssssscssssssssssssssssssssscsscsssssscssssssssscsssssscssssssssssssscssssssssssscsssssssssssssssssscsssssssssssssssssssssssssssssssssssssssssssssssssscscsssssssssssccssssscssssssccssssssssssssssssscssssccssssssssscsscssssscss"
       inkscape:connector-curvature="0"
       id="path7184"
       d="m 483.23762,1033.2422 c -9.47372,-2.9933 -18.75944,-8.1064 -19.84118,-10.9253 -1.61465,-4.2077 -1.08182,-12.9105 1.11252,-18.171 1.14238,-2.7386 2.98245,-8.75926 4.08904,-13.37906 2.31291,-9.6563 7.97743,-24.5143 12.61713,-33.09482 1.75597,-3.24744 2.79149,-6.30565 2.30113,-6.79601 -0.49035,-0.49035 -4.91269,-0.12472 -9.82741,0.8124 -17.08328,3.25755 -38.97709,5.294 -44.82869,4.16974 -3.23777,-0.62207 -20.1616,-1.64258 -37.6085,-2.2678 -31.65882,-1.13452 -31.75027,-1.14797 -46.19033,-6.79394 -7.95779,-3.11144 -15.53937,-5.65717 -16.84794,-5.65717 -2.02767,0 -2.22191,1.77217 -1.31455,11.99232 0.5856,6.59578 1.81519,14.53288 2.73244,17.63808 2.499,8.4599 0.34311,22.5102 -3.87355,25.2445 -3.82869,2.4827 -31.34734,7.60196 -33.54924,6.24116 -0.79569,-0.4918 -3.49127,0.1632 -5.99018,1.4554 -10.75889,5.5636 -56.80087,14.3186 -65.95397,12.5413 -1.70213,-0.3306 -3.5928,-0.6543 -4.20149,-0.7194 -0.6087,-0.065 -3.39401,-2.1049 -6.18958,-4.5328 -7.69095,-6.6794 -21.09085,-8.3306 -41.44671,-5.1073 -12.34781,1.9553 -17.02136,1.0397 -17.02136,-3.3347 0,-2.5173 0.41264,-2.82386 1.85687,-1.3796 1.02129,1.0213 3.63252,1.8357 5.80274,1.8098 3.73108,-0.045 3.77839,-0.1441 0.86919,-1.8306 -1.69216,-0.981 -4.43469,-3.04876 -6.09452,-4.59516 -1.65981,-1.5463 -3.55837,-2.8115 -4.21902,-2.8115 -0.66064,0 -1.99147,-1.4767 -2.95738,-3.2816 -1.23433,-2.3063 -1.25052,-2.9689 -0.0545,-2.2297 0.93597,0.5784 1.70178,0.6216 1.70178,0.096 0,-1.548 -9.80559,-13.7289 -12.92419,-16.055 -1.57637,-1.1757 -3.74781,-4.2347 -4.82545,-6.7976 -1.49426,-3.55382 -4.1114,-5.5354 -11.02633,-8.34869 -9.85738,-4.01042 -8.85159,-4.06619 -48.491205,2.68849 -12.764372,2.17508 -27.293153,1.6818 -42.076356,-1.42856 -13.35827,-2.81056 -27.6382786,-9.54992 -27.6828386,-13.06473 -0.01468,-1.15931 -0.59322097,-0.98765 -1.52368597,0.45214 -1.31699503,2.0379 -1.50289803,2.02441 -1.52370103,-0.11049 -0.03101,-3.1822 -5.373577,-14.13992 -6.395727,-13.11777 -0.434483,0.43447 -0.291287,-3.4394 0.318216,-8.60863 0.850192,-7.21056 2.094741,-10.42836 5.345863,-13.8218 9.109067,-9.50781 34.7997206,-18.06319 48.2048976,-16.05295 l 6.945078,1.04147 -2.778602,-5.22597 c -2.279886,-4.28804 -2.79133,-9.11429 -2.849517,-26.88958 -0.06631,-20.25649 0.212946,-22.37077 4.299451,-32.55224 5.45632,-13.59434 20.719798,-35.35296 25.256468,-36.00398 2.59727,-0.37273 4.93129,-4.40181 11.20496,-19.34246 7.51393,-17.89433 18.997849,-38.88864 32.155969,-58.78595 3.2612,-4.93149 7.82076,-12.06332 10.13237,-15.8485 7.12992,-11.67509 25.35509,-34.95584 42.95939,-54.87608 24.1906,-27.37302 35.60884,-39.12273 54.13477,-55.70627 7.13063,-6.38301 18.37495,-16.71428 24.98739,-22.95837 6.61243,-6.24408 17.1126,-15.07497 23.33369,-19.62419 6.2211,-4.54921 13.05192,-9.60846 15.17959,-11.24278 8.22441,-6.31739 33.18367,-20.97302 45.73506,-26.8548 13.20295,-6.18711 35.85103,-13.71105 41.27212,-13.71105 1.59631,0 5.47749,-1.3284 8.62483,-2.95201 15.34293,-7.91485 55.2121,-9.45194 103.20844,-3.97903 11.91495,1.35864 23.57268,2.45792 25.90606,2.44285 6.04599,-0.039 31.88569,8.67557 38.3109,12.92061 18.3431,12.11902 29.20141,18.70393 33.26902,20.17563 8.04493,2.91076 13.66531,6.56186 22.43725,14.57567 4.68088,4.27632 8.98497,7.7988 9.56464,7.82775 0.57969,0.0289 4.87551,5.44916 9.54627,12.04494 4.67075,6.59578 11.15976,14.81169 14.42,18.25761 11.31902,11.96363 15.03979,16.83951 18.77865,24.60851 2.0675,4.29611 5.09847,9.69909 6.73546,12.0066 1.63699,2.30752 4.43816,8.22632 6.22483,13.15287 3.33166,9.18674 4.29841,14.61036 7.38888,41.45271 0.97988,8.51068 2.48771,18.60744 3.35073,22.43725 3.14818,13.97061 4.46285,22.79066 5.95165,39.92947 0.83572,9.6207 1.83278,17.99911 2.21568,18.61868 0.38291,0.61956 0.12596,15.59081 -0.57086,33.26945 -1.01865,25.84109 -1.74621,32.67242 -3.71084,34.84332 -1.34409,1.48519 -3.42715,5.45108 -4.62904,8.8131 -4.15762,11.62993 -16.91767,36.2367 -21.40651,41.28081 -2.47873,2.78535 -9.15409,10.28672 -14.83417,16.66974 -19.21035,21.58779 -31.53487,33.76936 -36.0634,35.64513 -7.80154,3.2315 -4.99181,4.13868 10.57775,3.41522 11.85971,-0.55107 17.93909,-0.006 28.41919,2.54875 23.77932,5.79638 32.92844,11.40773 34.79145,21.33832 1.06722,5.6888 -2.45286,12.875 -6.30668,12.875 -4.39092,0 -10.18716,3.69609 -11.02382,7.02959 -1.4557,5.7999 -11.82488,14.4039 -22.32869,18.5274 -16.80678,6.5979 -38.53693,10.2992 -63.89551,10.8831 l -22.93585,0.5282 -8.87542,12.85066 c -11.04001,15.9847 -19.1584,20.9881 -38.87037,23.9562 -15.85642,2.3875 -20.51574,2.3484 -28.71097,-0.241 z m 32.9329,-15.827 c 7.13788,-1.8087 10.31001,-3.4888 12.22926,-6.4769 1.42531,-2.2191 4.44323,-5.7756 6.70651,-7.9032 2.26327,-2.1277 5.62756,-6.04996 7.47619,-8.71606 l 3.36114,-4.8476 -12.74217,-6.1574 c -7.00821,-3.3866 -15.40706,-8.7764 -18.66413,-11.9772 -3.25707,-3.2009 -6.46151,-5.2119 -7.12096,-4.469 -0.65946,0.743 -3.74543,7.812 -6.85772,15.709 -3.1123,7.8971 -8.07142,19.03826 -11.0203,24.75836 -4.7329,9.1806 -5.0795,10.6123 -2.95596,12.2096 2.94932,2.2185 16.18971,1.2655 29.58814,-2.1296 z M 178.81903,998.97874 c 3.08436,-0.8269 3.33441,-1.6108 2.48665,-7.7958 -0.93266,-6.8046 0.68786,-14.7288 5.13098,-25.0901 1.23128,-2.8713 2.0094,-5.44989 1.72915,-5.73014 -0.28023,-0.28025 -4.0794,0.53695 -8.44258,1.81596 -6.34228,1.85918 -11.68344,2.07208 -26.63621,1.06148 -17.20782,-1.16293 -18.70318,-1.04924 -18.70318,1.4219 0,1.6116 0.83086,2.367 2.07735,1.8886 1.92004,-0.7367 10.25055,8.8486 17.19892,19.7896 1.46528,2.3073 3.9945,4.6172 5.6205,5.1333 1.626,0.5161 2.95636,1.9583 2.95636,3.205 0,3.9398 9.11199,6.30276 16.58206,4.3002 z m 60.78777,-8.033 c 11.49683,-4.1194 11.6043,-4.209 11.47962,-9.5742 -0.12719,-5.4707 -3.16034,-24.78938 -4.67691,-29.78738 -1.37898,-4.54459 -4.90644,-3.05513 -10.23532,4.32185 -2.79294,3.86639 -7.90069,10.65563 -11.35055,15.08713 -9.09566,11.6838 -13.66933,19.6906 -12.10564,21.1924 1.41141,1.3556 6.8582,2.609 12.18853,2.8048 1.70214,0.062 8.31726,-1.7576 14.70027,-4.0446 z m 46.4219,-4.932 c 4.92568,-3.8529 2.39541,-3.8529 -4.64219,0 -4.04129,2.2125 -4.6304,2.9728 -2.3211,2.9955 1.70214,0.017 4.83562,-1.3312 6.96329,-2.9955 z m -1.54895,-15.8899 c 7.5951,-4.2409 18.65684,-12.49493 23.07907,-17.22111 3.37713,-3.60924 3.57284,-4.54948 2.04242,-9.81187 -2.62203,-9.01595 -7.09022,-35.71202 -7.75473,-46.33227 -0.56041,-8.95625 -0.88545,-9.66428 -5.11334,-11.13813 -2.48319,-0.86564 -4.51489,-2.49968 -4.51489,-3.63118 0,-3.22841 4.5725,-8.93549 7.15908,-8.93549 4.31098,0 15.68579,9.1027 17.35373,13.88736 0.89756,2.57477 2.53858,4.68045 3.64668,4.67929 1.47826,-0.002 1.87178,2.29611 1.47784,8.62877 -0.92141,14.81171 0.47991,18.49904 9.66603,25.43463 13.45398,10.15785 25.40415,13.3508 54.31413,14.5121 13.61709,0.54699 29.28448,1.66534 34.81642,2.4852 24.25018,3.59401 48.36593,0.7743 65.96309,-7.71266 5.31538,-2.56355 10.35762,-4.66102 11.20496,-4.66102 0.84734,0 1.95562,-1.3075 2.46282,-2.90558 2.11367,-6.65957 15.79155,-17.33495 21.90625,-17.09747 4.89492,0.19009 12.16733,5.33734 12.70271,8.99069 0.38518,2.62844 -0.58626,3.86647 -4.06394,5.17914 -3.24986,1.22668 -5.75023,4.13126 -8.6551,10.05415 -3.65051,7.44325 -3.83545,8.57866 -1.73879,10.6753 1.29039,1.29041 2.34918,2.81869 2.35286,3.39621 0.003,0.5775 2.97798,4.3266 6.60955,8.33131 7.21907,7.96083 15.14267,12.06113 23.3072,12.06113 4.90391,0 5.39549,-0.4679 7.17718,-6.83146 1.09418,-3.90799 1.67688,-12.46309 1.36164,-19.99123 -0.50128,-11.97142 -1.01566,-13.81879 -5.69637,-20.45818 -4.77466,-6.77264 -5.06419,-7.86851 -4.01892,-15.21204 2.23365,-15.69245 1.18026,-35.1176 -2.52692,-46.59851 -5.09816,-15.78861 -14.68772,-35.11365 -19.90435,-40.11149 l -4.53569,-4.34546 -4.20607,8.30191 c -2.31335,4.56604 -6.78274,12.47987 -9.932,17.58628 -3.14926,5.10641 -7.55069,12.41786 -9.78097,16.24766 -2.23028,3.82981 -6.56827,9.7486 -9.63997,13.15288 -3.07171,3.40427 -8.84155,10.01939 -12.82185,14.70026 -3.98031,4.68088 -8.11074,9.06943 -9.17874,9.75236 -1.068,0.68291 -6.41314,5.03497 -11.8781,9.67123 -5.46495,4.63625 -10.62598,8.42955 -11.46896,8.42955 -0.84297,0 -1.76477,0.52225 -2.04847,1.16055 -0.28369,0.6383 -3.78569,3.78753 -7.78225,6.9983 -8.51583,6.8415 -22.68101,10.71388 -26.77192,7.31872 -3.22889,-2.67973 -0.9516,-5.1543 9.1344,-9.92574 7.77895,-3.68004 26.38273,-16.35037 29.54616,-20.1228 0.85107,-1.0149 5.03543,-4.59265 9.29857,-7.95057 4.26316,-3.35791 10.87828,-9.57386 14.70027,-13.81323 3.82201,-4.23936 7.87608,-8.69772 9.00905,-9.90746 3.24665,-3.46665 14.18771,-18.51876 14.18771,-19.5187 0,-0.49635 1.31463,-2.78914 2.92142,-5.09512 8.22407,-11.80273 14.09994,-21.79506 14.09994,-23.97788 0,-3.03977 -2.74312,-3.76051 -15.47397,-4.06577 -7.67573,-0.18405 -11.35487,-1.09854 -15.53307,-3.86098 -3.01125,-1.9909 -7.70348,-4.10927 -10.42718,-4.70749 -2.72371,-0.59823 -5.40096,-1.81382 -5.94946,-2.70131 -0.54849,-0.88749 -7.34569,-4.57254 -15.10487,-8.18902 -13.8216,-6.44209 -21.95016,-12.82199 -33.14463,-26.01437 -7.37432,-8.69043 -7.50111,-8.45827 -11.24079,20.58115 -1.5803,12.27122 -1.20608,32.51665 0.97416,52.70415 0.73735,6.8274 0.41399,9.03092 -1.56646,10.67455 -2.12156,1.76073 -2.81168,1.63892 -4.60436,-0.81271 -3.31831,-4.53807 -4.58894,-17.81214 -4.5544,-47.57907 l 0.032,-27.5665 -3.98619,0.97106 c -2.19241,0.53408 -7.72607,2.66814 -12.29702,4.74238 -4.57096,2.07424 -8.99463,3.77134 -9.83039,3.77134 -0.83577,0 -8.57103,3.53008 -17.18949,7.84462 -20.33214,10.17864 -43.49249,26.79353 -54.31959,38.96806 -13.78443,15.49988 -30.27297,44.33641 -30.27297,52.94382 0,2.20527 -2.36828,11.31301 -5.26282,20.23946 -5.067,15.626 -5.15336,16.28847 -2.3211,17.80425 2.01527,1.07854 2.94173,3.25036 2.94173,6.89607 0,4.3518 -0.84883,5.76066 -4.65733,7.73011 -4.41397,2.28255 -4.54875,2.62827 -2.57934,6.61617 1.14291,2.31427 2.97752,8.38575 4.07692,13.49216 1.09939,5.10644 2.62282,11.85004 3.38537,14.98574 l 1.38649,5.7015 7.31623,-3.2364 c 4.02392,-1.7799 9.75407,-4.5975 12.73366,-6.2613 z m 316.22299,-3.4568 c 23.42885,-3.2888 30.35009,-4.95215 51.90388,-12.47353 1.65993,-0.57926 1.29838,-1.68869 -1.54739,-4.74816 -5.40537,-5.81125 -8.1905,-6.49103 -34.08922,-8.32035 l -23.4625,-1.65723 -4.76748,4.8763 c -2.62211,2.68196 -6.34997,5.47795 -8.28413,6.21332 -2.66166,1.01195 -3.52179,2.56903 -3.53778,6.40436 -0.0124,2.78703 -0.44101,6.63409 -0.95418,8.54899 -0.81287,3.0332 -0.34654,3.4816 3.62027,3.4816 2.50432,0 12.00766,-1.0464 21.11853,-2.3253 z M 182.46849,945.54811 c 7.9955,-3.15954 14.07767,-6.79853 17.97663,-10.75555 3.74202,-3.79776 7.32978,-5.98993 9.83036,-6.00645 3.23126,-0.0214 4.82752,-1.71065 8.89753,-9.41596 2.72791,-5.16445 4.95982,-10.36628 4.95982,-11.55962 0,-1.19334 1.66321,-5.84607 3.69602,-10.33938 2.0328,-4.49333 4.21463,-10.60685 4.84849,-13.58558 0.63388,-2.97874 2.4523,-7.84274 4.04098,-10.80886 1.58867,-2.96615 2.88848,-6.80839 2.88848,-8.53834 0,-1.72994 1.63725,-5.57005 3.63833,-8.53359 2.00108,-2.96353 4.45474,-7.88591 5.45259,-10.93861 0.99786,-3.05269 3.0627,-6.89039 4.58854,-8.52818 1.52586,-1.63781 5.24212,-6.79976 8.25837,-11.47101 7.08398,-10.97089 13.49692,-17.39992 28.52161,-28.59312 6.71556,-5.00301 14.36869,-10.94421 17.00696,-13.20266 5.87162,-5.02635 34.77204,-19.95074 49.01551,-25.31197 8.48703,-3.19451 36.54488,-8.69716 44.34655,-8.69716 1.27866,0 1.13008,-1.27088 -0.49749,-4.25534 -3.91923,-7.18673 -11.17836,-24.02361 -13.28178,-30.80593 -1.41007,-4.54667 -2.99033,-6.6246 -5.38631,-7.08262 -3.8028,-0.72695 -43.38669,5.10209 -61.19826,9.01195 -33.45886,7.34461 -69.62774,37.83089 -89.79293,75.68534 -2.26683,4.25534 -6.31776,11.42335 -9.00207,15.92892 -2.68432,4.50555 -4.88057,8.55806 -4.88057,9.00557 0,1.07188 -9.07605,14.23974 -12.2306,17.7446 -1.35831,1.50916 -4.90681,6.29417 -7.88555,10.63336 -2.97874,4.3392 -7.67896,10.39619 -10.44493,13.45997 -2.76597,3.06378 -5.02904,6.04325 -5.02904,6.62103 0,2.26626 -10.61966,12.48706 -12.97435,12.48706 -1.57405,0 0.68579,-3.21023 6.10605,-8.67396 4.73271,-4.77069 8.17632,-9.10258 7.65248,-9.62642 -0.52384,-0.52385 -1.43684,-0.27232 -2.02886,0.55894 -1.73132,2.43094 -11.5204,9.1666 -16.43216,11.30662 -2.59368,1.13007 -9.85634,1.88793 -17.02136,1.77621 -6.87357,-0.10723 -15.2827,-0.0983 -18.68699,0.0198 l -6.18958,0.21467 6.18958,2.26562 c 3.56105,1.30348 11.77525,2.28767 19.34247,2.31755 10.09801,0.0399 12.47308,0.43313 10.22601,1.69324 -4.37419,2.45295 -30.04757,0.72714 -36.15336,-2.4303 -3.27412,-1.69311 -5.02059,-1.98224 -5.02059,-0.83115 0,2.12048 -5.43524,-1.25042 -16.242659,-10.07353 -8.42902,-6.88143 -12.60733,-11.74013 -11.91936,-13.86033 0.24242,-0.74711 -0.90854,-4.92508 -2.5577,-9.28438 -4.09535,-10.82541 -6.92544,-22.17619 -7.37757,-29.58955 -0.20762,-3.40427 -0.44945,-7.23407 -0.53739,-8.51068 -0.25561,-3.71047 -4.57202,4.88699 -4.66128,9.28438 -0.0556,2.73875 -0.46301,3.26187 -1.395061,1.79128 -0.999109,-1.57638 -2.157302,-0.89646 -4.803664,2.82001 -8.018864,11.26146 -9.791986,29.86085 -5.239788,54.96348 2.752438,15.17802 7.079155,24.32896 16.095983,34.04272 3.16002,3.40427 6.39234,7.42145 7.18293,8.92709 0.79058,1.50561 6.20051,6.53307 12.02207,11.17214 l 10.584639,8.43464 8.84099,-0.92407 c 8.06051,-0.84248 9.06581,-0.60309 11.38771,2.71189 1.40071,1.99977 2.54673,4.81967 2.54673,6.26642 0,4.64948 12.02044,7.29748 29.21896,6.43669 8.09421,-0.4051 14.94598,-1.96355 23.50788,-5.34689 z m 489.58766,1.85835 c 0.4996,-0.80836 -0.45802,-2.20102 -2.12805,-3.0948 -4.19366,-2.24437 -4.61552,-2.07626 -3.68822,1.46977 0.84258,3.22197 4.24225,4.17182 5.81627,1.62503 z m -91.24841,-3.17243 c 0,-1.13475 -0.87042,-2.35333 -1.93425,-2.70794 -1.15063,-0.38354 -1.93425,0.71352 -1.93425,2.70794 0,1.99442 0.78362,3.09148 1.93425,2.70794 1.06383,-0.35461 1.93425,-1.57319 1.93425,-2.70794 z M 329.3558,938.04444 c 0,-0.85106 -0.69633,-1.54739 -1.5474,-1.54739 -0.85107,0 -1.54739,0.69633 -1.54739,1.54739 0,0.85107 0.69632,1.5474 1.54739,1.5474 0.85107,0 1.5474,-0.69633 1.5474,-1.5474 z m -261.451254,-3.98737 10.727765,-2.43999 -4.9606,-6.45754 c -9.034623,-11.76096 -14.114037,-16.51563 -17.643629,-16.51563 -1.910491,0 -3.929171,0.7371 -4.485953,1.638 -0.581331,0.9406 -2.9296,1.21688 -5.515578,0.6489 -4.311051,-0.94687 -16.642297,2.50129 -21.121023,5.90601 -1.063835,0.80873 -1.934246,0.99372 -1.934246,0.41109 0,-0.58262 -3.133478,1.19097 -6.963284,3.94133 -3.829807,2.75036 -6.9632836,5.94434 -6.9632836,7.09774 0,7.1841 36.7872596,10.79038 58.8598316,5.77009 z M 597.67228,913.29981 c 8.66262,-15.91607 13.70576,-37.88751 13.4123,-58.43322 -0.20127,-14.08998 -0.82597,-17.41798 -5.58052,-29.72905 -2.94462,-7.62461 -5.35387,-14.82033 -5.35387,-15.99047 0,-1.17014 -2.79169,-6.02609 -6.20376,-10.79098 -6.12916,-8.55927 -6.25478,-8.63686 -10.44492,-6.45102 -2.33264,1.21684 -5.20817,2.21672 -6.39004,2.22197 -1.18189,0.005 -8.13463,2.87996 -15.45055,6.38827 l -13.30169,6.37874 4.91243,4.10106 c 5.26621,4.39643 13.25884,20.50889 16.689,33.64359 1.1417,4.3718 3.0817,9.94243 4.31112,12.37917 1.22942,2.43675 4.42153,10.80898 7.09358,18.60498 5.06523,14.7784 5.75668,22.9599 3.48089,41.1876 -0.61391,4.91713 -0.8246,9.23184 -0.46821,9.58824 1.56936,1.56934 9.63751,-6.38026 13.29424,-13.09888 z m 35.66042,-29.3915 c 3.11197,-3.76192 13.23705,-15.0856 17.91297,-20.03348 4.33692,-4.58916 16.7588,-27.03103 23.984,-43.33044 6.81017,-15.36316 7.14695,-16.78792 6.94945,-29.40053 -0.1142,-7.29022 0.24919,-18.12926 0.80742,-24.08673 0.94153,-10.04799 -1.55583,-37.07394 -5.43358,-58.80107 -1.99391,-11.17205 -7.71239,-46.39533 -9.29508,-57.25367 -1.59936,-10.97273 -7.17135,-27.28237 -11.90837,-34.85672 -1.8565,-2.96848 -4.73696,-8.52584 -6.40105,-12.34969 -1.94016,-4.45828 -6.06801,-9.45054 -11.50624,-13.91575 -4.66436,-3.82981 -11.15913,-11.14126 -14.43281,-16.24767 -8.71606,-13.59558 -33.31036,-37.15109 -42.21677,-40.43364 -3.94597,-1.45433 -8.27381,-3.57072 -9.61743,-4.70309 -1.34362,-1.13237 -3.20509,-2.05886 -4.13662,-2.05886 -0.93152,0 -3.66201,-1.64554 -6.06773,-3.65676 -2.40574,-2.01121 -5.94457,-4.14832 -7.86407,-4.74911 -1.91948,-0.6008 -5.57552,-2.84722 -8.12451,-4.99206 -7.81818,-6.57856 -23.84001,-11.59593 -44.09177,-13.80769 -26.12881,-2.85361 -61.40942,-4.57454 -85.65749,-4.17823 -19.34611,0.31619 -21.27442,0.62936 -30.17424,4.90053 -5.22905,2.50951 -14.03352,5.7745 -19.56546,7.25552 -5.53195,1.48102 -14.92995,5.02049 -20.88447,7.86549 -5.95452,2.845 -11.41765,5.17272 -12.1403,5.17272 -0.72265,0 -3.50059,1.56674 -6.17319,3.48165 -2.67261,1.9149 -6.26174,4.22636 -7.97587,5.13658 -26.25258,13.94049 -46.61221,28.51957 -66.71824,47.77545 -0.93819,0.89854 -9.29413,8.58799 -18.56876,17.08767 -23.52558,21.55992 -39.36388,38.29667 -56.32155,59.51649 -2.97874,3.72741 -6.14473,7.53294 -7.03552,8.45674 -5.21887,5.41212 -36.74698,50.18723 -42.31471,60.09382 -1.79369,3.19151 -4.58843,8.14449 -6.21054,11.00662 -1.62212,2.86214 -3.88518,6.86603 -5.02904,8.89753 -1.14386,2.03151 -2.8782,4.73814 -3.85407,6.01474 -3.868,5.05997 -19.410039,35.95786 -22.338849,44.41007 -3.50932,10.12754 -3.21073,16.13984 1.86168,37.48611 5.72175,24.07887 13.428809,29.93875 41.830949,31.80523 20.28138,1.33282 24.84704,-0.31536 41.00518,-14.80265 6.08738,-5.4579 12.7503,-11.07929 14.8065,-12.49197 2.05619,-1.41269 9.54295,-12.90211 16.63723,-25.53204 22.63921,-40.30457 25.32262,-44.38434 37.70531,-57.32581 11.55139,-12.07268 29.98919,-26.0065 46.47444,-35.12172 6.8782,-3.80318 39.344,-13.28849 45.56101,-13.31125 1.43185,-0.005 4.39511,-0.94455 6.58502,-2.08734 6.16438,-3.21684 24.80936,-7.36832 30.83477,-6.86563 l 5.41589,0.45182 -0.20544,-7.73698 c -0.11296,-4.25534 -0.39124,-14.70027 -0.61834,-23.21095 -0.5105,-19.13119 3.80614,-39.85191 11.6696,-56.0165 2.98109,-6.12809 6.0352,-12.74321 6.78693,-14.70026 3.65201,-9.50786 25.83097,-33.95626 38.46037,-42.39579 4.46811,-2.98579 8.12383,-6.16232 8.12383,-7.05894 0,-0.89664 1.03222,-1.23414 2.29385,-0.75001 1.26161,0.48412 5.26549,-0.18674 8.89753,-1.49081 17.16316,-6.16236 68.32965,-12.26994 72.78523,-8.68813 1.6396,1.31807 16.42317,5.16793 28.98334,7.5477 2.12767,0.40313 9.35946,3.48057 16.07064,6.83877 9.41328,4.71027 12.68468,5.70531 14.31342,4.3536 2.56185,-2.12616 4.24058,-0.93064 15.45425,11.0059 4.39741,4.68087 10.81738,10.59967 14.26662,13.15287 3.44923,2.5532 7.11401,6.19451 8.14395,8.09179 1.02993,1.89727 4.19636,5.03075 7.03646,6.96328 6.70911,4.56514 15.03655,16.72373 19.98893,29.18512 10.11589,25.45399 11.38599,67.896 2.82055,94.2518 -3.92836,12.08755 -10.35544,26.96276 -13.03725,30.17423 -1.42142,1.70214 -2.9764,4.2142 -3.45554,5.58234 -1.30444,3.72485 -23.36525,21.0893 -33.78619,26.59373 -5.02202,2.65265 -9.13093,5.44225 -9.13093,6.19909 0,0.75683 3.30756,6.29621 7.35014,12.30974 6.96012,10.35353 13.51807,25.38938 18.21889,41.77167 3.8703,13.48801 2.94451,47.63082 -1.60493,59.18829 -1.31716,3.34614 7.84389,-4.30938 13.8606,-11.58273 z m -1.99063,-25.26084 c -0.92531,-1.11493 -3.84804,-12.77843 -6.49495,-25.9189 -2.64691,-13.14046 -5.8599,-28.06971 -7.13997,-33.17611 -1.28006,-5.10641 -2.71088,-10.89888 -3.17957,-12.87216 -0.63176,-2.65976 0.50054,-5.00622 4.37754,-9.07158 8.73383,-9.15816 39.72611,-36.08363 41.53368,-36.08363 1.15595,0 1.37078,3.14938 0.67682,9.92282 -0.73423,7.16647 -0.25661,13.02414 1.71942,21.08751 2.1794,8.89322 2.52441,14.43828 1.69581,27.25476 -1.09836,16.98879 -3.04175,23.74692 -6.82876,23.74692 -1.96383,0 -2.14361,-2.61272 -1.23058,-17.88434 0.86362,-14.44531 0.53805,-20.24762 -1.69308,-30.17424 -1.51928,-6.75944 -3.51149,-12.28988 -4.42712,-12.28988 -0.91564,0 -7.10264,5.16279 -13.74888,11.47287 -10.68208,10.1418 -11.99028,11.98196 -11.27571,15.86082 1.11759,6.06658 10.1774,41.94398 12.15851,48.14854 l 1.62067,5.07568 6.3205,-6.32048 c 9.08512,-9.08512 14.09099,-12.35698 16.5658,-10.82746 1.64089,1.01413 0.87967,2.98915 -3.50361,9.09035 -10.58868,14.73869 -20.13629,24.98566 -23.28035,24.98566 -1.20107,0 -2.94086,-0.91222 -3.86617,-2.02715 z M 121.65491,842.16235 c -7.12469,-3.34369 -12.04176,-18.24437 -13.16127,-39.88399 l -0.81962,-15.84284 6.62535,-8.5877 c 3.64394,-4.72323 12.9612,-13.76565 20.70505,-20.09429 7.74382,-6.32863 18.60582,-15.69558 24.13776,-20.81544 5.53194,-5.11985 10.7977,-9.31574 11.70168,-9.32421 2.8149,-0.0263 14.87192,6.29815 18.30064,9.59954 1.79668,1.72996 8.30998,6.91307 14.47397,11.51802 16.77765,12.53411 21.02884,18.22381 16.89225,22.60825 -2.1187,2.24564 -10.30445,14.69005 -10.30445,15.66536 0,0.36949 -2.43715,4.37243 -5.41589,8.89541 -2.97874,4.52299 -5.41589,10.15439 -5.41589,12.51424 0,2.35985 -0.59829,4.29063 -1.32954,4.29063 -0.73125,0 -4.49382,2.78531 -8.36128,6.18958 -3.86745,3.40427 -7.93913,6.18959 -9.04817,6.18959 -1.10902,0 -6.01159,2.80246 -10.89458,6.22767 -11.07814,7.77088 -19.30473,10.84373 -32.61203,12.18149 -7.87189,0.79134 -11.64224,0.46696 -15.47398,-1.33131 z m 26.25577,-10.13922 c 4.34443,-1.29016 11.33932,-4.66093 15.5442,-7.4906 4.20488,-2.82968 8.61043,-5.53167 9.7901,-6.00441 1.17968,-0.47275 5.01723,-2.96209 8.52792,-5.53188 8.5437,-6.25393 31.12141,-41.43151 28.90801,-45.04065 -0.82499,-1.34521 -6.31768,-5.78126 -12.20594,-9.85786 -5.88827,-4.0766 -13.86335,-10.51764 -17.72239,-14.31341 -3.85904,-3.79578 -7.71065,-6.90142 -8.55912,-6.90142 -0.84848,0 -5.69886,4.24794 -10.77862,9.43987 -5.07978,5.19192 -13.06575,12.28738 -17.74663,15.76766 -4.68087,3.4803 -12.86273,10.48399 -18.18191,15.56375 -8.63987,8.25101 -9.67123,9.88121 -9.67123,15.2867 0,4.89655 5.70898,31.36392 8.51874,39.49375 0.93133,2.69471 13.87805,2.46875 23.57687,-0.4115 z m 66.16408,-113.1488 c -2.55321,-1.347 -8.472,-6.13969 -13.15287,-10.65041 -4.68088,-4.51074 -9.90334,-8.4589 -11.60548,-8.77371 -2.88348,-0.53328 -3.07224,-1.66017 -2.76461,-16.50394 0.50531,-24.38203 2.41855,-32.36174 9.12201,-38.04578 3.068,-2.60143 12.36059,-11.345 20.65023,-19.43014 8.28965,-8.08515 18.31214,-16.31586 22.2722,-18.29046 3.96008,-1.97462 7.20015,-4.50467 7.20015,-5.62236 0,-2.89146 5.74232,-3.87445 28.70417,-4.91366 l 20.19351,-0.91393 4.85042,5.52433 c 2.66775,3.03839 6.75253,8.85957 9.07731,12.93596 2.32478,4.0764 5.57337,8.92318 7.21907,10.77064 2.69186,3.02186 2.81586,4.18123 1.23535,11.55091 -3.93177,18.3332 -21.84036,57.65434 -27.95273,61.37465 -2.12767,1.29502 -6.30564,3.95657 -9.28438,5.91457 -2.97874,1.958 -11.55718,5.01757 -19.06321,6.79906 -7.50604,1.78147 -17.95096,4.53367 -23.21095,6.11599 -15.03769,4.52366 -18.41798,4.83425 -23.49019,2.15828 z m 16.57723,-8.49804 c 11.55515,-4.65486 20.36116,-7.28296 33.63609,-10.0385 19.5337,-4.05468 21.75383,-5.81791 29.35263,-23.31166 3.62943,-8.35558 7.88674,-17.97728 9.46066,-21.38155 8.4064,-18.18237 10.37311,-27.07944 5.98595,-27.07944 -0.75273,0 -3.44011,-3.67049 -5.97193,-8.15664 -2.53184,-4.48615 -7.01975,-10.49873 -9.97316,-13.36129 -5.24645,-5.08505 -5.53005,-5.16429 -12.34279,-3.44883 -3.83513,0.9657 -8.87064,1.75581 -11.19003,1.75581 -2.31938,0 -8.67653,0.77658 -14.12699,1.72574 -11.31229,1.96996 -13.80595,3.81226 -40.98889,30.28227 -18.49656,18.01146 -18.83853,18.69911 -20.3796,40.98067 l -0.92774,13.41391 5.0284,3.11221 c 2.76562,1.71172 7.11738,5.33819 9.67058,8.05886 3.71725,3.96105 12.67794,10.71061 14.25613,10.73831 0.18127,0.003 4.01107,-1.47727 8.51069,-3.28987 z M 341.4981,694.00934 c -2.58945,-0.39748 -6.79015,-3.74015 -11.37619,-9.05254 -3.99895,-4.6323 -8.26626,-8.42237 -9.48292,-8.42237 -4.23253,0 -3.80773,-4.33008 1.76439,-17.9842 3.08335,-7.55558 7.66787,-19.2034 10.18781,-25.88404 5.28058,-13.99945 8.46433,-20.51984 10.69141,-21.89625 0.86329,-0.53356 3.82764,1.42268 6.58744,4.34716 3.98165,4.21927 6.67926,5.54547 13.06378,6.42236 9.37469,1.28758 12.31258,3.78314 9.85646,8.37244 -0.91012,1.70059 -1.65477,8.12909 -1.65477,14.28558 0,6.15647 -0.78364,15.77676 -1.74141,21.37843 -1.4631,8.55712 -2.55753,10.86771 -6.84795,14.45776 -2.8086,2.35011 -6.60789,6.70216 -8.44287,9.67123 -3.26996,5.29087 -4.17197,5.59889 -12.60518,4.30444 z m 14.20624,-18.31719 6.12508,-6.25815 1.56372,-19.13945 c 0.86006,-10.52671 1.17936,-19.52383 0.70959,-19.9936 -0.83003,-0.83004 -13.31072,-4.59294 -17.4743,-5.26847 -1.14009,-0.18498 -3.15151,2.44447 -4.47786,5.85375 -1.32442,3.40428 -5.45106,13.41801 -9.17035,22.25273 -7.55906,17.95571 -7.83277,16.01806 4.02476,28.49199 l 7.05109,7.41762 2.7616,-3.54913 c 1.51888,-1.95202 5.5179,-6.36529 8.88667,-9.80729 z m -28.51858,-90.01878 c -3.06623,-0.78441 -6.08735,-2.40424 -22.20146,-11.90366 -9.51956,-5.61188 -12.44076,-10.34874 -7.5414,-12.2288 1.30912,-0.50236 1.85285,-2.26624 1.41104,-4.57746 -0.5744,-3.00472 1.09619,-5.52574 8.31509,-12.54805 12.2144,-11.88177 20.4556,-15.43787 45.39772,-19.58921 11.48942,-1.91228 23.11151,-4.36831 25.82686,-5.45783 7.9141,-3.17549 9.0666,-0.4357 6.97219,16.57478 -1.36423,11.08015 -2.57826,15.13968 -5.78477,19.34365 -2.66218,3.49029 -4.9459,5.04415 -6.63871,4.51706 -1.64531,-0.51231 -6.22565,2.32169 -12.63859,7.81985 -12.90484,11.06402 -24.85001,19.21085 -27.83248,18.98224 -1.28796,-0.0987 -3.66643,-0.51838 -5.28549,-0.93257 z m 11.75197,-11.65396 c 4.71559,-3.61704 12.88087,-10.23216 18.14503,-14.70026 5.26418,-4.46811 10.2314,-8.12384 11.03829,-8.12384 4.12304,0 7.65664,-6.42722 7.65664,-13.92656 0,-8.4076 -0.087,-8.46333 -9.7597,-6.25733 -3.56838,0.81381 -12.34094,2.59776 -19.49457,3.96434 -7.15364,1.36658 -16.47245,4.24096 -20.70848,6.38752 -7.31965,3.70914 -22.76488,16.69531 -22.76488,19.14043 0,0.63135 2.01774,1.9837 4.48387,3.0052 2.46614,1.02151 8.21085,5.25236 12.76602,9.40187 4.55518,4.14953 8.68305,7.57619 9.17305,7.61483 0.49,0.0387 4.74913,-2.88916 9.46473,-6.5062 z m 68.42759,-35.95995 c -1.27218,-5.06875 0.13308,-19.80544 2.54695,-26.70961 1.50964,-4.31784 2.48854,-5.02904 6.92208,-5.02904 2.84008,0 7.00067,-0.69838 9.24576,-1.55196 2.24508,-0.85359 12.90943,-1.65424 23.69853,-1.77924 23.23609,-0.26921 40.7803,3.64714 54.04612,12.06459 14.33726,9.0973 9.75257,14.52429 -10.22073,12.09852 -25.02366,-3.03914 -42.3934,-1.06015 -61.39644,6.9951 -20.81283,8.8224 -23.50342,9.24606 -24.84227,3.91164 z m 17.59365,-12.14055 c 4.01429,-1.98707 11.82483,-5.22874 17.35678,-7.2037 5.53194,-1.97496 10.71959,-4.17899 11.5281,-4.89783 2.20187,-1.95764 -24.21413,-1.57844 -29.97644,0.43031 -4.9412,1.72251 -7.85741,6.28385 -7.85741,12.29002 0,3.75805 0.12426,3.74946 8.94897,-0.6188 z m 121.80604,8.25504 c -1.70213,-0.73143 -6.22827,-1.45889 -10.05808,-1.61658 l -6.96328,-0.28671 6.18959,-1.19735 c 4.7465,-0.91819 7.45229,-0.53188 11.60547,1.65695 5.47515,2.88554 4.93353,3.89617 -0.7737,1.44369 z m -355.1275,313.93886 c 0,-0.85107 -0.69633,-1.11705 -1.5474,-0.59106 -0.85107,0.52599 -1.5474,1.65266 -1.5474,2.50373 0,0.85107 0.69633,1.11705 1.5474,0.59106 0.85107,-0.52599 1.5474,-1.65267 1.5474,-2.50373 z M 519.17973,805.7649 c 5.25372,-1.23888 18.48396,-6.03346 29.40053,-10.65462 10.91656,-4.62116 22.35823,-9.18844 25.42591,-10.14951 3.06767,-0.96106 8.40083,-4.16397 11.85145,-7.11756 3.45061,-2.95361 7.03356,-5.37019 7.96211,-5.37019 0.92855,0 1.68827,-0.57867 1.68827,-1.28592 0,-0.70725 1.87186,-2.27399 4.15967,-3.48164 8.31592,-4.38966 23.14204,-18.8699 33.23599,-32.46067 5.30885,-7.14796 14.67355,-28.82049 13.12325,-30.37081 -0.27025,-0.27025 -3.21755,2.93764 -6.54953,7.12864 -9.56521,12.03121 -14.64604,14.18411 -34.28956,14.52954 -14.56119,0.25605 -17.44496,-0.13617 -23.05327,-3.13561 -9.08052,-4.85641 -16.93401,-14.74779 -20.7039,-26.07633 -4.11685,-12.37112 -2.66473,-18.73575 6.97439,-30.56877 12.38106,-15.19905 28.26015,-24.41007 45.72887,-26.52601 7.74645,-0.93831 9.10068,-0.60992 16.19051,3.92618 4.25534,2.72256 8.64689,6.24818 9.75897,7.8347 1.1121,1.58651 3.0681,2.88456 4.34667,2.88456 1.33371,0 1.86412,0.7452 1.24426,1.74814 -0.65921,1.06662 -0.24235,1.45414 1.06922,0.994 1.1823,-0.41478 1.99233,-2.07184 1.80007,-3.68238 -0.19226,-1.61053 -0.80078,-6.75806 -1.35225,-11.43893 -1.459,-12.38377 -7.44501,-26.1175 -15.70639,-36.0352 -2.76597,-3.32053 -5.02904,-6.58843 -5.02904,-7.26199 0,-0.67358 -2.61123,-2.4357 -5.80273,-3.91583 -3.19151,-1.48013 -11.41425,-8.38345 -18.27278,-15.34073 -7.53537,-7.64389 -15.49576,-14.08478 -20.11615,-16.27636 -21.08548,-10.00136 -39.03811,-17.1086 -43.21855,-17.10974 -2.56293,-7e-4 -9.77748,-1.06891 -16.03232,-2.3738 -9.31207,-1.94271 -13.65741,-2.0621 -23.98464,-0.65893 -33.41651,4.54032 -50.09102,9.90773 -64.45,20.74601 -4.68087,3.53317 -9.72037,6.88687 -11.19888,7.45269 -4.45876,1.70633 -26.89485,49.59273 -30.67361,65.46813 -6.43941,27.05332 -0.6073,64.6431 15.17265,97.79266 2.13477,4.48459 4.51875,8.5477 5.29772,9.02914 0.77899,0.48144 2.50711,3.60143 3.84027,6.93331 1.33316,3.33189 3.04464,6.05798 3.8033,6.05798 0.75866,0 1.38925,0.87041 1.40131,1.93425 0.0407,3.58863 16.88203,19.85139 23.66464,22.85167 3.70062,1.63694 8.74575,4.56347 11.2114,6.5034 8.79005,6.91578 21.24995,13.58518 25.38007,13.58518 2.30825,0 4.70912,0.52225 5.33527,1.16055 1.10667,1.12813 14.82664,4.52937 19.4935,4.83252 1.2766,0.0829 6.61959,-0.86285 11.87333,-2.10172 z m -36.18332,-31.74449 c -0.69713,-2.66584 -2.11068,-3.09479 -10.19836,-3.09479 -6.33368,0 -11.54325,-1.04284 -16.00884,-3.20458 -8.96486,-4.33981 -16.15021,-16.2837 -11.51831,-19.14637 2.23254,-1.37978 5.73501,0.55426 7.71975,4.26277 1.0041,1.87618 4.16139,5.01172 7.01622,6.96788 4.79182,3.2834 5.94619,3.43943 15.02642,2.03097 5.40972,-0.83912 13.10081,-2.31808 17.09131,-3.28658 5.47583,-1.32898 8.08204,-1.31852 10.62544,0.0427 2.85221,1.52646 3.04454,2.12905 1.25168,3.92192 -1.1651,1.16508 -4.90206,3.09577 -8.30437,4.29039 -4.50637,1.58229 -6.04871,2.91708 -5.68034,4.91597 0.9361,5.07939 -5.72324,7.26081 -7.0206,2.29974 z m -49.36865,-30.07828 c -1.44929,-3.77679 1.25815,-5.75219 9.09441,-6.63546 5.2576,-0.59261 7.07926,-0.2158 7.77957,1.60918 1.26965,3.30867 -2.29993,5.83167 -9.64454,6.81679 -4.92499,0.66059 -6.43209,0.28732 -7.22944,-1.79051 z m 57.17268,-23.42201 c -0.60544,-1.57779 -2.09228,-2.14571 -4.21962,-1.61178 -4.25567,1.0681 -6.55991,-0.44709 -8.51995,-5.6024 -1.2291,-3.23279 -1.06481,-4.69271 0.73003,-6.48755 3.13758,-3.13758 9.67172,-0.19686 10.95903,4.93216 0.81407,3.24353 1.58619,3.61603 5.84081,2.81787 6.57657,-1.23377 11.77457,2.26684 8.75984,5.89937 -2.71929,3.27653 -12.29869,3.31353 -13.55014,0.0523 z m -37.15825,-70.21321 c -12.34971,-1.94322 -18.9693,-7.42382 -29.81854,-24.68786 -6.62639,-10.54436 -8.16362,-22.93814 -3.87421,-31.23537 8.91934,-17.25309 23.16762,-27.17711 45.44514,-31.65283 17.80606,-3.57738 31.76497,2.73165 39.61022,17.90271 8.26571,15.98412 9.33843,29.44267 3.35007,42.03057 -4.5067,9.47333 -14.70816,20.36894 -23.07982,24.65023 -6.80626,3.48074 -20.3734,4.76423 -31.63286,2.99255 z m 19.40043,-11.00714 c 8.18195,-1.75472 18.25174,-10.13045 22.94392,-19.08403 2.21704,-4.23053 2.18821,-4.40514 -0.51608,-3.12509 -4.13921,1.95927 -20.23763,1.44795 -28.70664,-0.91178 -9.94221,-2.77023 -17.64778,-10.89071 -20.39916,-21.49754 -1.17131,-4.5155 -1.78394,-9.53197 -1.36141,-11.14773 2.00072,-7.65075 -8.26393,1.01679 -13.79461,11.64826 -4.37549,8.41087 -3.18254,17.04417 3.80115,27.50865 11.55932,17.32071 19.18575,20.65123 38.03283,16.60926 z m 16.55982,-57.92137 c 2.91634,-2.24498 2.85672,-2.4475 -2.04976,-6.96329 -5.14951,-4.73944 -14.52213,-6.48204 -16.61866,-3.08979 -1.86846,3.02324 0.90989,7.72313 4.56555,7.72313 1.96612,0 4.4416,1.04449 5.50109,2.3211 2.43515,2.93417 4.79849,2.9366 8.60178,0.009 z m 25.61267,36.67583 c -1.92217,-3.5916 0.90668,-15.712 3.93867,-16.87547 5.99291,-2.29969 9.39703,10.68233 4.01343,15.30572 -4.87081,4.183 -6.39275,4.48344 -7.9521,1.56975 z m 108.57763,92.40164 c 3.1784,-2.61991 6.40187,-5.92747 7.16325,-7.35013 1.22192,-2.28319 0.26756,-2.59708 -8.13429,-2.67541 -11.9967,-0.11187 -22.08396,-4.76355 -31.41862,-14.48862 -4.70046,-4.89708 -7.09385,-8.90134 -7.74741,-12.9619 l -0.94572,-5.87571 -3.80607,3.55462 c -10.04324,9.3797 -10.44961,22.12464 -1.08446,34.01207 6.37954,8.09771 12.62683,10.53647 27.00725,10.54277 12.44788,0.006 13.51111,-0.26125 18.96607,-4.75769 z m 0.33237,-57.14314 c -2.2912,-2.53174 -4.41648,-3.12956 -9.84581,-2.7695 -7.68959,0.50993 -10.30345,3.67538 -4.28276,5.18647 2.50782,0.62944 4.47044,2.67646 5.55843,5.79745 l 1.68182,4.82445 4.90511,-4.9051 c 4.84327,-4.84329 4.86828,-4.94581 1.98321,-8.13377 z"
       style="fill:#000000" />
  </g>
</svg>
